<svg version="1.2" xmlns="http://www.w3.org/2000/svg" xmlns:xlink="http://www.w3.org/1999/xlink" overflow="visible" preserveAspectRatio="none" viewBox="0 0 42.310001373291016 41.560001373291016" width="26" height="25">
    <g transform="translate(1, 1)">
        <g id="Layer_2_1586359696077">
            <g id="Layer_1-2_1586359696077">
                <path d="M39.88,17.52v0a.8.8,0,0,0-1.53-.06.75.75,0,0,0,0,.21,18.93,18.93,0,0,1-18.52,15,12.9,12.9,0,0,1,0-25.8,6.88,6.88,0,1,1-5.92,10.39.8.8,0,0,0-1.42.1,1,1,0,0,0,0,.13,7.74,7.74,0,0,0,7.38,10A13.76,13.76,0,1,0,19.78,0a19.78,19.78,0,0,0,0,39.56,25.88,25.88,0,0,0,8.48-1.42q.69-.24,1.36-.52A17.67,17.67,0,0,0,39.88,17.52Z" vector-effect="non-scaling-stroke"/>
            </g>
        </g>
    </g>
</svg>
