<?xml version="1.0" encoding="utf-8"?>
<!-- Generator: Adobe Illustrator 16.0.0, SVG Export Plug-In . SVG Version: 6.00 Build 0)  -->
<!DOCTYPE svg PUBLIC "-//W3C//DTD SVG 1.1//EN" "http://www.w3.org/Graphics/SVG/1.1/DTD/svg11.dtd">
<svg version="1.1" id="Layer_1" xmlns="http://www.w3.org/2000/svg" xmlns:xlink="http://www.w3.org/1999/xlink" x="0px" y="0px"
	 width="26px" height="26px" viewBox="0 0 26 26" enable-background="new 0 0 26 26" xml:space="preserve">
<path fill="#506472" d="M7.55,22.82c-0.497,0-0.9-0.403-0.9-0.9v-3.116c-0.127-0.033-0.252-0.074-0.375-0.124
	c-0.373-0.149-0.708-0.369-0.995-0.652c-0.285-0.278-0.51-0.608-0.667-0.979c-0.157-0.368-0.238-0.759-0.242-1.161
	c-0.13-1.106-0.13-2.387-0.13-4.008c0-1.499,0.044-2.886,0.132-4.124c0.136-1.73,1.31-2.801,3.221-2.944
	c1.296-0.097,3.05-0.151,5.212-0.163c1.783-0.008,3.386,0.042,5.068,0.162c0.771-0.025,1.584,0.262,2.225,0.83
	c0.64,0.565,1.033,1.347,1.108,2.199c0.094,1.184,0.094,2.377,0.094,4.029v0.7c0,0.497-0.403,0.9-0.9,0.9s-0.9-0.403-0.9-0.9v-0.7
	c0-1.611,0-2.774-0.087-3.879c-0.033-0.383-0.214-0.742-0.508-1.001c-0.293-0.261-0.674-0.389-1.062-0.38
	c-1.734-0.118-3.304-0.165-5.029-0.16c-2.091,0.011-3.85,0.065-5.087,0.158c-1.29,0.096-1.512,0.673-1.56,1.283
	C6.083,9.079,6.04,10.423,6.04,11.88c0,1.564,0,2.8,0.125,3.899c0.007,0.256,0.04,0.415,0.104,0.565s0.155,0.284,0.272,0.398
	c0.117,0.115,0.256,0.207,0.404,0.267c0.152,0.061,0.301,0.083,0.479,0.09H7.55c0.497,0,0.9,0.403,0.9,0.9v2.836
	c0.995-0.364,2.262-1.278,3.369-2.82c0.29-0.404,0.851-0.495,1.256-0.207c0.404,0.29,0.496,0.853,0.206,1.256
	C11.644,21.346,9.394,22.82,7.55,22.82z"/>
<path fill="#506472" d="M19.21,23.221c-0.497,0-0.9-0.403-0.9-0.9v-6.24c0-0.497,0.403-0.9,0.9-0.9s0.9,0.403,0.9,0.9v6.24
	C20.11,22.817,19.707,23.221,19.21,23.221z"/>
<path fill="#506472" d="M22.33,20.101h-6.24c-0.497,0-0.9-0.403-0.9-0.9s0.403-0.9,0.9-0.9h6.24c0.497,0,0.9,0.403,0.9,0.9
	S22.827,20.101,22.33,20.101z"/>
<path fill="#506472" d="M16.05,10.87H9.89c-0.497,0-0.9-0.403-0.9-0.9s0.403-0.9,0.9-0.9h6.16c0.497,0,0.9,0.403,0.9,0.9
	S16.547,10.87,16.05,10.87z"/>
<path fill="#506472" d="M15.4,14.82H9.89c-0.497,0-0.9-0.403-0.9-0.9s0.403-0.9,0.9-0.9h5.51c0.497,0,0.9,0.403,0.9,0.9
	S15.897,14.82,15.4,14.82z"/>
</svg>
