<?xml version="1.0" encoding="utf-8"?>
<!-- Generator: Adobe Illustrator 16.0.0, SVG Export Plug-In . SVG Version: 6.00 Build 0)  -->
<!DOCTYPE svg PUBLIC "-//W3C//DTD SVG 1.1//EN" "http://www.w3.org/Graphics/SVG/1.1/DTD/svg11.dtd">
<svg version="1.1" id="Layer_1" xmlns="http://www.w3.org/2000/svg" xmlns:xlink="http://www.w3.org/1999/xlink" x="0px" y="0px"
	 width="26px" height="26px" viewBox="0 0 26 26" enable-background="new 0 0 26 26" xml:space="preserve">
<path fill="#506472" d="M13.168,21.405c-1.578,0-3.189-0.021-3.857-0.057c-0.802-0.033-1.568-0.369-2.144-0.945
	c-0.577-0.577-0.912-1.343-0.946-2.156C6.133,16.547,6,13.964,6,11.81c0-0.497,0.403-0.9,0.9-0.9s0.9,0.403,0.9,0.9
	c0,2.108,0.132,4.663,0.219,6.354c0.015,0.37,0.165,0.71,0.421,0.967c0.256,0.256,0.596,0.405,0.958,0.42
	c1.228,0.066,5.94,0.078,7.188,0.001c0.376-0.017,0.716-0.167,0.973-0.425c0.257-0.256,0.407-0.597,0.423-0.958
	c0.111-2.139,0.219-4.386,0.219-6.359c0-0.497,0.403-0.9,0.9-0.9s0.9,0.403,0.9,0.9c0,2.016-0.109,4.29-0.222,6.447
	c-0.036,0.805-0.373,1.568-0.947,2.144c-0.576,0.575-1.339,0.912-2.15,0.949C16.054,21.388,14.626,21.405,13.168,21.405z"/>
<path fill="#506472" d="M20.57,8.93H5.43c-0.497,0-0.9-0.403-0.9-0.9s0.403-0.9,0.9-0.9h15.14c0.497,0,0.9,0.403,0.9,0.9
	S21.067,8.93,20.57,8.93z"/>
<path fill="#506472" d="M17.641,8.93c-1.546,0-2.614-1.316-2.878-3.53H11.22c-0.232,2.203-1.303,3.53-2.88,3.53
	c-0.497,0-0.9-0.403-0.9-0.9s0.403-0.9,0.9-0.9c0.877,0,1.073-1.715,1.104-2.059c0.052-0.426,0.243-0.79,0.541-1.055
	c0.298-0.266,0.682-0.414,1.081-0.416h3.845c0.405,0.002,0.789,0.15,1.087,0.417c0.297,0.265,0.487,0.627,0.536,1.021
	c0.037,0.369,0.252,2.092,1.107,2.092c0.497,0,0.9,0.403,0.9,0.9S18.138,8.93,17.641,8.93z"/>
</svg>
