<svg width="20" height="20" viewBox="0 0 20 20" fill="none" xmlns="http://www.w3.org/2000/svg">
<path d="M14 16.9C13.8053 16.9 13.6158 16.8368 13.46 16.72L10 14.12L6.54001 16.72C6.40629 16.8203 6.2473 16.8813 6.08083 16.8963C5.91437 16.9113 5.74701 16.8797 5.59751 16.805C5.44802 16.7302 5.32229 16.6153 5.23442 16.4731C5.14655 16.331 5.10001 16.1671 5.10001 16V3.99998C5.10001 3.76128 5.19483 3.53236 5.36361 3.36358C5.53239 3.1948 5.76131 3.09998 6.00001 3.09998H14C14.2387 3.09998 14.4676 3.1948 14.6364 3.36358C14.8052 3.53236 14.9 3.76128 14.9 3.99998V16C14.9013 16.1185 14.879 16.2362 14.8342 16.346C14.7895 16.4558 14.7232 16.5555 14.6394 16.6394C14.5555 16.7232 14.4558 16.7894 14.346 16.8342C14.2362 16.879 14.1186 16.9013 14 16.9ZM10 12.1C10.1947 12.1 10.3842 12.1631 10.54 12.28L13.1 14.2V4.89998H6.90001V14.2L9.46001 12.28C9.61579 12.1631 9.80527 12.1 10 12.1Z" fill="#637887"/>
</svg>
