<?xml version="1.0" encoding="utf-8"?>
<!-- Generator: Adobe Illustrator 16.0.0, SVG Export Plug-In . SVG Version: 6.00 Build 0)  -->
<!DOCTYPE svg PUBLIC "-//W3C//DTD SVG 1.1//EN" "http://www.w3.org/Graphics/SVG/1.1/DTD/svg11.dtd">
<svg version="1.1" id="Layer_1" xmlns="http://www.w3.org/2000/svg" xmlns:xlink="http://www.w3.org/1999/xlink" x="0px" y="0px"
	 width="20px" height="20px" viewBox="0 0 20 20" enable-background="new 0 0 20 20" xml:space="preserve">
<path fill="#3D505F" d="M5.386,16.557c-0.332,0-0.6-0.269-0.6-0.6v-2.382c-0.114-0.025-0.222-0.06-0.327-0.103
	c-0.267-0.106-0.508-0.265-0.715-0.468s-0.37-0.442-0.483-0.71c-0.113-0.265-0.172-0.548-0.175-0.838
	c-0.097-0.829-0.097-1.783-0.097-2.99c0-1.111,0.033-2.145,0.099-3.071c0.1-1.27,0.93-2.025,2.336-2.13
	c0.96-0.071,2.304-0.113,3.884-0.121c1.325-0.003,2.518,0.033,3.775,0.121c0.557-0.021,1.153,0.19,1.617,0.6
	c0.466,0.413,0.751,0.979,0.803,1.597c0.07,0.877,0.07,1.767,0.07,2.998v0.522c0,0.332-0.269,0.6-0.6,0.6s-0.6-0.269-0.6-0.6V8.46
	c0-1.203,0-2.072-0.066-2.899c-0.026-0.306-0.169-0.59-0.401-0.796c-0.232-0.205-0.531-0.307-0.844-0.301
	c-1.291-0.088-2.47-0.127-3.749-0.119C7.759,4.353,6.445,4.394,5.512,4.462C4.494,4.539,4.32,5.022,4.283,5.485
	C4.22,6.379,4.188,7.384,4.188,8.467c0,1.169,0,2.092,0.093,2.917c0.005,0.193,0.032,0.321,0.083,0.441
	c0.051,0.121,0.127,0.232,0.219,0.322c0.094,0.093,0.204,0.164,0.325,0.213c0.124,0.05,0.245,0.081,0.383,0.073
	c0.125-0.008,0.358,0.06,0.472,0.174c0.114,0.112,0.223,0.266,0.223,0.426v2.219c0.775-0.248,1.766-0.944,2.642-2.166
	c0.193-0.27,0.567-0.331,0.837-0.138c0.27,0.193,0.331,0.567,0.138,0.837C8.396,15.469,6.74,16.557,5.386,16.557z"/>
<path fill="#3D505F" d="M14.084,16.855c-0.331,0-0.6-0.269-0.6-0.6v-4.655c0-0.331,0.269-0.6,0.6-0.6s0.6,0.269,0.6,0.6v4.655
	C14.684,16.587,14.415,16.855,14.084,16.855z"/>
<path fill="#3D505F" d="M16.412,14.527h-4.655c-0.331,0-0.6-0.269-0.6-0.6s0.269-0.6,0.6-0.6h4.655c0.331,0,0.6,0.269,0.6,0.6
	S16.743,14.527,16.412,14.527z"/>
<path fill="#3D505F" d="M10.949,7.795H7.61c-0.332,0-0.6-0.269-0.6-0.6s0.269-0.6,0.6-0.6h3.339c0.331,0,0.6,0.269,0.6,0.6
	S11.28,7.795,10.949,7.795z"/>
<path fill="#3D505F" d="M10.598,10.387H7.61c-0.332,0-0.6-0.269-0.6-0.6s0.269-0.6,0.6-0.6h2.987c0.331,0,0.6,0.269,0.6,0.6
	S10.929,10.387,10.598,10.387z"/>
</svg>
