<svg width="16" height="16" viewBox="0 0 16 16" fill="none" xmlns="http://www.w3.org/2000/svg">
<path d="M3.76012 13.1401C3.52132 13.1388 3.29216 13.0457 3.12012 12.8801C2.95219 12.7115 2.85791 12.4831 2.85791 12.2451C2.85791 12.0071 2.95219 11.7788 3.12012 11.6101L11.6101 3.12012C11.6913 3.02742 11.7906 2.95237 11.902 2.89963C12.0133 2.84688 12.1343 2.81756 12.2574 2.81348C12.3806 2.8094 12.5033 2.83065 12.6178 2.87591C12.7324 2.92116 12.8365 2.98947 12.9236 3.07659C13.0108 3.16371 13.0791 3.2678 13.1243 3.38239C13.1696 3.49699 13.1908 3.61965 13.1868 3.7428C13.1827 3.86594 13.1534 3.98693 13.1006 4.09828C13.0479 4.20962 12.9728 4.30896 12.8801 4.39012L4.39012 12.8801C4.30734 12.9627 4.20909 13.0282 4.10099 13.0728C3.9929 13.1174 3.87706 13.1403 3.76012 13.1401Z" fill="#0FA869"/>
<path d="M12.2398 13.1398C12.1229 13.14 12.0071 13.1171 11.899 13.0725C11.7909 13.0279 11.6926 12.9624 11.6098 12.8798L3.11984 4.38984C2.9694 4.21802 2.8899 3.99542 2.89747 3.76717C2.90503 3.53891 2.99909 3.32207 3.16058 3.16058C3.32207 2.99909 3.53891 2.90503 3.76717 2.89747C3.99542 2.8899 4.21802 2.9694 4.38984 3.11984L12.8798 11.6098C13.0478 11.7785 13.1421 12.0068 13.1421 12.2448C13.1421 12.4829 13.0478 12.7112 12.8798 12.8798C12.7078 13.0455 12.4786 13.1386 12.2398 13.1398Z" fill="#0FA869"/>
</svg>
