<svg width="20" height="20" viewBox="0 0 20 20" fill="none" xmlns="http://www.w3.org/2000/svg">
<path d="M14 3.09998H6.00001C5.76131 3.09998 5.53239 3.1948 5.36361 3.36358C5.19483 3.53236 5.10001 3.76128 5.10001 3.99998V16C5.10001 16.1671 5.14655 16.331 5.23442 16.4731C5.32229 16.6153 5.44802 16.7302 5.59751 16.805C5.74701 16.8797 5.91437 16.9113 6.08083 16.8963C6.2473 16.8813 6.40629 16.8203 6.54001 16.72L10 14.12L13.46 16.72C13.5935 16.8195 13.7517 16.8806 13.9174 16.8964C14.0832 16.9123 14.2501 16.8824 14.4 16.81C14.55 16.7343 14.6761 16.6185 14.7644 16.4756C14.8526 16.3326 14.8996 16.168 14.9 16V3.99998C14.9 3.76128 14.8052 3.53236 14.6364 3.36358C14.4676 3.1948 14.2387 3.09998 14 3.09998Z" fill="#637887"/>
</svg>
