<?xml version="1.0" encoding="utf-8"?>
<!-- Generator: Adobe Illustrator 16.0.0, SVG Export Plug-In . SVG Version: 6.00 Build 0)  -->
<!DOCTYPE svg PUBLIC "-//W3C//DTD SVG 1.1//EN" "http://www.w3.org/Graphics/SVG/1.1/DTD/svg11.dtd">
<svg version="1.1" id="Layer_1" xmlns="http://www.w3.org/2000/svg" xmlns:xlink="http://www.w3.org/1999/xlink" x="0px" y="0px"
	 width="26px" height="26px" viewBox="0 0 26 26" enable-background="new 0 0 26 26" xml:space="preserve">
<path fill="#506472" d="M13,13.69c-0.497,0-0.9-0.403-0.9-0.9V9.01c0-0.497,0.403-0.9,0.9-0.9s0.9,0.403,0.9,0.9v3.78
	C13.9,13.287,13.497,13.69,13,13.69z"/>
<path fill="#506472" d="M13,17.891c0.69,0,1.25-0.561,1.25-1.25c0-0.691-0.56-1.25-1.25-1.25s-1.25,0.559-1.25,1.25
	C11.75,17.33,12.31,17.891,13,17.891z"/>
<path fill="#506472" d="M13,21.69c-4.792,0-8.69-3.898-8.69-8.69c0-4.792,3.898-8.69,8.69-8.69c4.792,0,8.69,3.898,8.69,8.69
	C21.69,17.792,17.792,21.69,13,21.69z M13,6.11c-3.799,0-6.89,3.091-6.89,6.89c0,3.799,3.091,6.89,6.89,6.89
	c3.799,0,6.89-3.091,6.89-6.89C19.89,9.201,16.799,6.11,13,6.11z"/>
</svg>
