<?xml version="1.0" encoding="utf-8"?>
<!-- Generator: Adobe Illustrator 16.0.0, SVG Export Plug-In . SVG Version: 6.00 Build 0)  -->
<!DOCTYPE svg PUBLIC "-//W3C//DTD SVG 1.1//EN" "http://www.w3.org/Graphics/SVG/1.1/DTD/svg11.dtd">
<svg version="1.1" id="Layer_1" xmlns="http://www.w3.org/2000/svg" xmlns:xlink="http://www.w3.org/1999/xlink" x="0px" y="0px"
	 width="26px" height="26px" viewBox="0 0 26 26" enable-background="new 0 0 26 26" xml:space="preserve">
<path fill="#506472" d="M10.295,22.139c-0.949,0-1.85-0.361-2.537-1.017c-0.693-0.698-1.066-1.602-1.066-2.562
	s0.373-1.863,1.049-2.544l5.243-5.243c0.352-0.352,0.921-0.352,1.273,0c0.352,0.351,0.352,0.921,0,1.272l-5.241,5.241
	c-0.337,0.339-0.524,0.792-0.524,1.273c0,0.475,0.192,0.939,0.526,1.276c0.666,0.635,1.87,0.652,2.57-0.018
	c1.702-1.547,4.961-4.732,6.442-6.438c0.856-0.899,1.312-2.037,1.312-3.236s-0.455-2.336-1.283-3.204
	c-0.837-0.792-1.975-1.246-3.174-1.246c-1.198,0-2.336,0.454-3.206,1.278c-1.862,1.683-3.64,3.464-5.3,5.309
	c-0.333,0.369-0.902,0.399-1.271,0.067c-0.37-0.333-0.399-0.901-0.067-1.271c1.701-1.891,3.523-3.716,5.416-5.426
	c1.189-1.127,2.768-1.756,4.428-1.756c1.662,0,3.24,0.629,4.444,1.771c1.181,1.235,1.813,2.814,1.813,4.478
	c0,1.663-0.633,3.243-1.781,4.447c-1.555,1.794-4.863,5.016-6.546,6.545C12.145,21.777,11.244,22.139,10.295,22.139z"/>
</svg>
