<?xml version="1.0" encoding="utf-8"?>
<!-- Generator: Adobe Illustrator 16.0.0, SVG Export Plug-In . SVG Version: 6.00 Build 0)  -->
<!DOCTYPE svg PUBLIC "-//W3C//DTD SVG 1.1//EN" "http://www.w3.org/Graphics/SVG/1.1/DTD/svg11.dtd">
<svg version="1.1" id="Layer_1" xmlns="http://www.w3.org/2000/svg" xmlns:xlink="http://www.w3.org/1999/xlink" x="0px" y="0px"
	 width="26px" height="26px" viewBox="0 0 26 26" enable-background="new 0 0 26 26" xml:space="preserve">
<path fill="#506472" d="M13,22c-4.963,0-9-4.038-9-9c0-4.963,4.037-9,9-9c4.962,0,9,4.037,9,9C22,17.962,17.962,22,13,22z M13,5.8
	c-3.97,0-7.2,3.23-7.2,7.2c0,3.97,3.23,7.199,7.2,7.199c3.97,0,7.199-3.229,7.199-7.199C20.199,9.03,16.97,5.8,13,5.8z"/>
<path fill="#506472" d="M13,4.9v16.2l5.71-1.539l2.39-7.281L19.07,7.21L13,4.9z"/>
</svg>
