<svg width="16" height="16" viewBox="0 0 16 16" fill="none" xmlns="http://www.w3.org/2000/svg">
<path d="M3.76 13.14C3.5212 13.1387 3.29204 13.0456 3.12 12.88C2.95207 12.7113 2.85779 12.483 2.85779 12.245C2.85779 12.007 2.95207 11.7787 3.12 11.61L11.61 3.12C11.6912 3.0273 11.7905 2.95225 11.9018 2.89951C12.0132 2.84676 12.1342 2.81744 12.2573 2.81336C12.3805 2.80928 12.5031 2.83053 12.6177 2.87578C12.7323 2.92104 12.8364 2.98935 12.9235 3.07647C13.0106 3.16359 13.079 3.26767 13.1242 3.38227C13.1695 3.49686 13.1907 3.61953 13.1866 3.74267C13.1826 3.86581 13.1532 3.98681 13.1005 4.09815C13.0477 4.2095 12.9727 4.30883 12.88 4.39L4.39 12.88C4.30722 12.9626 4.20897 13.0281 4.10087 13.0727C3.99277 13.1173 3.87694 13.1402 3.76 13.14Z" fill="#506472"/>
<path d="M12.24 13.14C12.1231 13.1401 12.0072 13.1173 11.8991 13.0727C11.791 13.028 11.6928 12.9626 11.61 12.88L3.11999 4.38996C2.96955 4.21814 2.89006 3.99554 2.89762 3.76729C2.90518 3.53903 2.99924 3.32219 3.16073 3.1607C3.32222 2.99921 3.53906 2.90515 3.76732 2.89759C3.99557 2.89003 4.21817 2.96952 4.38999 3.11996L12.88 11.61C13.0479 11.7786 13.1422 12.007 13.1422 12.245C13.1422 12.483 13.0479 12.7113 12.88 12.88C12.708 13.0456 12.4788 13.1387 12.24 13.14Z" fill="#506472"/>
</svg>
