<?xml version="1.0" encoding="utf-8"?>
<!-- Generator: Adobe Illustrator 16.0.0, SVG Export Plug-In . SVG Version: 6.00 Build 0)  -->
<!DOCTYPE svg PUBLIC "-//W3C//DTD SVG 1.1//EN" "http://www.w3.org/Graphics/SVG/1.1/DTD/svg11.dtd">
<svg version="1.1" id="Layer_1" xmlns="http://www.w3.org/2000/svg" xmlns:xlink="http://www.w3.org/1999/xlink" x="0px" y="0px"
	 width="26px" height="26px" viewBox="0 0 26 26" enable-background="new 0 0 26 26" xml:space="preserve">
<path fill="#506472" d="M7.79,21.7c-1.93,0-3.5-1.57-3.5-3.5c0-1.931,1.57-3.501,3.5-3.501s3.5,1.57,3.5,3.501
	C11.29,20.13,9.72,21.7,7.79,21.7z M7.79,16.5c-0.938,0-1.7,0.763-1.7,1.7s0.763,1.699,1.7,1.699s1.7-0.762,1.7-1.699
	S8.728,16.5,7.79,16.5z"/>
<path fill="#506472" d="M7.79,11.3c-1.93,0-3.5-1.57-3.5-3.5c0-1.93,1.57-3.5,3.5-3.5s3.5,1.57,3.5,3.5
	C11.29,9.73,9.72,11.3,7.79,11.3z M7.79,6.1c-0.938,0-1.7,0.763-1.7,1.7c0,0.938,0.763,1.7,1.7,1.7s1.7-0.763,1.7-1.7
	C9.49,6.863,8.728,6.1,7.79,6.1z"/>
<path fill="#506472" d="M21.311,8.7h-10.4c-0.497,0-0.9-0.403-0.9-0.9s0.403-0.9,0.9-0.9h10.4c0.497,0,0.9,0.403,0.9,0.9
	S21.808,8.7,21.311,8.7z"/>
<path fill="#506472" d="M10.91,19.101c-0.497,0-0.9-0.403-0.9-0.9s0.403-0.9,0.9-0.9c1.419,0,2.756-0.551,3.765-1.552
	c1.007-1.001,1.566-2.334,1.575-3.754V7.8c0-0.497,0.403-0.9,0.9-0.9s0.9,0.403,0.9,0.9V12c-0.013,1.904-0.761,3.687-2.107,5.025
	C14.595,18.363,12.807,19.101,10.91,19.101z"/>
</svg>
