<svg width="26" height="26" viewBox="0 0 26 26" fill="none" xmlns="http://www.w3.org/2000/svg">
<path fill-rule="evenodd" clip-rule="evenodd" d="M7.77734 21.4818L11.8906 18.7396C12.2265 18.5157 12.6132 18.4037 13 18.4037C13.3867 18.4037 13.7735 18.5157 14.1094 18.7396L18.2226 21.4818C18.5549 21.7033 18.9913 21.4899 19 21.0657C19.1157 15.3973 19.1098 9.21928 19 7C18.9454 5.89678 18.1046 5 17 5H13H8.99999C7.89542 5 7.05459 5.89678 6.99999 7C6.89014 9.21928 6.88432 15.3973 6.99999 21.0657C7.00864 21.4899 7.44506 21.7033 7.77734 21.4818Z" fill="#506472"/>
<path d="M11.8906 18.7396L12.3898 19.4884H12.3898L11.8906 18.7396ZM7.77734 21.4818L8.27657 22.2306H8.27657L7.77734 21.4818ZM14.1094 18.7396L13.6102 19.4884H13.6102L14.1094 18.7396ZM18.2226 21.4818L17.7234 22.2306H17.7234L18.2226 21.4818ZM19 21.0657L18.1002 21.0474L19 21.0657ZM19 7L18.1011 7.04449V7.04449L19 7ZM6.99999 7L6.10109 6.95551V6.95551L6.99999 7ZM6.99999 21.0657L7.8998 21.0474H7.8998L6.99999 21.0657ZM11.3914 17.9908L7.27811 20.7329L8.27657 22.2306L12.3898 19.4884L11.3914 17.9908ZM13 17.5037C12.4395 17.5037 11.8784 17.6661 11.3914 17.9908L12.3898 19.4884C12.5746 19.3652 12.787 19.3037 13 19.3037V17.5037ZM13 19.3037C13.213 19.3037 13.4254 19.3652 13.6102 19.4884L14.6086 17.9908C14.1216 17.6661 13.5605 17.5037 13 17.5037V19.3037ZM13.6102 19.4884L17.7234 22.2306L18.7219 20.7329L14.6086 17.9908L13.6102 19.4884ZM17.7234 22.2306C18.641 22.8424 19.8765 22.2257 19.8998 21.0841L18.1002 21.0474C18.1026 20.9309 18.1768 20.7903 18.3184 20.7169C18.4534 20.6469 18.6114 20.6593 18.7219 20.7329L17.7234 22.2306ZM19.8998 21.0841C20.0155 15.4153 20.0104 9.20932 19.8989 6.95551L18.1011 7.04449C18.2092 9.22924 18.2158 15.3793 18.1002 21.0474L19.8998 21.0841ZM19.8989 6.95551C19.8234 5.43119 18.6404 4.1 17 4.1V5.9C17.5687 5.9 18.0673 6.36238 18.1011 7.04449L19.8989 6.95551ZM17 4.1H13V5.9H17V4.1ZM8.99999 5.9H13V4.1H8.99999V5.9ZM7.89889 7.04449C7.93265 6.36238 8.43125 5.9 8.99999 5.9V4.1C7.35958 4.1 6.17654 5.43119 6.10109 6.95551L7.89889 7.04449ZM7.8998 21.0474C7.78414 15.3793 7.79075 9.22924 7.89889 7.04449L6.10109 6.95551C5.98953 9.20932 5.9845 15.4153 6.10017 21.0841L7.8998 21.0474ZM7.27811 20.7329C7.38854 20.6593 7.54658 20.6469 7.68161 20.7169C7.82319 20.7903 7.89742 20.9309 7.8998 21.0474L6.10017 21.0841C6.12347 22.2257 7.35895 22.8424 8.27657 22.2306L7.27811 20.7329Z" fill="#506472"/>
</svg>
