<?xml version="1.0" encoding="utf-8"?>
<!-- Generator: Adobe Illustrator 16.0.0, SVG Export Plug-In . SVG Version: 6.00 Build 0)  -->
<!DOCTYPE svg PUBLIC "-//W3C//DTD SVG 1.1//EN" "http://www.w3.org/Graphics/SVG/1.1/DTD/svg11.dtd">
<svg version="1.1" id="Layer_1" xmlns="http://www.w3.org/2000/svg" xmlns:xlink="http://www.w3.org/1999/xlink" x="0px" y="0px"
	 width="26px" height="26px" viewBox="0 0 26 26" enable-background="new 0 0 26 26" xml:space="preserve">
<path fill="#506472" d="M19.24,23.23c-0.497,0-0.9-0.403-0.9-0.9v-6.24c0-0.497,0.403-0.9,0.9-0.9s0.9,0.403,0.9,0.9v6.24
	C20.141,22.827,19.737,23.23,19.24,23.23z"/>
<path fill="#506472" d="M22.359,20.11H16.12c-0.497,0-0.9-0.403-0.9-0.9s0.403-0.9,0.9-0.9h6.239c0.497,0,0.9,0.403,0.9,0.9
	S22.856,20.11,22.359,20.11z"/>
<path fill="#506472" d="M21.93,13.9c-0.497,0-0.9-0.403-0.9-0.9c0-1.797-0.061-3.392-0.163-4.265
	c-0.091-0.778-0.771-1.509-1.822-1.957c-1.399-0.597-3.743-0.757-5.74,0.758c-0.394,0.301-0.96,0.225-1.261-0.173
	c-0.301-0.396-0.223-0.96,0.173-1.261c2.147-1.631,5.104-2.016,7.534-0.98c1.652,0.705,2.738,1.977,2.903,3.403
	C22.766,9.478,22.83,11.109,22.83,13C22.83,13.497,22.427,13.9,21.93,13.9z"/>
<path fill="#506472" d="M12.71,21.76c0,0-0.001,0-0.001,0c-0.802-0.002-1.59-0.224-2.276-0.642
	c-0.749-0.441-1.615-0.705-2.493-0.757c-0.877-0.056-1.771,0.107-2.577,0.463c-0.264,0.116-0.559,0.166-0.854,0.15
	c-0.291-0.02-0.577-0.11-0.827-0.262c-0.254-0.157-0.464-0.37-0.614-0.619c-0.151-0.254-0.239-0.542-0.255-0.834
	C2.66,15.862,2.629,10.545,2.813,8.5c0.11-1.398,1.101-2.626,2.719-3.359c1.87-0.846,5.012-1.115,7.717,0.909
	c0.398,0.298,0.479,0.862,0.181,1.26c-0.297,0.398-0.861,0.479-1.26,0.181c-1.942-1.455-4.36-1.404-5.896-0.71
	c-0.987,0.447-1.61,1.146-1.667,1.87c-0.179,1.987-0.146,7.188,0.001,10.52c1.094-0.462,2.271-0.679,3.437-0.605
	c1.161,0.068,2.306,0.418,3.312,1.01c0.417,0.254,0.881,0.385,1.354,0.385c0.497,0.001,0.899,0.404,0.899,0.901
	C13.609,21.357,13.207,21.76,12.71,21.76z"/>
<path fill="#506472" d="M12.71,16.301c-0.497,0-0.9-0.403-0.9-0.9V6.77c0-0.497,0.403-0.9,0.9-0.9s0.9,0.403,0.9,0.9v8.63
	C13.61,15.897,13.207,16.301,12.71,16.301z"/>
</svg>
