<svg width="26" height="26" viewBox="0 0 26 26" fill="none" xmlns="http://www.w3.org/2000/svg">
<path d="M6.17999 10.89C5.9413 10.89 5.71238 10.7952 5.54359 10.6264C5.37481 10.4576 5.27999 10.2287 5.27999 9.98999V7.54999C5.27867 7.25152 5.33648 6.95574 5.45009 6.67974C5.5637 6.40373 5.73085 6.15296 5.94191 5.94191C6.15296 5.73085 6.40373 5.5637 6.67974 5.45009C6.95574 5.33648 7.25152 5.27867 7.54999 5.27999H9.99999C10.2387 5.27999 10.4676 5.37481 10.6364 5.54359C10.8052 5.71238 10.9 5.9413 10.9 6.17999C10.9 6.41868 10.8052 6.6476 10.6364 6.81639C10.4676 6.98517 10.2387 7.07999 9.99999 7.07999H7.54999C7.42534 7.07999 7.30579 7.12951 7.21765 7.21765C7.12951 7.30579 7.07999 7.42534 7.07999 7.54999V9.99999C7.07736 10.2369 6.98138 10.4633 6.81288 10.6299C6.64438 10.7966 6.41696 10.89 6.17999 10.89Z" fill="#506472"/>
<path d="M18.45 20.72H16C15.7613 20.72 15.5324 20.6252 15.3636 20.4564C15.1948 20.2876 15.1 20.0587 15.1 19.82C15.1 19.5813 15.1948 19.3524 15.3636 19.1836C15.5324 19.0148 15.7613 18.92 16 18.92H18.41C18.5347 18.92 18.6542 18.8705 18.7423 18.7823C18.8305 18.6942 18.88 18.5747 18.88 18.45V16C18.88 15.7613 18.9748 15.5324 19.1436 15.3636C19.3124 15.1948 19.5413 15.1 19.78 15.1C20.0187 15.1 20.2476 15.1948 20.4164 15.3636C20.5852 15.5324 20.68 15.7613 20.68 16V18.46C20.6801 19.0542 20.4461 19.6246 20.0287 20.0476C19.6113 20.4705 19.0442 20.7121 18.45 20.72Z" fill="#506472"/>
<path d="M19.82 10.89C19.5813 10.89 19.3524 10.7952 19.1836 10.6264C19.0148 10.4576 18.92 10.2287 18.92 9.98999V7.54999C18.92 7.42534 18.8705 7.30579 18.7823 7.21765C18.6942 7.12951 18.5747 7.07999 18.45 7.07999H16C15.7613 7.07999 15.5324 6.98517 15.3636 6.81639C15.1948 6.6476 15.1 6.41868 15.1 6.17999C15.1 5.9413 15.1948 5.71238 15.3636 5.54359C15.5324 5.37481 15.7613 5.27999 16 5.27999H18.45C18.7485 5.27867 19.0443 5.33648 19.3203 5.45009C19.5963 5.5637 19.847 5.73085 20.0581 5.94191C20.2691 6.15296 20.4363 6.40373 20.5499 6.67974C20.6635 6.95574 20.7213 7.25152 20.72 7.54999V9.99999C20.7174 10.2369 20.6214 10.4633 20.4529 10.6299C20.2844 10.7966 20.057 10.89 19.82 10.89Z" fill="#506472"/>
<path d="M15.53 11.37C15.353 11.3695 15.1801 11.3167 15.0329 11.2184C14.8857 11.1201 14.7707 10.9806 14.7024 10.8173C14.6341 10.654 14.6155 10.4742 14.6489 10.3004C14.6822 10.1265 14.7661 9.9664 14.89 9.83999L18.61 6.10999C18.6903 6.01101 18.7905 5.92999 18.9041 5.8722C19.0177 5.81441 19.1422 5.78113 19.2695 5.77451C19.3968 5.7679 19.524 5.78809 19.643 5.8338C19.762 5.8795 19.87 5.94969 19.9602 6.03982C20.0503 6.12995 20.1205 6.238 20.1662 6.35699C20.2119 6.47597 20.2321 6.60323 20.2255 6.73052C20.2189 6.85781 20.1856 6.98229 20.1278 7.09589C20.07 7.2095 19.989 7.30969 19.89 7.38999L16.16 11.11C16.0786 11.1945 15.9806 11.2612 15.8722 11.3059C15.7638 11.3506 15.6473 11.3725 15.53 11.37Z" fill="#506472"/>
<path d="M9.48999 20.72H9.40999C8.40999 20.72 7.55999 20.72 6.97999 20.72C6.5395 20.6947 6.12508 20.5029 5.8206 20.1836C5.51613 19.8643 5.34433 19.4412 5.33999 19C5.27999 18.24 5.26999 17.12 5.27999 16.51C5.28999 15.9 5.27999 14.8 5.33999 14.03C5.37838 13.6103 5.56783 13.2187 5.87314 12.9281C6.17845 12.6375 6.57886 12.4676 6.99999 12.45C7.58999 12.45 8.46999 12.39 9.46999 12.39C10.47 12.39 11.35 12.39 11.94 12.45C12.3639 12.4734 12.7647 12.6511 13.0667 12.9495C13.3688 13.2479 13.5514 13.6464 13.58 14.07C13.64 14.84 13.64 15.96 13.64 16.56C13.64 17.16 13.64 18.28 13.58 19.04C13.5516 19.4647 13.3694 19.8644 13.0675 20.1644C12.7657 20.4645 12.3648 20.6442 11.94 20.67C11.34 20.7 10.45 20.72 9.48999 20.72ZM7.19999 18.91C7.71999 18.91 8.57999 18.91 9.44999 18.91C10.38 18.91 11.22 18.91 11.77 18.86C11.77 18.38 11.77 17.54 11.77 16.55C11.77 15.56 11.77 14.72 11.72 14.2H9.43999C8.49999 14.2 7.62999 14.2 7.06999 14.25C7.06999 14.74 7.06999 15.57 7.06999 16.56C7.06999 17.55 7.06999 18.4 7.06999 18.92L7.19999 18.91Z" fill="#506472"/>
</svg>
