<svg width="26" height="26" viewBox="0 0 26 26" fill="none" xmlns="http://www.w3.org/2000/svg">
<path d="M6.31999 22.32C6.07386 22.3186 5.83045 22.2684 5.60386 22.1723C5.37728 22.0762 5.17202 21.936 4.99999 21.76C4.74291 21.5035 4.56054 21.1817 4.47245 20.8294C4.38436 20.477 4.39388 20.1074 4.49999 19.76L6.49999 13.02L4.49999 6.28C4.39388 5.93265 4.38436 5.56297 4.47245 5.21062C4.56054 4.85826 4.74291 4.53655 4.99999 4.28C5.2322 4.03734 5.5267 3.86327 5.85125 3.77684C6.17579 3.69041 6.51786 3.69497 6.83999 3.79C12.4032 6.10547 17.8111 8.77769 23.03 11.79C23.2474 11.9207 23.4274 12.1054 23.5523 12.3262C23.6772 12.547 23.7428 12.7963 23.7428 13.05C23.7428 13.3037 23.6772 13.553 23.5523 13.7738C23.4274 13.9946 23.2474 14.1793 23.03 14.31C17.8111 17.3223 12.4032 19.9945 6.83999 22.31C6.66799 22.3377 6.49294 22.341 6.31999 22.32ZM6.31999 5.48C6.20999 5.56 6.16999 5.65 6.19999 5.74L8.29999 12.74C8.35 12.9097 8.35 13.0903 8.29999 13.26L6.19999 20.26C6.1881 20.3002 6.18741 20.3428 6.19798 20.3834C6.20855 20.4239 6.23 20.4608 6.25999 20.49C11.5365 18.3208 16.6701 15.8191 21.63 13C16.6819 10.2019 11.5768 7.69108 6.33999 5.48H6.31999Z" fill="#506472"/>
<path d="M11.92 13.9H7.46C7.2213 13.9 6.99238 13.8052 6.8236 13.6364C6.65482 13.4676 6.56 13.2387 6.56 13C6.56 12.7613 6.65482 12.5324 6.8236 12.3636C6.99238 12.1948 7.2213 12.1 7.46 12.1H11.92C12.1587 12.1 12.3876 12.1948 12.5564 12.3636C12.7252 12.5324 12.82 12.7613 12.82 13C12.82 13.2387 12.7252 13.4676 12.5564 13.6364C12.3876 13.8052 12.1587 13.9 11.92 13.9Z" fill="#506472"/>
</svg>
