<?xml version="1.0" encoding="utf-8"?>
<!-- Generator: Adobe Illustrator 16.0.0, SVG Export Plug-In . SVG Version: 6.00 Build 0)  -->
<!DOCTYPE svg PUBLIC "-//W3C//DTD SVG 1.1//EN" "http://www.w3.org/Graphics/SVG/1.1/DTD/svg11.dtd">
<svg version="1.1" id="Layer_1" xmlns="http://www.w3.org/2000/svg" xmlns:xlink="http://www.w3.org/1999/xlink" x="0px" y="0px"
	 width="26px" height="26px" viewBox="0 0 26 26" enable-background="new 0 0 26 26" xml:space="preserve">
<path fill="#506472" d="M16.83,18.291c-0.25,0-0.499-0.104-0.677-0.308c-1.503-1.716-3.16-3.312-4.933-4.75
	c-0.704,0.582-1.32,1.254-1.839,2.008C9.1,15.649,8.54,15.755,8.13,15.472c-0.41-0.282-0.513-0.842-0.231-1.252
	c0.764-1.11,1.708-2.072,2.806-2.861c0.325-0.233,0.764-0.225,1.08,0.022c2.068,1.619,3.994,3.442,5.722,5.417
	c0.328,0.374,0.29,0.942-0.084,1.27C17.252,18.217,17.041,18.291,16.83,18.291z"/>
<path fill="#506472" d="M16.48,11.01c0.822,0,1.49-0.667,1.49-1.49s-0.668-1.49-1.49-1.49c-0.823,0-1.49,0.667-1.49,1.49
	S15.657,11.01,16.48,11.01z"/>
<path fill="#506472" d="M13,22.09c-2.313,0-4.498,0-6.075-0.133c-0.709-0.02-1.422-0.327-1.958-0.863
	c-0.536-0.535-0.844-1.248-0.866-2.007c0-0.694-0.019-1.488-0.04-2.354c-0.027-1.158-0.057-2.444-0.051-3.736l0.002-0.724
	c0.007-2.046,0.014-3.979,0.152-5.361C4.182,6.216,4.49,5.502,5.026,4.966C5.562,4.43,6.275,4.122,7.034,4.101
	c0.687,0,1.5-0.015,2.396-0.03c3.107-0.054,7.193-0.114,9.646,0.093c0.709,0.019,1.422,0.327,1.959,0.863
	c0.535,0.535,0.843,1.248,0.865,2.007c0.105,1.414,0.161,3.626,0.151,6.031l-0.003,0.723c-0.007,2.047-0.014,3.979-0.152,5.363
	c-0.019,0.696-0.326,1.409-0.862,1.944s-1.248,0.843-2.007,0.865C17.63,22.043,15.48,22.09,13,22.09z M13,5.83
	c-1.217,0-2.44,0.021-3.539,0.04C8.554,5.886,7.729,5.9,7.06,5.9C6.789,5.908,6.509,6.028,6.299,6.239
	c-0.21,0.21-0.331,0.49-0.34,0.787c-0.133,1.36-0.14,3.25-0.146,5.252L5.81,13.004c-0.006,1.275,0.024,2.544,0.051,3.687
	c0.021,0.882,0.039,1.69,0.039,2.37c0.008,0.271,0.128,0.55,0.338,0.759c0.211,0.212,0.491,0.333,0.789,0.342
	c1.551,0.128,3.799,0.128,5.973,0.128c2.446,0,4.558-0.045,5.947-0.127c0.323-0.01,0.604-0.131,0.813-0.342
	c0.211-0.209,0.331-0.488,0.34-0.786c0.134-1.36,0.141-3.251,0.147-5.253l0.002-0.725c0.011-2.359-0.043-4.521-0.147-5.93
	c-0.011-0.338-0.132-0.618-0.341-0.827c-0.211-0.21-0.49-0.331-0.788-0.34C17.422,5.83,15.174,5.83,13,5.83z"/>
</svg>
