<?xml version="1.0" encoding="utf-8"?>
<!-- Generator: Adobe Illustrator 16.0.0, SVG Export Plug-In . SVG Version: 6.00 Build 0)  -->
<!DOCTYPE svg PUBLIC "-//W3C//DTD SVG 1.1//EN" "http://www.w3.org/Graphics/SVG/1.1/DTD/svg11.dtd">
<svg version="1.1" id="Layer_1" xmlns="http://www.w3.org/2000/svg" xmlns:xlink="http://www.w3.org/1999/xlink" x="0px" y="0px"
	 width="20px" height="20px" viewBox="0 0 20 20" enable-background="new 0 0 20 20" xml:space="preserve">
<path fill="#637887" d="M10.03,17.448c-1.166,0-2.342-0.026-2.871-0.08c-1.435-0.16-2.509-1.284-2.509-2.616
	c-0.084-1.169-0.2-3.009-0.2-4.752c0-0.497,0.403-0.9,0.9-0.9s0.9,0.403,0.9,0.9c0,1.687,0.113,3.483,0.198,4.688
	C6.45,15.2,6.917,15.53,7.35,15.578c0.933,0.096,4.454,0.096,5.299,0c0.434-0.048,0.9-0.378,0.9-0.826
	c0.088-1.271,0.2-3.072,0.2-4.752c0-0.497,0.403-0.9,0.9-0.9s0.9,0.403,0.9,0.9c0,1.736-0.116,3.58-0.203,4.815
	c0.003,1.269-1.072,2.393-2.498,2.552C12.369,17.421,11.204,17.448,10.03,17.448z"/>
<path fill="#637887" d="M15.75,7.55H4.25c-0.497,0-0.9-0.403-0.9-0.9s0.403-0.9,0.9-0.9h11.5c0.497,0,0.9,0.403,0.9,0.9
	S16.247,7.55,15.75,7.55z"/>
<path fill="#637887" d="M13.55,7.55c-0.725,0-1.967-0.359-2.352-2.7H8.802c-0.383,2.34-1.626,2.7-2.352,2.7
	c-0.497,0-0.9-0.403-0.9-0.9s0.403-0.9,0.9-0.9c0.253,0,0.494-0.55,0.602-1.373C7.093,3.639,7.749,3.05,8.55,3.05h2.9
	c0.668,0,1.226,0.428,1.454,1.117c0.019,0.056,0.031,0.113,0.038,0.171c0.106,0.845,0.351,1.412,0.607,1.412
	c0.497,0,0.9,0.403,0.9,0.9S14.047,7.55,13.55,7.55z"/>
</svg>
