<?xml version="1.0" encoding="utf-8"?>
<!-- Generator: Adobe Illustrator 16.0.0, SVG Export Plug-In . SVG Version: 6.00 Build 0)  -->
<!DOCTYPE svg PUBLIC "-//W3C//DTD SVG 1.1//EN" "http://www.w3.org/Graphics/SVG/1.1/DTD/svg11.dtd">
<svg version="1.1" id="Layer_1" xmlns="http://www.w3.org/2000/svg" xmlns:xlink="http://www.w3.org/1999/xlink" x="0px" y="0px"
	 width="26px" height="26px" viewBox="0 0 26 26" enable-background="new 0 0 26 26" xml:space="preserve">
<path fill="#506472" d="M15.23,16.601h-4.46c-0.497,0-0.9-0.403-0.9-0.9s0.403-0.9,0.9-0.9h4.46c0.497,0,0.9,0.403,0.9,0.9
	S15.728,16.601,15.23,16.601z"/>
<path fill="#506472" d="M17.46,21.051H8.54c-1.132,0-2.196-0.441-2.998-1.242C4.741,19.007,4.3,17.942,4.3,16.811V11.61
	c0.004-0.438,0.139-0.848,0.389-1.196l2.131-2.835C7.211,7.056,7.728,6.624,8.313,6.33c0.585-0.293,1.24-0.449,1.895-0.45h5.582
	c0.657,0.001,1.313,0.157,1.897,0.451s1.102,0.727,1.493,1.251l2.119,2.817c0.26,0.362,0.395,0.771,0.4,1.2v5.211
	c0,1.132-0.441,2.196-1.241,2.997C19.656,20.609,18.592,21.051,17.46,21.051z M10.21,7.68c-0.375,0.001-0.752,0.09-1.09,0.26
	C8.784,8.108,8.487,8.357,8.261,8.659l-2.122,2.822c-0.021,0.03-0.039,0.083-0.039,0.138v5.191c0,0.651,0.254,1.264,0.715,1.726
	c0.454,0.453,1.083,0.714,1.725,0.714h8.92c0.651,0,1.265-0.254,1.727-0.715c0.453-0.454,0.713-1.083,0.713-1.725V11.61
	c0-0.046-0.018-0.1-0.05-0.144L17.74,8.661c-0.227-0.304-0.524-0.553-0.861-0.722c-0.336-0.169-0.713-0.258-1.091-0.259H10.21z"/>
<path fill="#506472" d="M19.689,12.14H6.31c-0.497,0-0.9-0.403-0.9-0.9s0.403-0.9,0.9-0.9h13.379c0.497,0,0.9,0.403,0.9,0.9
	S20.187,12.14,19.689,12.14z"/>
</svg>
