<?xml version="1.0" encoding="utf-8"?>
<!-- Generator: Adobe Illustrator 16.0.0, SVG Export Plug-In . SVG Version: 6.00 Build 0)  -->
<!DOCTYPE svg PUBLIC "-//W3C//DTD SVG 1.1//EN" "http://www.w3.org/Graphics/SVG/1.1/DTD/svg11.dtd">
<svg version="1.1" id="Layer_1" xmlns="http://www.w3.org/2000/svg" xmlns:xlink="http://www.w3.org/1999/xlink" x="0px" y="0px"
	 width="26px" height="26px" viewBox="0 0 26 26" enable-background="new 0 0 26 26" xml:space="preserve">
<path fill="#506472" d="M14.82,22.223c-0.001,0-0.018,0-0.019,0c-1.129-0.006-2.19-0.448-2.988-1.247l-6-5.999
	c-0.772-0.749-1.225-1.766-1.263-2.854L4.48,7.103C4.47,6.769,4.529,6.428,4.658,6.104c0.129-0.324,0.318-0.613,0.564-0.86
	C5.471,4.996,5.76,4.806,6.083,4.678c0.3-0.119,0.615-0.179,0.937-0.179l5.063,0.071c1.107,0.039,2.125,0.491,2.883,1.273
	l5.991,5.991c0.398,0.399,0.708,0.863,0.922,1.379c0.215,0.518,0.324,1.065,0.324,1.627c0,0.563-0.109,1.11-0.325,1.629
	c-0.213,0.514-0.522,0.978-0.92,1.377l-3.151,3.15C17.003,21.788,15.943,22.223,14.82,22.223z M7.05,6.3
	c-0.127,0-0.217,0.018-0.304,0.052C6.652,6.389,6.567,6.444,6.495,6.517c-0.07,0.071-0.126,0.155-0.164,0.25
	C6.294,6.861,6.276,6.961,6.279,7.063l0.071,5.015c0.021,0.603,0.28,1.184,0.727,1.616l6.01,6.01
	c0.46,0.461,1.073,0.716,1.723,0.719l0.011,0.9v-0.9c0.647,0,1.258-0.25,1.718-0.703l3.146-3.146
	c0.229-0.23,0.409-0.498,0.531-0.794c0.125-0.3,0.188-0.615,0.188-0.939c0-0.323-0.063-0.639-0.187-0.938
	c-0.123-0.298-0.302-0.564-0.532-0.795l-6-6C13.24,6.65,12.659,6.392,12.038,6.37L7.057,6.3C7.055,6.3,7.052,6.3,7.05,6.3z"/>
<path fill="#506472" d="M10.3,12.23c1.066,0,1.93-0.864,1.93-1.93s-0.864-1.93-1.93-1.93S8.37,9.234,8.37,10.3
	S9.234,12.23,10.3,12.23z"/>
</svg>
