<?xml version="1.0" encoding="utf-8"?>
<!-- Generator: Adobe Illustrator 16.0.0, SVG Export Plug-In . SVG Version: 6.00 Build 0)  -->
<!DOCTYPE svg PUBLIC "-//W3C//DTD SVG 1.1//EN" "http://www.w3.org/Graphics/SVG/1.1/DTD/svg11.dtd">
<svg version="1.1" id="Layer_1" xmlns="http://www.w3.org/2000/svg" xmlns:xlink="http://www.w3.org/1999/xlink" x="0px" y="0px"
	 width="26px" height="26px" viewBox="0 0 26 26" enable-background="new 0 0 26 26" xml:space="preserve">
<path fill="#506472" d="M5.46,21.28c-0.497,0-0.9-0.403-0.9-0.9v-3.83c-0.003-0.882,0.338-1.715,0.96-2.343l5.843-5.843
	c0.352-0.352,0.921-0.352,1.272,0c0.352,0.351,0.352,0.921,0,1.272l-5.84,5.84c-0.282,0.284-0.438,0.665-0.437,1.07v2.933H9.3
	c0.4-0.001,0.778-0.158,1.062-0.444l9.762-9.771l0.066-0.154c-0.002-0.002-0.064-0.152-0.067-0.155l-3.24-3.25
	c-0.07-0.067-0.234-0.077-0.324,0.01l-0.787,0.797c-0.35,0.354-0.919,0.357-1.273,0.008c-0.354-0.35-0.356-0.919-0.008-1.273
	l0.8-0.81c0.793-0.771,2.091-0.758,2.858-0.013l3.25,3.26c0.183,0.18,0.332,0.4,0.437,0.649c0.104,0.248,0.156,0.509,0.156,0.776
	s-0.053,0.528-0.155,0.775c-0.104,0.25-0.255,0.472-0.446,0.659l-9.752,9.762c-0.621,0.625-1.45,0.972-2.334,0.975H5.46z"/>
</svg>
