<svg width="26" height="26" viewBox="0 0 26 26" fill="none" xmlns="http://www.w3.org/2000/svg">
<path d="M18 20.9H7.99998C6.96644 20.8974 5.976 20.4856 5.24518 19.7548C4.51435 19.024 4.10262 18.0335 4.09998 17C4.09998 16.7613 4.1948 16.5324 4.36358 16.3636C4.53236 16.1948 4.76128 16.1 4.99998 16.1C5.23867 16.1 5.46759 16.1948 5.63637 16.3636C5.80515 16.5324 5.89998 16.7613 5.89998 17C5.89998 17.557 6.12122 18.0911 6.51505 18.4849C6.90888 18.8788 7.44302 19.1 7.99998 19.1H18C18.5569 19.1 19.0911 18.8788 19.4849 18.4849C19.8787 18.0911 20.1 17.557 20.1 17C20.1 16.7613 20.1948 16.5324 20.3636 16.3636C20.5324 16.1948 20.7613 16.1 21 16.1C21.2387 16.1 21.4676 16.1948 21.6364 16.3636C21.8052 16.5324 21.9 16.7613 21.9 17C21.8973 18.0335 21.4856 19.024 20.7548 19.7548C20.024 20.4856 19.0335 20.8974 18 20.9Z" fill="#506472"/>
<path d="M13 16.4C12.7613 16.4 12.5324 16.3052 12.3636 16.1364C12.1948 15.9676 12.1 15.7387 12.1 15.5V6.50001C12.1 6.26131 12.1948 6.03239 12.3636 5.86361C12.5324 5.69483 12.7613 5.60001 13 5.60001C13.2387 5.60001 13.4676 5.69483 13.6364 5.86361C13.8052 6.03239 13.9 6.26131 13.9 6.50001V15.5C13.9 15.7387 13.8052 15.9676 13.6364 16.1364C13.4676 16.3052 13.2387 16.4 13 16.4Z" fill="#506472"/>
<path d="M9 10.9C8.80043 10.9009 8.60648 10.8339 8.45 10.71C8.35586 10.6385 8.27692 10.5489 8.2178 10.4464C8.15868 10.344 8.12056 10.2309 8.10566 10.1136C8.09077 9.99627 8.0994 9.87717 8.13105 9.76324C8.1627 9.6493 8.21673 9.54282 8.29 9.45001C11.65 5.10001 12.67 5.10001 13 5.10001C13.226 5.10331 13.4424 5.19151 13.6064 5.34708C13.7703 5.50266 13.8697 5.71421 13.8848 5.93971C13.9 6.16521 13.8297 6.38814 13.688 6.5642C13.5463 6.74026 13.3435 6.85657 13.12 6.89001C11.8139 7.94041 10.6655 9.17301 9.71 10.55C9.62722 10.6597 9.51987 10.7486 9.39658 10.8093C9.27328 10.8701 9.13746 10.9012 9 10.9Z" fill="#506472"/>
<path d="M17 10.9C16.8626 10.9012 16.7267 10.8701 16.6034 10.8093C16.4801 10.7486 16.3728 10.6597 16.29 10.55C15.3345 9.17301 14.1861 7.94041 12.88 6.89001C12.6565 6.85657 12.4537 6.74026 12.312 6.5642C12.1703 6.38814 12.1001 6.16521 12.1152 5.93971C12.1303 5.71421 12.2297 5.50266 12.3936 5.34708C12.5576 5.19151 12.774 5.10331 13 5.10001C13.33 5.10001 14.35 5.10001 17.71 9.45001C17.7833 9.54282 17.8373 9.6493 17.869 9.76324C17.9006 9.87717 17.9092 9.99627 17.8943 10.1136C17.8795 10.2309 17.8413 10.344 17.7822 10.4464C17.7231 10.5489 17.6441 10.6385 17.55 10.71C17.3935 10.8339 17.1996 10.9009 17 10.9Z" fill="#506472"/>
</svg>
