<?xml version="1.0" encoding="utf-8"?>
<!-- Generator: Adobe Illustrator 16.0.0, SVG Export Plug-In . SVG Version: 6.00 Build 0)  -->
<!DOCTYPE svg PUBLIC "-//W3C//DTD SVG 1.1//EN" "http://www.w3.org/Graphics/SVG/1.1/DTD/svg11.dtd">
<svg version="1.1" id="Layer_1" xmlns="http://www.w3.org/2000/svg" xmlns:xlink="http://www.w3.org/1999/xlink" x="0px" y="0px"
	 width="26px" height="26px" viewBox="0 0 26 26" enable-background="new 0 0 26 26" xml:space="preserve">
<path fill="#506472" d="M9.11,22.68c-0.188,0-0.374-0.06-0.531-0.174c-0.262-0.19-0.4-0.507-0.363-0.829
	C8.476,19.404,8.873,17.13,9.4,14.9H7.63c-0.252,0-0.494-0.106-0.664-0.293s-0.255-0.436-0.232-0.688
	c0.24-2.675,0.792-5.321,1.643-7.866C8.525,5.57,8.831,5.136,9.255,4.82c0.425-0.317,0.929-0.486,1.459-0.49h5.736
	c0.337,0.013,0.636,0.098,0.898,0.247c0.262,0.148,0.488,0.361,0.654,0.615c0.167,0.258,0.27,0.551,0.299,0.852
	c0.03,0.302-0.014,0.61-0.126,0.891c-0.141,0.309-0.944,1.95-1.624,3.235h2.278c0.282,0.006,0.536,0.084,0.754,0.229
	c0.21,0.135,0.384,0.335,0.496,0.572c0.112,0.247,0.152,0.508,0.119,0.766c-0.029,0.23-0.116,0.448-0.251,0.636
	c-1.609,2.672-7.566,8.922-10.469,10.228C9.361,22.653,9.235,22.68,9.11,22.68z M8.629,13.1h1.921c0.278,0,0.541,0.128,0.711,0.349
	s0.229,0.506,0.16,0.776c-0.49,1.899-0.882,3.84-1.172,5.789c2.583-1.93,6.295-5.86,7.814-8.044H15.01
	c-0.333,0-0.639-0.184-0.795-0.478s-0.138-0.65,0.049-0.926c0.468-0.693,2.047-3.878,2.258-4.34l-0.06-0.083L10.72,6.13
	c-0.137,0.001-0.274,0.047-0.39,0.133c-0.115,0.086-0.198,0.204-0.24,0.341C9.382,8.723,8.894,10.898,8.629,13.1z"/>
</svg>
