<?xml version="1.0" encoding="utf-8"?>
<!-- Generator: Adobe Illustrator 16.0.0, SVG Export Plug-In . SVG Version: 6.00 Build 0)  -->
<!DOCTYPE svg PUBLIC "-//W3C//DTD SVG 1.1//EN" "http://www.w3.org/Graphics/SVG/1.1/DTD/svg11.dtd">
<svg version="1.1" id="Layer_1" xmlns="http://www.w3.org/2000/svg" xmlns:xlink="http://www.w3.org/1999/xlink" x="0px" y="0px"
	 width="26px" height="26px" viewBox="0 0 26 26" enable-background="new 0 0 26 26" xml:space="preserve">
<path fill="#506472" d="M8,21.4c-0.497,0-0.9-0.403-0.9-0.9v-14c0-0.497,0.403-0.9,0.9-0.9s0.9,0.403,0.9,0.9v14
	C8.9,20.997,8.497,21.4,8,21.4z"/>
<path fill="#506472" d="M5,9.4c-0.194,0-0.39-0.063-0.554-0.191c-0.392-0.307-0.46-0.872-0.154-1.264C6.143,5.579,6.909,4.6,8,4.6
	c0.497,0,0.9,0.403,0.9,0.9S8.497,6.4,8,6.4C7.699,6.512,6.595,7.922,5.709,9.055C5.531,9.281,5.267,9.4,5,9.4z"/>
<path fill="#506472" d="M11,9.4c-0.267,0-0.532-0.118-0.709-0.345c-0.886-1.133-1.99-2.543-2.328-2.66
	c-0.497,0-0.881-0.4-0.881-0.897S7.503,4.6,8,4.6c1.091,0,1.857,0.979,3.709,3.345c0.306,0.392,0.237,0.957-0.154,1.264
	C11.39,9.337,11.195,9.4,11,9.4z"/>
<path fill="#506472" d="M18,20.4c-0.497,0-0.9-0.403-0.9-0.9v-14c0-0.497,0.403-0.9,0.9-0.9s0.9,0.403,0.9,0.9v14
	C18.9,19.997,18.497,20.4,18,20.4z"/>
<path fill="#506472" d="M18,21.4c-1.091,0-1.857-0.979-3.709-3.346c-0.306-0.392-0.237-0.957,0.154-1.264
	c0.394-0.308,0.957-0.236,1.264,0.154c0.887,1.133,1.989,2.543,2.328,2.66c0.497,0,0.881,0.4,0.881,0.897S18.497,21.4,18,21.4z"/>
<path fill="#506472" d="M18,21.4c-0.497,0-0.9-0.403-0.9-0.9s0.403-0.9,0.9-0.9c0.302-0.111,1.404-1.521,2.291-2.654
	c0.307-0.391,0.87-0.462,1.264-0.154c0.392,0.307,0.46,0.872,0.154,1.264C19.857,20.421,19.091,21.4,18,21.4z"/>
</svg>
