<svg width="20" height="20" viewBox="0 0 20 20" fill="none" xmlns="http://www.w3.org/2000/svg">
<path d="M16 15.6H4.00002C3.84089 15.6 3.68828 15.5368 3.57576 15.4243C3.46324 15.3118 3.40002 15.1592 3.40002 15C3.40002 14.8409 3.46324 14.6883 3.57576 14.5758C3.68828 14.4632 3.84089 14.4 4.00002 14.4H16C16.1592 14.4 16.3118 14.4632 16.4243 14.5758C16.5368 14.6883 16.6 14.8409 16.6 15C16.6 15.1592 16.5368 15.3118 16.4243 15.4243C16.3118 15.5368 16.1592 15.6 16 15.6Z" fill="#506472"/>
<path d="M10 11.1C9.84089 11.1 9.68828 11.0368 9.57576 10.9243C9.46324 10.8118 9.40002 10.6592 9.40002 10.5V3.50002C9.40002 3.34089 9.46324 3.18828 9.57576 3.07576C9.68828 2.96324 9.84089 2.90002 10 2.90002C10.1592 2.90002 10.3118 2.96324 10.4243 3.07576C10.5368 3.18828 10.6 3.34089 10.6 3.50002V10.5C10.6 10.6592 10.5368 10.8118 10.4243 10.9243C10.3118 11.0368 10.1592 11.1 10 11.1Z" fill="#506472"/>
<path d="M9.99998 12.1C9.92143 12.1 9.8437 12.084 9.7715 12.0531C9.69931 12.0221 9.63415 11.9769 9.57998 11.92L6.57998 8.91998C6.46858 8.80858 6.40601 8.65751 6.40601 8.49998C6.40601 8.34245 6.46858 8.19137 6.57998 8.07998C6.69137 7.96858 6.84245 7.90601 6.99998 7.90601C7.15751 7.90601 7.30858 7.96858 7.41998 8.07998L9.99998 10.65L12.58 8.07998C12.6351 8.02482 12.7006 7.98107 12.7727 7.95122C12.8447 7.92137 12.922 7.90601 13 7.90601C13.078 7.90601 13.1552 7.92137 13.2273 7.95122C13.2993 7.98107 13.3648 8.02482 13.42 8.07998C13.4751 8.13513 13.5189 8.20061 13.5487 8.27267C13.5786 8.34474 13.5939 8.42197 13.5939 8.49998C13.5939 8.57798 13.5786 8.65521 13.5487 8.72728C13.5189 8.79934 13.4751 8.86482 13.42 8.91998L10.42 11.92C10.3658 11.9769 10.3006 12.0221 10.2284 12.0531C10.1563 12.084 10.0785 12.1 9.99998 12.1Z" fill="#506472"/>
</svg>
