<?xml version="1.0" encoding="utf-8"?>
<!-- Generator: Adobe Illustrator 16.0.0, SVG Export Plug-In . SVG Version: 6.00 Build 0)  -->
<!DOCTYPE svg PUBLIC "-//W3C//DTD SVG 1.1//EN" "http://www.w3.org/Graphics/SVG/1.1/DTD/svg11.dtd">
<svg version="1.1" id="Layer_1" xmlns="http://www.w3.org/2000/svg" xmlns:xlink="http://www.w3.org/1999/xlink" x="0px" y="0px"
	 width="20px" height="20px" viewBox="0 0 20 20" enable-background="new 0 0 20 20" xml:space="preserve">
<path fill="#3D505F" d="M6.449,17.643c-0.126,0-0.252-0.04-0.357-0.117c-0.172-0.129-0.264-0.339-0.238-0.553
	c0.216-1.836,0.55-3.675,0.996-5.479H5.244c-0.169,0-0.33-0.07-0.443-0.195s-0.169-0.291-0.154-0.459
	C4.84,8.732,5.289,6.648,5.979,4.645c0.114-0.363,0.349-0.688,0.674-0.922c0.321-0.232,0.702-0.357,1.102-0.36h4.67
	c0.245,0.009,0.467,0.07,0.661,0.177c0.195,0.108,0.365,0.263,0.489,0.447c0.128,0.193,0.206,0.411,0.227,0.632
	c0.022,0.212-0.01,0.441-0.096,0.652c-0.119,0.255-0.837,1.677-1.404,2.707h2.063c0.198,0.004,0.378,0.059,0.533,0.158
	c0.154,0.096,0.281,0.239,0.362,0.41c0.08,0.168,0.11,0.355,0.088,0.541c-0.022,0.184-0.099,0.359-0.221,0.506
	c-1.221,2.01-6.08,6.968-8.439,8C6.612,17.626,6.53,17.643,6.449,17.643z M5.91,10.294h1.711c0.187,0,0.362,0.086,0.476,0.234
	c0.114,0.148,0.152,0.34,0.104,0.521c-0.424,1.597-0.759,3.229-0.999,4.864c2.19-1.509,5.563-4.975,6.769-6.734h-2.718
	c-0.224,0-0.429-0.124-0.532-0.322s-0.088-0.437,0.04-0.621c0.391-0.562,1.668-3.066,1.847-3.445l0.47-0.468L12.58,4.657
	c-0.104-0.083-0.14-0.093-0.177-0.095l-4.643,0C7.616,4.564,7.475,4.609,7.357,4.695C7.242,4.778,7.16,4.891,7.119,5.021
	C6.527,6.739,6.123,8.506,5.91,10.294z"/>
</svg>
