<?xml version="1.0" encoding="utf-8"?>
<!-- Generator: Adobe Illustrator 16.0.0, SVG Export Plug-In . SVG Version: 6.00 Build 0)  -->
<!DOCTYPE svg PUBLIC "-//W3C//DTD SVG 1.1//EN" "http://www.w3.org/Graphics/SVG/1.1/DTD/svg11.dtd">
<svg version="1.1" id="Layer_1" xmlns="http://www.w3.org/2000/svg" xmlns:xlink="http://www.w3.org/1999/xlink" x="0px" y="0px"
	 width="26px" height="26px" viewBox="0 0 26 26" enable-background="new 0 0 26 26" xml:space="preserve">
<path fill="#506472" d="M13,20.9H7.909c-2.237,0-4.057-1.885-4.057-4.2V7.3c0-1.764,1.391-3.2,3.1-3.2h2.183
	c0.865,0,1.724,0.293,2.418,0.827l0.87,0.668c0.387,0.297,0.845,0.455,1.321,0.455h4.347c2.237,0,4.058,1.884,4.058,4.2v2.25
	c0,0.497-0.403,0.9-0.9,0.9s-0.9-0.403-0.9-0.9v-2.25c0-1.323-1.012-2.4-2.257-2.4h-4.347c-0.864,0-1.723-0.294-2.418-0.828
	l-0.87-0.668C10.07,6.057,9.612,5.9,9.135,5.9H6.952c-0.717,0-1.3,0.628-1.3,1.4v9.4c0,1.323,1.013,2.399,2.257,2.399H13
	c0.497,0,0.9,0.403,0.9,0.9S13.497,20.9,13,20.9z"/>
<path fill="#506472" d="M19.5,22.4c-0.497,0-0.9-0.403-0.9-0.9v-6c0-0.497,0.403-0.9,0.9-0.9s0.9,0.403,0.9,0.9v6
	C20.4,21.997,19.997,22.4,19.5,22.4z"/>
<path fill="#506472" d="M22.5,19.4h-6c-0.497,0-0.9-0.403-0.9-0.9s0.403-0.9,0.9-0.9h6c0.497,0,0.9,0.403,0.9,0.9
	S22.997,19.4,22.5,19.4z"/>
</svg>
