<svg width="20" height="20" viewBox="0 0 20 20" fill="none" xmlns="http://www.w3.org/2000/svg">
<path d="M8.06 16C7.73896 16.0023 7.42066 15.9408 7.12365 15.8189C6.82664 15.697 6.55685 15.5172 6.33 15.29C5.87262 14.8325 5.61568 14.212 5.61568 13.565C5.61568 12.9181 5.87262 12.2976 6.33 11.84L9.72 8.42001C9.77374 8.35625 9.84018 8.30438 9.91509 8.26773C9.98999 8.23108 10.0717 8.21045 10.155 8.20715C10.2384 8.20384 10.3215 8.21795 10.399 8.24856C10.4766 8.27917 10.5469 8.32561 10.6056 8.38493C10.6642 8.44424 10.7098 8.51513 10.7395 8.59305C10.7692 8.67098 10.7823 8.75424 10.778 8.83752C10.7737 8.9208 10.7521 9.00228 10.7146 9.07674C10.677 9.15121 10.6244 9.21703 10.56 9.27001L7.18 12.66C7.06509 12.7756 6.97407 12.9126 6.91214 13.0634C6.8502 13.2141 6.81856 13.3756 6.81903 13.5385C6.81949 13.7015 6.85205 13.8628 6.91484 14.0132C6.97764 14.1636 7.06944 14.3001 7.185 14.415C7.30056 14.5299 7.43763 14.6209 7.58837 14.6829C7.73911 14.7448 7.90057 14.7765 8.06353 14.776C8.2265 14.7755 8.38778 14.743 8.53817 14.6802C8.68855 14.6174 8.82509 14.5256 8.94 14.41L13.36 10C13.9395 9.42184 14.2656 8.63715 14.2665 7.81855C14.2675 6.99995 13.9432 6.21451 13.365 5.63501C12.7868 5.05552 12.0021 4.72943 11.1835 4.72849C10.3649 4.72756 9.5795 5.05184 9 5.63001L5.36 9.27001C5.30496 9.32718 5.23895 9.37265 5.16592 9.40371C5.0929 9.43477 5.01436 9.45078 4.935 9.45078C4.85564 9.45078 4.7771 9.43477 4.70408 9.40371C4.63105 9.37265 4.56504 9.32718 4.51 9.27001C4.39943 9.15617 4.33758 9.00372 4.33758 8.84501C4.33758 8.68631 4.39943 8.53386 4.51 8.42001L8.16 4.78001C8.97032 4.01783 10.0456 3.6011 11.1579 3.61812C12.2702 3.63514 13.3322 4.08458 14.1188 4.8712C14.9054 5.65782 15.3549 6.71981 15.3719 7.83213C15.3889 8.94445 14.9722 10.0197 14.21 10.83L9.78 15.26C9.55752 15.4923 9.29062 15.6775 8.99514 15.8047C8.69967 15.9318 8.38165 15.9982 8.06 16Z" fill="#3D505F"/>
</svg>
