<svg width="20" height="20" viewBox="0 0 20 20" fill="none" xmlns="http://www.w3.org/2000/svg">
<path d="M10.12 16.73C8.92002 16.73 7.71002 16.73 7.21002 16.73C6.61586 16.7054 6.05265 16.4583 5.63215 16.0378C5.21165 15.6174 4.9646 15.0541 4.94002 14.46C4.87002 13.07 4.77002 11.18 4.77002 9.57998C4.77002 9.42085 4.83323 9.26824 4.94576 9.15572C5.05828 9.0432 5.21089 8.97998 5.37002 8.97998C5.52915 8.97998 5.68176 9.0432 5.79428 9.15572C5.90681 9.26824 5.97002 9.42085 5.97002 9.57998C5.97002 11.15 6.07002 13.03 6.14002 14.4C6.15013 14.6982 6.27378 14.9813 6.48569 15.1913C6.69759 15.4013 6.98174 15.5225 7.28002 15.53C8.20002 15.53 11.77 15.59 12.72 15.53C13.0175 15.5202 13.3003 15.3982 13.5118 15.1887C13.7232 14.9791 13.8476 14.6974 13.86 14.4C13.93 13.03 14.03 11.15 14.03 9.57998C14.03 9.42085 14.0932 9.26824 14.2058 9.15572C14.3183 9.0432 14.4709 8.97998 14.63 8.97998C14.7892 8.97998 14.9418 9.0432 15.0543 9.15572C15.1668 9.26824 15.23 9.42085 15.23 9.57998C15.23 11.18 15.13 13.07 15.06 14.46C15.0334 15.0517 14.787 15.6123 14.3691 16.0321C13.9511 16.4519 13.3917 16.7007 12.8 16.73C12.31 16.72 11.22 16.73 10.12 16.73Z" fill="#3D505F"/>
<path d="M15.74 7.27001H4.25997C4.10084 7.27001 3.94823 7.20679 3.83571 7.09427C3.72319 6.98175 3.65997 6.82914 3.65997 6.67001C3.65997 6.51088 3.72319 6.35827 3.83571 6.24574C3.94823 6.13322 4.10084 6.07001 4.25997 6.07001H15.74C15.8991 6.07001 16.0517 6.13322 16.1642 6.24574C16.2768 6.35827 16.34 6.51088 16.34 6.67001C16.34 6.82914 16.2768 6.98175 16.1642 7.09427C16.0517 7.20679 15.8991 7.27001 15.74 7.27001Z" fill="#3D505F"/>
<path d="M13.54 7.27C12.37 7.27 11.59 6.27 11.41 4.55H8.53999C8.40999 6.24001 7.62999 7.23 6.45999 7.23C6.30086 7.23 6.14824 7.16679 6.03572 7.05427C5.9232 6.94175 5.85999 6.78913 5.85999 6.63C5.85999 6.47088 5.9232 6.31826 6.03572 6.20574C6.14824 6.09322 6.30086 6.03 6.45999 6.03C7.14999 6.03 7.33999 4.88 7.39999 4.38C7.43638 4.1034 7.57208 3.84946 7.78181 3.66548C7.99154 3.48151 8.261 3.38005 8.53999 3.38H11.46C11.739 3.38005 12.0084 3.48151 12.2182 3.66548C12.4279 3.84946 12.5636 4.1034 12.6 4.38C12.66 4.88 12.85 6.03 13.54 6.03C13.6991 6.03 13.8517 6.09322 13.9642 6.20574C14.0768 6.31826 14.14 6.47088 14.14 6.63C14.14 6.78913 14.0768 6.94175 13.9642 7.05427C13.8517 7.16679 13.6991 7.23 13.54 7.23V7.27Z" fill="#3D505F"/>
</svg>
