<?xml version="1.0" encoding="utf-8"?>
<!-- Generator: Adobe Illustrator 16.0.0, SVG Export Plug-In . SVG Version: 6.00 Build 0)  -->
<!DOCTYPE svg PUBLIC "-//W3C//DTD SVG 1.1//EN" "http://www.w3.org/Graphics/SVG/1.1/DTD/svg11.dtd">
<svg version="1.1" id="Layer_1" xmlns="http://www.w3.org/2000/svg" xmlns:xlink="http://www.w3.org/1999/xlink" x="0px" y="0px"
	 width="26px" height="26px" viewBox="0 0 26 26" enable-background="new 0 0 26 26" xml:space="preserve">
<path fill="#506472" d="M13,15.94c-2.206,0-4-1.795-4-4s1.794-4,4-4c2.205,0,4,1.794,4,4S15.205,15.94,13,15.94z M13,9.74
	c-1.213,0-2.2,0.987-2.2,2.2s0.987,2.2,2.2,2.2c1.213,0,2.199-0.986,2.199-2.2S14.213,9.74,13,9.74z"/>
<path fill="#506472" d="M8.121,18.65c-0.07,0-0.141-0.009-0.212-0.025c-0.483-0.117-0.78-0.604-0.663-1.087
	c0.305-1.26,1.069-3.51,2.757-4.42c0.438-0.237,0.983-0.073,1.219,0.365c0.236,0.438,0.073,0.984-0.365,1.219
	c-0.773,0.417-1.469,1.635-1.863,3.26C8.895,18.374,8.527,18.65,8.121,18.65z"/>
<path fill="#506472" d="M17.89,18.65c-0.403,0-0.771-0.273-0.872-0.684c-0.405-1.63-1.106-2.85-1.874-3.265
	c-0.438-0.235-0.602-0.781-0.365-1.219c0.235-0.438,0.782-0.6,1.219-0.365c1.678,0.904,2.454,3.154,2.767,4.415
	c0.12,0.482-0.174,0.971-0.656,1.09C18.035,18.642,17.962,18.65,17.89,18.65z"/>
<path fill="#506472" d="M13,22.09c-2.313,0-4.498,0-6.075-0.133c-0.709-0.02-1.422-0.327-1.958-0.863
	c-0.536-0.535-0.844-1.248-0.866-2.007c0-0.694-0.019-1.488-0.04-2.354c-0.027-1.158-0.057-2.444-0.051-3.736l0.002-0.724
	c0.007-2.046,0.014-3.979,0.152-5.361C4.182,6.216,4.49,5.502,5.026,4.966C5.562,4.43,6.275,4.122,7.034,4.101
	c0.687,0,1.5-0.015,2.396-0.03c3.107-0.054,7.193-0.114,9.646,0.093c0.709,0.019,1.422,0.327,1.959,0.863
	c0.535,0.535,0.843,1.248,0.865,2.007c0.105,1.414,0.161,3.626,0.151,6.031l-0.003,0.723c-0.007,2.047-0.014,3.979-0.152,5.363
	c-0.019,0.696-0.326,1.409-0.862,1.944s-1.248,0.843-2.007,0.865C17.63,22.043,15.48,22.09,13,22.09z M13,5.83
	c-1.217,0-2.44,0.021-3.539,0.04C8.554,5.886,7.729,5.9,7.06,5.9C6.789,5.908,6.509,6.028,6.299,6.239
	c-0.21,0.21-0.331,0.49-0.34,0.787c-0.133,1.36-0.14,3.25-0.146,5.252L5.81,13.004c-0.006,1.275,0.024,2.544,0.051,3.687
	c0.021,0.882,0.039,1.69,0.039,2.37c0.008,0.271,0.128,0.55,0.338,0.759c0.211,0.212,0.491,0.333,0.789,0.342
	c1.551,0.128,3.799,0.128,5.973,0.128c2.446,0,4.558-0.045,5.947-0.127c0.323-0.01,0.604-0.131,0.813-0.342
	c0.211-0.209,0.331-0.488,0.34-0.786c0.134-1.36,0.141-3.251,0.147-5.253l0.002-0.725c0.011-2.359-0.043-4.521-0.147-5.93
	c-0.011-0.338-0.132-0.618-0.341-0.827c-0.211-0.21-0.49-0.331-0.788-0.34C17.422,5.83,15.174,5.83,13,5.83z"/>
</svg>
