<?xml version="1.0" encoding="utf-8"?>
<!-- Generator: Adobe Illustrator 16.0.0, SVG Export Plug-In . SVG Version: 6.00 Build 0)  -->
<!DOCTYPE svg PUBLIC "-//W3C//DTD SVG 1.1//EN" "http://www.w3.org/Graphics/SVG/1.1/DTD/svg11.dtd">
<svg version="1.1" id="Layer_1" xmlns="http://www.w3.org/2000/svg" xmlns:xlink="http://www.w3.org/1999/xlink" x="0px" y="0px"
	 width="20px" height="20px" viewBox="0 0 20 20" enable-background="new 0 0 20 20" xml:space="preserve">
<path fill="#637887" d="M16,16.85H4c-0.497,0-0.9-0.403-0.9-0.9s0.403-0.9,0.9-0.9h12c0.497,0,0.9,0.403,0.9,0.9
	S16.497,16.85,16,16.85z"/>
<path fill="#637887" d="M10,11.5c-0.497,0-0.9-0.403-0.9-0.9v-7c0-0.497,0.403-0.9,0.9-0.9s0.9,0.403,0.9,0.9v7
	C10.9,11.097,10.497,11.5,10,11.5z"/>
<path fill="#637887" d="M10,13c-0.23,0-0.46-0.088-0.636-0.264l-3-3c-0.352-0.351-0.352-0.921,0-1.272
	c0.351-0.352,0.921-0.352,1.272,0L10,10.827l2.363-2.363c0.352-0.352,0.922-0.352,1.273,0s0.352,0.921,0,1.272l-3,3
	C10.46,12.912,10.23,13,10,13z"/>
</svg>
