<?xml version="1.0" encoding="utf-8"?>
<!-- Generator: Adobe Illustrator 16.0.0, SVG Export Plug-In . SVG Version: 6.00 Build 0)  -->
<!DOCTYPE svg PUBLIC "-//W3C//DTD SVG 1.1//EN" "http://www.w3.org/Graphics/SVG/1.1/DTD/svg11.dtd">
<svg version="1.1" id="Layer_1" xmlns="http://www.w3.org/2000/svg" xmlns:xlink="http://www.w3.org/1999/xlink" x="0px" y="0px"
	 width="26px" height="26px" viewBox="0 0 26 26" enable-background="new 0 0 26 26" xml:space="preserve">
<path fill="#506472" d="M18.2,19.101c-0.23,0-0.461-0.088-0.637-0.264L7.164,8.436c-0.352-0.351-0.352-0.921,0-1.272
	c0.352-0.352,0.921-0.352,1.272,0l10.401,10.4c0.352,0.352,0.352,0.922,0,1.273C18.661,19.013,18.431,19.101,18.2,19.101z"/>
<path fill="#506472" d="M7.8,19.101c-0.23,0-0.46-0.088-0.636-0.264c-0.352-0.352-0.352-0.922,0-1.273l10.4-10.4
	c0.352-0.352,0.922-0.352,1.273,0c0.352,0.351,0.352,0.921,0,1.272L8.436,18.837C8.26,19.013,8.03,19.101,7.8,19.101z"/>
</svg>
