<?xml version="1.0" encoding="utf-8"?>
<!-- Generator: Adobe Illustrator 16.0.0, SVG Export Plug-In . SVG Version: 6.00 Build 0)  -->
<!DOCTYPE svg PUBLIC "-//W3C//DTD SVG 1.1//EN" "http://www.w3.org/Graphics/SVG/1.1/DTD/svg11.dtd">
<svg version="1.1" id="Layer_1" xmlns="http://www.w3.org/2000/svg" xmlns:xlink="http://www.w3.org/1999/xlink" x="0px" y="0px"
	 width="26px" height="26px" viewBox="0 0 26 26" enable-background="new 0 0 26 26" xml:space="preserve">
<path fill="#506472" d="M13,14.881c-3.182,0-5.77-2.589-5.77-5.771c0-3.181,2.588-5.77,5.77-5.77s5.771,2.588,5.771,5.77
	C18.771,12.292,16.182,14.881,13,14.881z M13,5.14c-2.189,0-3.97,1.781-3.97,3.97c0,2.189,1.781,3.971,3.97,3.971
	c2.189,0,3.97-1.781,3.97-3.971C16.97,6.921,15.189,5.14,13,5.14z"/>
<path fill="#506472" d="M12.739,22.764c-2.771,0-5.527-0.283-7.259-0.919c-0.599-0.217-1.033-0.772-1.219-1.564
	c-0.359-1.532,0.201-4.052,1.968-5.902c0.344-0.358,0.914-0.372,1.272-0.028c0.359,0.343,0.373,0.912,0.029,1.272
	c-1.198,1.254-1.597,2.812-1.574,3.764c0.012,0.516,0.14,0.751,0.184,0.792c3.117,1.135,10.775,0.963,13.787-0.032
	c0.322-0.339,0.267-2.775-1.476-4.581c-0.346-0.358-0.335-0.928,0.022-1.272c0.358-0.346,0.929-0.334,1.272,0.022
	c1.817,1.884,2.378,4.448,1.993,6.007c-0.194,0.787-0.638,1.331-1.248,1.533C18.742,22.433,15.732,22.764,12.739,22.764z"/>
</svg>
