<?xml version="1.0" encoding="utf-8"?>
<!-- Generator: Adobe Illustrator 16.0.0, SVG Export Plug-In . SVG Version: 6.00 Build 0)  -->
<!DOCTYPE svg PUBLIC "-//W3C//DTD SVG 1.1//EN" "http://www.w3.org/Graphics/SVG/1.1/DTD/svg11.dtd">
<svg version="1.1" id="Layer_1" xmlns="http://www.w3.org/2000/svg" xmlns:xlink="http://www.w3.org/1999/xlink" x="0px" y="0px"
	 width="26px" height="26px" viewBox="0 0 26 26" enable-background="new 0 0 26 26" xml:space="preserve">
<path fill="#506472" d="M8.88,5.74H6.72c-0.553,0-1,0.447-1,1v3.2c0,0.552,0.447,1,1,1h2.16c0.552,0,1-0.448,1-1v-3.2
	C9.88,6.188,9.432,5.74,8.88,5.74z"/>
<path fill="#506472" d="M14.08,5.74h-2.16c-0.552,0-1,0.447-1,1v3.2c0,0.552,0.448,1,1,1h2.16c0.553,0,1-0.448,1-1v-3.2
	C15.08,6.188,14.633,5.74,14.08,5.74z"/>
<path fill="#506472" d="M19.279,5.74H17.12c-0.552,0-1,0.447-1,1v3.2c0,0.552,0.448,1,1,1h2.159c0.553,0,1-0.448,1-1v-3.2
	C20.279,6.188,19.832,5.74,19.279,5.74z"/>
<path fill="#506472" d="M19.24,14.961H6.76c-0.497,0-0.9-0.403-0.9-0.9s0.403-0.9,0.9-0.9h12.48c0.497,0,0.9,0.403,0.9,0.9
	S19.737,14.961,19.24,14.961z"/>
<path fill="#506472" d="M17.16,19.121H6.76c-0.497,0-0.9-0.403-0.9-0.9s0.403-0.9,0.9-0.9h10.4c0.497,0,0.9,0.403,0.9,0.9
	S17.657,19.121,17.16,19.121z"/>
</svg>
