<?xml version="1.0" encoding="utf-8"?>
<!-- Generator: Adobe Illustrator 16.0.0, SVG Export Plug-In . SVG Version: 6.00 Build 0)  -->
<!DOCTYPE svg PUBLIC "-//W3C//DTD SVG 1.1//EN" "http://www.w3.org/Graphics/SVG/1.1/DTD/svg11.dtd">
<svg version="1.1" id="Layer_1" xmlns="http://www.w3.org/2000/svg" xmlns:xlink="http://www.w3.org/1999/xlink" x="0px" y="0px"
	 width="26px" height="26px" viewBox="0 0 26 26" enable-background="new 0 0 26 26" xml:space="preserve">
<path fill="#506472" d="M13,22.65c-4.792,0-8.69-3.898-8.69-8.69c0-4.792,3.898-8.69,8.69-8.69c4.792,0,8.69,3.898,8.69,8.69
	C21.69,18.752,17.792,22.65,13,22.65z M13,7.07c-3.799,0-6.89,3.091-6.89,6.89c0,3.799,3.091,6.89,6.89,6.89
	c3.799,0,6.89-3.091,6.89-6.89C19.89,10.161,16.799,7.07,13,7.07z"/>
<path fill="#506472" d="M14.95,17.4h-3.9c-0.344,0-0.658-0.196-0.809-0.505c-0.151-0.31-0.113-0.677,0.099-0.948l2.769-3.557H11.05
	c-0.497,0-0.9-0.403-0.9-0.9s0.403-0.9,0.9-0.9h3.9c0.344,0,0.657,0.196,0.809,0.505c0.151,0.309,0.112,0.677-0.099,0.948
	L12.891,15.6h2.059c0.497,0,0.9,0.403,0.9,0.9S15.447,17.4,14.95,17.4z"/>
<path fill="#506472" d="M4.8,6.77c-0.228,0-0.456-0.086-0.631-0.258C3.814,6.163,3.81,5.593,4.158,5.239
	c1.268-1.29,2.833-2.307,4.526-2.942c0.463-0.176,0.983,0.061,1.159,0.527c0.174,0.465-0.062,0.984-0.527,1.159
	C7.867,4.526,6.527,5.397,5.441,6.501C5.265,6.68,5.033,6.77,4.8,6.77z"/>
<path fill="#506472" d="M21.1,6.63c-0.229,0-0.458-0.087-0.634-0.261c-1.066-1.058-2.321-1.861-3.73-2.386
	c-0.466-0.173-0.702-0.692-0.529-1.158c0.175-0.465,0.691-0.702,1.158-0.529c1.649,0.615,3.12,1.555,4.369,2.794
	c0.353,0.35,0.355,0.92,0.005,1.273C21.563,6.541,21.331,6.63,21.1,6.63z"/>
</svg>
