<?xml version="1.0" encoding="utf-8"?>
<!-- Generator: Adobe Illustrator 16.0.0, SVG Export Plug-In . SVG Version: 6.00 Build 0)  -->
<!DOCTYPE svg PUBLIC "-//W3C//DTD SVG 1.1//EN" "http://www.w3.org/Graphics/SVG/1.1/DTD/svg11.dtd">
<svg version="1.1" id="Layer_1" xmlns="http://www.w3.org/2000/svg" xmlns:xlink="http://www.w3.org/1999/xlink" x="0px" y="0px"
	 width="26px" height="26px" viewBox="0 0 26 26" enable-background="new 0 0 26 26" xml:space="preserve">
<path fill="#506472" d="M7.79,21.711c-1.93,0-3.5-1.57-3.5-3.501s1.57-3.501,3.5-3.501s3.5,1.57,3.5,3.501S9.72,21.711,7.79,21.711z
	 M7.79,16.51c-0.938,0-1.7,0.763-1.7,1.7s0.763,1.7,1.7,1.7s1.7-0.763,1.7-1.7S8.728,16.51,7.79,16.51z"/>
<path fill="#506472" d="M17.15,11.83c-0.257,0-0.513-0.11-0.69-0.323c-0.319-0.381-0.269-0.949,0.113-1.268
	c1.187-0.992,2.182-1.933,2.628-2.431c-0.464-0.522-1.511-1.511-2.622-2.423c-0.384-0.315-0.439-0.883-0.124-1.267
	c0.314-0.382,0.88-0.439,1.267-0.125C21.17,6.825,21.17,7.541,21.17,7.81c0,0.349,0,0.933-3.442,3.811
	C17.56,11.761,17.354,11.83,17.15,11.83z"/>
<path fill="#506472" d="M21.311,19.11h-10.4c-0.497,0-0.9-0.403-0.9-0.9s0.403-0.9,0.9-0.9h10.4c0.497,0,0.9,0.403,0.9,0.9
	S21.808,19.11,21.311,19.11z"/>
<path fill="#506472" d="M7.79,16.51c-0.497,0-0.9-0.403-0.9-0.9v-1.56c0-1.901,0.738-3.689,2.079-5.036
	c1.341-1.348,3.126-2.095,5.027-2.104H19.2c0.497,0,0.9,0.403,0.9,0.9s-0.403,0.9-0.9,0.9H14c-1.417,0.007-2.752,0.565-3.755,1.573
	C9.242,11.291,8.69,12.628,8.69,14.05v1.56C8.69,16.106,8.287,16.51,7.79,16.51z"/>
</svg>
