<svg width="26" height="26" viewBox="0 0 26 26" fill="none" xmlns="http://www.w3.org/2000/svg">
<path d="M18 20.9H7.99998C6.96644 20.8974 5.976 20.4856 5.24518 19.7548C4.51435 19.024 4.10262 18.0335 4.09998 17C4.09998 16.7613 4.1948 16.5324 4.36358 16.3636C4.53236 16.1948 4.76128 16.1 4.99998 16.1C5.23867 16.1 5.46759 16.1948 5.63637 16.3636C5.80515 16.5324 5.89998 16.7613 5.89998 17C5.89998 17.557 6.12122 18.0911 6.51505 18.4849C6.90888 18.8788 7.44302 19.1 7.99998 19.1H18C18.5569 19.1 19.0911 18.8788 19.4849 18.4849C19.8787 18.0911 20.1 17.557 20.1 17C20.1 16.7613 20.1948 16.5324 20.3636 16.3636C20.5324 16.1948 20.7613 16.1 21 16.1C21.2387 16.1 21.4676 16.1948 21.6364 16.3636C21.8052 16.5324 21.9 16.7613 21.9 17C21.8973 18.0335 21.4856 19.024 20.7548 19.7548C20.024 20.4856 19.0335 20.8974 18 20.9Z" fill="#506472"/>
<path d="M13 15.9C12.7613 15.9 12.5324 15.8052 12.3636 15.6364C12.1948 15.4676 12.1 15.2387 12.1 15V6.00001C12.1 5.76131 12.1948 5.53239 12.3636 5.36361C12.5324 5.19483 12.7613 5.10001 13 5.10001C13.2387 5.10001 13.4676 5.19483 13.6364 5.36361C13.8052 5.53239 13.9 5.76131 13.9 6.00001V15C13.9 15.2387 13.8052 15.4676 13.6364 15.6364C13.4676 15.8052 13.2387 15.9 13 15.9Z" fill="#506472"/>
<path d="M13 16.4C12.67 16.4 11.65 16.4 8.28997 12.05C8.19176 11.9604 8.11461 11.8502 8.06408 11.7272C8.01354 11.6043 7.99088 11.4716 7.99771 11.3389C8.00454 11.2061 8.0407 11.0765 8.10359 10.9594C8.16648 10.8422 8.25453 10.7405 8.36143 10.6615C8.46832 10.5824 8.59139 10.528 8.72181 10.5022C8.85222 10.4764 8.98673 10.4798 9.11567 10.5122C9.24461 10.5446 9.36478 10.6051 9.46753 10.6894C9.57029 10.7738 9.65309 10.8799 9.70997 11C10.6655 12.377 11.8139 13.6096 13.12 14.66C13.3099 14.7227 13.4735 14.8468 13.585 15.0128C13.6966 15.1787 13.7496 15.3771 13.7359 15.5766C13.7221 15.7761 13.6423 15.9654 13.5091 16.1145C13.3758 16.2636 13.1967 16.364 13 16.4Z" fill="#506472"/>
<path d="M13 16.4C12.774 16.3967 12.5576 16.3085 12.3936 16.1529C12.2297 15.9974 12.1303 15.7858 12.1152 15.5603C12.1001 15.3348 12.1703 15.1119 12.312 14.9358C12.4537 14.7598 12.6565 14.6434 12.88 14.61C14.1825 13.5749 15.3307 12.3593 16.29 11C16.4414 10.8287 16.6523 10.7215 16.8799 10.7001C17.1075 10.6786 17.3347 10.7446 17.5155 10.8846C17.6962 11.0246 17.8169 11.2281 17.853 11.4539C17.8891 11.6796 17.838 11.9106 17.71 12.1C14.35 16.4 13.33 16.4 13 16.4Z" fill="#506472"/>
</svg>
