<?xml version="1.0" encoding="utf-8"?>
<!-- Generator: Adobe Illustrator 16.0.0, SVG Export Plug-In . SVG Version: 6.00 Build 0)  -->
<!DOCTYPE svg PUBLIC "-//W3C//DTD SVG 1.1//EN" "http://www.w3.org/Graphics/SVG/1.1/DTD/svg11.dtd">
<svg version="1.1" id="Layer_1" xmlns="http://www.w3.org/2000/svg" xmlns:xlink="http://www.w3.org/1999/xlink" x="0px" y="0px"
	 width="26px" height="26px" viewBox="0 0 26 26" enable-background="new 0 0 26 26" xml:space="preserve">
<path fill="#506472" d="M13,15.004c-0.768,0-1.537-0.183-2.226-0.527c-0.687-0.344-1.294-0.852-1.754-1.467
	c-0.024-0.031-0.058-0.06-0.096-0.079C8.885,12.911,8.843,12.9,8.8,12.9H4.58c-0.497,0-0.9-0.403-0.9-0.9s0.403-0.9,0.9-0.9h4.23
	c0.327,0.003,0.643,0.081,0.926,0.224c0.283,0.144,0.533,0.353,0.723,0.605c0.296,0.396,0.683,0.719,1.121,0.938
	c0.88,0.439,1.961,0.439,2.84,0c0.438-0.22,0.825-0.543,1.119-0.936c0.193-0.255,0.441-0.463,0.723-0.606
	c0.287-0.144,0.603-0.221,0.918-0.225h4.24c0.497,0,0.9,0.403,0.9,0.9s-0.403,0.9-0.9,0.9h-4.23c-0.032,0-0.075,0.011-0.115,0.031
	c-0.035,0.018-0.07,0.047-0.097,0.082c-0.457,0.612-1.063,1.119-1.751,1.463C14.538,14.821,13.769,15.004,13,15.004z"/>
<path fill="#506472" d="M17.825,20.4c-0.001,0-0.018,0-0.019,0H8.19c-0.601,0-1.176-0.114-1.724-0.339
	c-0.555-0.229-1.048-0.56-1.468-0.98c-0.419-0.419-0.749-0.911-0.977-1.463c-0.228-0.555-0.342-1.137-0.34-1.73V11.07
	c-0.002-0.451,0.146-0.903,0.418-1.268l2.286-3.006C6.788,6.241,7.337,5.771,7.962,5.45c0.625-0.321,1.327-0.494,2.03-0.5H16
	c0.7,0,1.396,0.163,2.02,0.472s1.176,0.767,1.598,1.324L21.9,9.801c0.273,0.364,0.423,0.818,0.42,1.275v4.814
	c0.002,0.59-0.112,1.172-0.34,1.725c-0.23,0.556-0.56,1.049-0.979,1.468c-0.418,0.419-0.911,0.748-1.463,0.977
	C18.984,20.286,18.41,20.4,17.825,20.4z M17.811,18.6h0.015c0.35,0,0.695-0.068,1.027-0.204c0.328-0.136,0.624-0.333,0.875-0.586
	c0.254-0.253,0.451-0.549,0.59-0.881c0.136-0.33,0.204-0.679,0.202-1.034V11.07c0.001-0.073-0.02-0.137-0.06-0.19l-2.28-3.051
	c-0.252-0.331-0.585-0.607-0.961-0.794c-0.375-0.186-0.794-0.285-1.213-0.285H10C9.584,6.754,9.162,6.858,8.785,7.051
	C8.408,7.245,8.077,7.528,7.827,7.87l-2.291,3.014c-0.035,0.047-0.057,0.113-0.056,0.181v4.826
	c-0.001,0.358,0.068,0.708,0.205,1.041c0.137,0.329,0.334,0.625,0.585,0.877c0.253,0.253,0.549,0.451,0.881,0.588
	C7.479,18.531,7.825,18.6,8.175,18.6H17.811z"/>
</svg>
