<svg width="20" height="20" viewBox="0 0 20 20" fill="none" xmlns="http://www.w3.org/2000/svg">
<path d="M11.61 16.8C11.2593 16.7977 10.9125 16.7258 10.5898 16.5884C10.2671 16.4511 9.97485 16.2511 9.73002 16L4.73002 11C4.2511 10.5265 3.97805 9.88338 3.97002 9.20997L3.87002 5.23997C3.86529 4.98792 3.91157 4.7375 4.00609 4.50379C4.10061 4.27007 4.2414 4.05788 4.42002 3.87997C4.59723 3.70041 4.80929 3.55899 5.04317 3.46441C5.27705 3.36982 5.52781 3.32407 5.78002 3.32997L9.78002 3.38997C10.4558 3.4007 11.1011 3.67314 11.58 4.14997L16.58 9.14997C17.0786 9.65275 17.3589 10.3319 17.36 11.04C17.3685 11.4041 17.3019 11.7661 17.1642 12.1033C17.0266 12.4406 16.8209 12.7458 16.56 13L13.5 16C13.2537 16.2518 12.9597 16.4523 12.6353 16.5896C12.3108 16.7269 11.9623 16.7984 11.61 16.8ZM10.61 15.17C10.887 15.4436 11.2607 15.597 11.65 15.597C12.0394 15.597 12.413 15.4436 12.69 15.17L15.75 12.11C15.8867 11.9735 15.9951 11.8113 16.0691 11.6329C16.1431 11.4544 16.1811 11.2631 16.1811 11.07C16.1811 10.8768 16.1431 10.6855 16.0691 10.5071C15.9951 10.3286 15.8867 10.1665 15.75 10.03L10.75 5.02997C10.6202 4.89692 10.4645 4.79189 10.2925 4.72137C10.1205 4.65085 9.93587 4.61634 9.75002 4.61997L5.75002 4.55997C5.65904 4.55829 5.56868 4.57516 5.48443 4.60954C5.40019 4.64393 5.32383 4.69511 5.26002 4.75997C5.19562 4.82413 5.14474 4.90055 5.11039 4.98472C5.07604 5.06888 5.05891 5.15908 5.06002 5.24997L5.12002 9.24997C5.11756 9.43567 5.1526 9.61995 5.22305 9.79178C5.2935 9.96361 5.39791 10.1195 5.53002 10.25L10.61 15.17Z" fill="#3D505F"/>
<path d="M8.19998 9.01C8.94556 9.01 9.54998 8.40558 9.54998 7.66C9.54998 6.91441 8.94556 6.31 8.19998 6.31C7.45439 6.31 6.84998 6.91441 6.84998 7.66C6.84998 8.40558 7.45439 9.01 8.19998 9.01Z" fill="#3D505F"/>
</svg>
