<?xml version="1.0" encoding="utf-8"?>
<!-- Generator: Adobe Illustrator 16.0.0, SVG Export Plug-In . SVG Version: 6.00 Build 0)  -->
<!DOCTYPE svg PUBLIC "-//W3C//DTD SVG 1.1//EN" "http://www.w3.org/Graphics/SVG/1.1/DTD/svg11.dtd">
<svg version="1.1" id="Layer_1" xmlns="http://www.w3.org/2000/svg" xmlns:xlink="http://www.w3.org/1999/xlink" x="0px" y="0px"
	 width="20px" height="20px" viewBox="0 0 20 20" enable-background="new 0 0 20 20" xml:space="preserve">
<path fill="#637887" d="M15,10.6H9c-0.332,0-0.6-0.268-0.6-0.6S8.668,9.4,9,9.4h6c0.331,0,0.6,0.269,0.6,0.6S15.331,10.6,15,10.6z"
	/>
<path fill="#637887" d="M14,12.6c-0.153,0-0.307-0.059-0.424-0.176c-0.234-0.233-0.234-0.614,0-0.848L15.151,10l-1.575-1.576
	c-0.234-0.234-0.234-0.614,0-0.849s0.613-0.234,0.848,0l2,2c0.234,0.234,0.234,0.614,0,0.849l-2,2
	C14.307,12.541,14.153,12.6,14,12.6z"/>
<path fill="#637887" d="M12,16.6H7c-1.434,0-2.6-1.166-2.6-2.6V6c0-1.434,1.167-2.6,2.6-2.6h5c0.331,0,0.6,0.269,0.6,0.6
	S12.331,4.6,12,4.6H7C6.228,4.6,5.6,5.228,5.6,6v8c0,0.771,0.628,1.4,1.4,1.4h5c0.331,0,0.6,0.269,0.6,0.6S12.331,16.6,12,16.6z"/>
</svg>
