<?xml version="1.0" encoding="utf-8"?>
<!-- Generator: Adobe Illustrator 16.0.0, SVG Export Plug-In . SVG Version: 6.00 Build 0)  -->
<!DOCTYPE svg PUBLIC "-//W3C//DTD SVG 1.1//EN" "http://www.w3.org/Graphics/SVG/1.1/DTD/svg11.dtd">
<svg version="1.1" id="Layer_1" xmlns="http://www.w3.org/2000/svg" xmlns:xlink="http://www.w3.org/1999/xlink" x="0px" y="0px"
	 width="20px" height="20px" viewBox="0 0 20 20" enable-background="new 0 0 20 20" xml:space="preserve">
<path fill="#637887" d="M10,10.6H4c-0.332,0-0.6-0.268-0.6-0.6S3.668,9.4,4,9.4h6c0.332,0,0.6,0.269,0.6,0.6S10.332,10.6,10,10.6z"
	/>
<path fill="#637887" d="M9,12.6c-0.153,0-0.307-0.059-0.424-0.176c-0.234-0.233-0.234-0.614,0-0.848L10.151,10L8.576,8.424
	c-0.234-0.234-0.234-0.614,0-0.849s0.614-0.234,0.849,0l2,2c0.234,0.234,0.234,0.614,0,0.849l-2,2C9.307,12.541,9.153,12.6,9,12.6z"
	/>
<path fill="#637887" d="M13,16.6H8c-0.332,0-0.6-0.269-0.6-0.6s0.269-0.6,0.6-0.6h5c0.771,0,1.4-0.629,1.4-1.4V6
	c0-0.772-0.629-1.4-1.4-1.4H8C7.668,4.6,7.4,4.332,7.4,4S7.668,3.4,8,3.4h5c1.434,0,2.6,1.167,2.6,2.6v8
	C15.6,15.434,14.434,16.6,13,16.6z"/>
</svg>
