<?xml version="1.0" encoding="utf-8"?>
<!-- Generator: Adobe Illustrator 16.0.0, SVG Export Plug-In . SVG Version: 6.00 Build 0)  -->
<!DOCTYPE svg PUBLIC "-//W3C//DTD SVG 1.1//EN" "http://www.w3.org/Graphics/SVG/1.1/DTD/svg11.dtd">
<svg version="1.1" id="Layer_1" xmlns="http://www.w3.org/2000/svg" xmlns:xlink="http://www.w3.org/1999/xlink" x="0px" y="0px"
	 width="26px" height="26px" viewBox="0 0 26 26" enable-background="new 0 0 26 26" xml:space="preserve">
<path fill="#506472" d="M13,17.961c-0.497,0-0.9-0.403-0.9-0.9V13.28c0-0.497,0.403-0.9,0.9-0.9s0.9,0.403,0.9,0.9v3.781
	C13.9,17.558,13.497,17.961,13,17.961z"/>
<path fill="#506472" d="M13,10.68c0.69,0,1.25-0.56,1.25-1.25c0-0.69-0.56-1.25-1.25-1.25s-1.25,0.56-1.25,1.25
	C11.75,10.12,12.31,10.68,13,10.68z"/>
<path fill="#506472" d="M13,22.221c-5.084,0-9.22-4.137-9.22-9.221S7.916,3.78,13,3.78s9.221,4.136,9.221,9.22
	S18.084,22.221,13,22.221z M13,5.58c-4.091,0-7.42,3.329-7.42,7.42c0,4.092,3.329,7.42,7.42,7.42c4.092,0,7.42-3.328,7.42-7.42
	C20.42,8.909,17.092,5.58,13,5.58z"/>
</svg>
