<?xml version="1.0" encoding="utf-8"?>
<!-- Generator: Adobe Illustrator 16.0.0, SVG Export Plug-In . SVG Version: 6.00 Build 0)  -->
<!DOCTYPE svg PUBLIC "-//W3C//DTD SVG 1.1//EN" "http://www.w3.org/Graphics/SVG/1.1/DTD/svg11.dtd">
<svg version="1.1" id="Layer_1" xmlns="http://www.w3.org/2000/svg" xmlns:xlink="http://www.w3.org/1999/xlink" x="0px" y="0px"
	 width="26px" height="26px" viewBox="0 0 26 26" enable-background="new 0 0 26 26" xml:space="preserve">
<path fill="#506472" d="M13.98,21.16H4.7c-1.092,0-1.98-0.889-1.98-1.98v-3.039c0-1.092,0.888-1.98,1.98-1.98h9.28
	c1.092,0,1.98,0.889,1.98,1.98v3.039C15.961,20.271,15.072,21.16,13.98,21.16z M4.7,15.961c-0.099,0-0.18,0.08-0.18,0.18v3.039
	c0,0.1,0.081,0.18,0.18,0.18h9.28c0.1,0,0.18-0.08,0.18-0.18v-3.039c0-0.1-0.08-0.18-0.18-0.18H4.7z"/>
<path fill="#506472" d="M19.221,17c-0.497,0-0.9-0.403-0.9-0.9V12c-0.001-0.041-0.024-0.096-0.066-0.137
	C18.213,11.823,18.157,11.8,18.1,11.8H7.78c-0.497,0-0.9-0.403-0.9-0.9S7.283,10,7.78,10H18.1c0.533,0,1.036,0.206,1.416,0.579
	c0.379,0.372,0.595,0.871,0.604,1.403l0.001,4.118C20.121,16.597,19.718,17,19.221,17z"/>
<path fill="#506472" d="M23.38,12.84c-0.497,0-0.9-0.403-0.9-0.9V7.86c0-0.059-0.022-0.114-0.064-0.156
	c-0.04-0.04-0.097-0.063-0.155-0.063H11.94c-0.497,0-0.9-0.403-0.9-0.9s0.403-0.9,0.9-0.9h10.32c0.532,0,1.053,0.215,1.429,0.591
	c0.382,0.382,0.592,0.89,0.592,1.428v4.08C24.28,12.437,23.877,12.84,23.38,12.84z"/>
</svg>
