<svg width="26" height="26" viewBox="0 0 26 26" fill="none" xmlns="http://www.w3.org/2000/svg">
<path d="M13 22.22C10.72 22.22 8.46 22.14 7 22C5.71762 21.9182 4.50729 21.3784 3.58953 20.479C2.67178 19.5796 2.10767 18.3805 2 17.1C1.87 15.87 2 12.31 2 12.16C2.00138 11.9081 2.0559 11.6594 2.16 11.43C2.81 9.86 4.57 6.1 6.55 5.11C8.84 4 17.16 4 19.45 5.11C21.45 6.11 23.19 9.86 23.85 11.43C23.9503 11.6672 24.0014 11.9224 24 12.18C24 12.62 24.13 15.88 24 17.11C23.889 18.373 23.3355 19.5561 22.4371 20.4508C21.5388 21.3454 20.3534 21.8941 19.09 22C17.52 22.14 15.23 22.22 13 22.22ZM13.05 6.22C11.1774 6.128 9.30248 6.34421 7.5 6.86C6.38 7.43 5 9.94 4 12.2C4 13.2 3.9 15.98 4 16.89C4.05772 17.694 4.40258 18.4505 4.97167 19.0215C5.54076 19.5924 6.29615 19.9397 7.1 20C11.0313 20.29 14.9787 20.29 18.91 20C19.7135 19.9415 20.4688 19.5945 21.0367 19.0229C21.6045 18.4514 21.9466 17.6939 22 16.89C22.1 15.96 22 13.22 22 12.24C21.05 9.99 19.62 7.48 18.55 6.94C16.7503 6.40733 14.8753 6.17422 13 6.25L13.05 6.22Z" fill="#007FC5"/>
<path d="M13 17.25C11.9801 17.3338 10.9615 17.0729 10.1075 16.509C9.25352 15.9451 8.61351 15.1109 8.29 14.14C6.59446 13.9257 4.87693 13.956 3.19 14.23C2.92479 14.2804 2.65042 14.2234 2.42725 14.0715C2.20408 13.9196 2.05039 13.6852 2 13.42C1.94961 13.1548 2.00664 12.8804 2.15855 12.6572C2.31045 12.4341 2.54479 12.2804 2.81 12.23C4.92473 11.8693 7.08528 11.8693 9.2 12.23C9.35783 12.2616 9.50571 12.3308 9.63106 12.4318C9.75641 12.5328 9.85553 12.6625 9.92 12.81L10.04 13.1C10.1867 13.7625 10.5758 14.3463 11.1309 14.7367C11.6859 15.1271 12.3669 15.2959 13.04 15.21C13.3052 15.21 13.5596 15.3154 13.7471 15.5029C13.9346 15.6904 14.04 15.9448 14.04 16.21C14.04 16.4752 13.9346 16.7296 13.7471 16.9171C13.5596 17.1046 13.3052 17.21 13.04 17.21L13 17.25Z" fill="#007FC5"/>
<path d="M13 17.25C12.7348 17.25 12.4804 17.1446 12.2929 16.9571C12.1054 16.7696 12 16.5152 12 16.25C12 15.9848 12.1054 15.7304 12.2929 15.5429C12.4804 15.3554 12.7348 15.25 13 15.25C13.6731 15.3359 14.3541 15.1671 14.9091 14.7767C15.4642 14.3863 15.8533 13.8025 16 13.14L16.12 12.85C16.1845 12.7025 16.2836 12.5728 16.4089 12.4718C16.5343 12.3708 16.6822 12.3016 16.84 12.27C18.9547 11.9093 21.1153 11.9093 23.23 12.27C23.4952 12.3204 23.7296 12.4741 23.8815 12.6972C24.0334 12.9204 24.0904 13.1948 24.04 13.46C23.9896 13.7252 23.8359 13.9596 23.6128 14.1115C23.3896 14.2634 23.1152 14.3204 22.85 14.27C21.1631 13.9959 19.4455 13.9656 17.75 14.18C17.4177 15.1506 16.7686 15.9812 15.907 16.5381C15.0454 17.0949 14.0214 17.3457 13 17.25Z" fill="#007FC5"/>
</svg>
