<svg width="26" height="26" viewBox="0 0 26 26" fill="none" xmlns="http://www.w3.org/2000/svg">
<path d="M13 23.91C12.5618 23.9087 12.1242 23.8787 11.69 23.82C11.3613 23.7765 11.0494 23.6487 10.7848 23.4489C10.5202 23.2491 10.3118 22.9842 10.18 22.68L9.38999 20.9C8.87012 20.6799 8.37696 20.4015 7.91999 20.07L5.99999 20.28C5.66424 20.3194 5.32402 20.27 5.01339 20.1366C4.70276 20.0032 4.43261 19.7906 4.22999 19.52C3.73251 18.8284 3.31958 18.0797 2.99999 17.29C2.87646 16.9793 2.83278 16.6426 2.87296 16.3107C2.91314 15.9788 3.03589 15.6622 3.22999 15.39L4.37999 13.83C4.32345 13.5569 4.29331 13.2789 4.28999 13C4.27478 12.7135 4.27478 12.4265 4.28999 12.14L3.20999 10.61C3.01745 10.3349 2.89728 10.0157 2.86058 9.68187C2.82388 9.34807 2.87182 9.0104 2.99999 8.7C3.33126 7.91304 3.75418 7.1679 4.25999 6.48C4.45925 6.21336 4.72442 6.0031 5.02946 5.86986C5.33451 5.73662 5.66896 5.68498 5.99999 5.72L7.99999 5.93C8.44512 5.58334 8.93232 5.29438 9.44999 5.07L10.21 3.32C10.3418 3.01577 10.5502 2.75087 10.8148 2.55109C11.0794 2.35131 11.3913 2.22347 11.72 2.18C12.5892 2.06002 13.4708 2.06002 14.34 2.18C14.6687 2.22347 14.9805 2.35131 15.2452 2.55109C15.5098 2.75087 15.7182 3.01577 15.85 3.32L16.64 5.1C17.1599 5.32008 17.653 5.59853 18.11 5.93L20 5.72C20.3358 5.67954 20.6764 5.72851 20.9872 5.86197C21.298 5.99543 21.5681 6.20863 21.77 6.48C22.2675 7.17162 22.6804 7.92027 23 8.71C23.1235 9.02068 23.1672 9.35738 23.127 9.6893C23.0868 10.0212 22.9641 10.3378 22.77 10.61L21.62 12.17C21.6698 12.4438 21.6933 12.7217 21.69 13C21.6886 13.2874 21.6719 13.5744 21.64 13.86L22.77 15.39C22.9658 15.6634 23.0895 15.9817 23.1297 16.3155C23.1699 16.6494 23.1253 16.988 23 17.3C22.6624 18.0879 22.2328 18.8331 21.72 19.52C21.5181 19.7914 21.248 20.0046 20.9372 20.138C20.6264 20.2715 20.2858 20.3205 19.95 20.28L18 20.07C17.5549 20.4167 17.0676 20.7056 16.55 20.93L15.79 22.68C15.6581 22.9842 15.4498 23.2491 15.1852 23.4489C14.9205 23.6487 14.6087 23.7765 14.28 23.82C13.8557 23.8774 13.4281 23.9074 13 23.91ZM7.99999 18.07C8.40888 18.0739 8.80675 18.203 9.13999 18.44C9.49988 18.7013 9.88515 18.9258 10.29 19.11C10.734 19.3104 11.0896 19.666 11.29 20.11L12 21.87C12.682 21.9292 13.3679 21.9292 14.05 21.87L14.77 20.12C14.9704 19.676 15.326 19.3204 15.77 19.12C16.1748 18.9358 16.5601 18.7113 16.92 18.45C17.3094 18.1739 17.7847 18.0463 18.26 18.09L20.2 18.3C20.5932 17.7423 20.9283 17.1459 21.2 16.52L20 15C19.7169 14.6025 19.5888 14.1153 19.64 13.63C19.64 13.42 19.64 13.21 19.64 12.99C19.64 12.77 19.64 12.56 19.64 12.34C19.5962 11.8647 19.7239 11.3894 20 11L21.14 9.44C20.8647 8.83485 20.5297 8.25867 20.14 7.72L18.23 7.93C17.7542 7.9793 17.277 7.85109 16.89 7.57C16.5301 7.30866 16.1448 7.0842 15.74 6.9C15.296 6.69957 14.9404 6.34399 14.74 5.9L14 4.13C13.3179 4.07083 12.632 4.07083 11.95 4.13L11.23 5.88C11.0296 6.32399 10.674 6.67957 10.23 6.88C9.82515 7.0642 9.43988 7.28866 9.07999 7.55C8.69059 7.82606 8.2153 7.95375 7.73999 7.91L5.80999 7.71C5.4168 8.26766 5.08172 8.8641 4.80999 9.49L5.99999 11C6.2831 11.3975 6.41114 11.8847 6.35999 12.37C6.35999 12.58 6.35999 12.79 6.35999 13.01C6.35999 13.23 6.35999 13.44 6.35999 13.66C6.40373 14.1353 6.27605 14.6106 5.99999 15L4.82999 16.57C5.09857 17.1912 5.43388 17.7813 5.82999 18.33L7.70999 18.08L7.99999 18.07Z" fill="#B1DFF9"/>
<path d="M13 16.82C11.9343 16.9119 10.8708 16.6212 9.99999 16C9.37703 15.1286 9.07333 14.0691 9.13999 13C9.07333 11.9309 9.37703 10.8714 9.99999 10C11.14 8.86 14.8 8.86 15.94 10C16.5629 10.8714 16.8666 11.9309 16.8 13C16.8841 14.0621 16.6017 15.1209 16 16C15.1292 16.6212 14.0657 16.9119 13 16.82ZM13 11.17C12.4581 11.1272 11.9142 11.2236 11.42 11.45C11.0547 12.4545 11.0547 13.5555 11.42 14.56C12.4212 14.9246 13.5188 14.9246 14.52 14.56C14.8896 13.5563 14.8896 12.4537 14.52 11.45C14.0447 11.2311 13.5221 11.1348 13 11.17Z" fill="#B1DFF9"/>
</svg>
