<svg width="26" height="26" viewBox="0 0 26 26" fill="none" xmlns="http://www.w3.org/2000/svg">
<path d="M13 22.57C12.1 22.5687 11.2177 22.3196 10.45 21.85C9.61181 21.3589 8.66935 21.073 7.69958 21.0156C6.72981 20.9583 5.76022 21.1311 4.86999 21.52C4.57334 21.6538 4.24922 21.7153 3.92418 21.6997C3.59914 21.6841 3.28243 21.5916 2.99999 21.43C2.70769 21.2616 2.46271 21.022 2.28787 20.7336C2.11303 20.4451 2.014 20.117 1.99999 19.78C1.82999 16 1.78999 10.23 1.99999 7.91C2.12368 7.06388 2.47585 6.26754 3.01859 5.60675C3.56132 4.94596 4.27404 4.44575 5.07999 4.16C6.3535 3.6204 7.73836 3.39592 9.11711 3.50559C10.4959 3.61526 11.8278 4.05586 13 4.79C14.1533 4.0661 15.4631 3.6285 16.8199 3.51368C18.1768 3.39887 19.5414 3.61019 20.8 4.13C21.6199 4.41198 22.3492 4.90858 22.912 5.56811C23.4748 6.22764 23.8505 7.02597 24 7.88C24.2518 11.8493 24.2518 15.8307 24 19.8C23.9782 20.1338 23.8759 20.4574 23.7017 20.743C23.5276 21.0286 23.2868 21.2678 23 21.44C22.7128 21.6102 22.3875 21.7057 22.0539 21.7179C21.7203 21.7301 21.3889 21.6587 21.09 21.51C20.2069 21.1132 19.2409 20.9359 18.2745 20.9934C17.308 21.0508 16.3698 21.3413 15.54 21.84C14.7837 22.3282 13.9001 22.5821 13 22.57ZM7.28999 19C8.77755 18.9873 10.2403 19.3815 11.52 20.14C11.963 20.4093 12.4715 20.5517 12.99 20.5517C13.5085 20.5517 14.017 20.4093 14.46 20.14C15.5834 19.4514 16.8594 19.0509 18.1748 18.9742C19.4902 18.8974 20.8042 19.1467 22 19.7C22.2698 15.8414 22.2698 11.9686 22 8.11C21.8728 7.61761 21.6225 7.16564 21.2727 6.79655C20.9228 6.42745 20.4849 6.15335 20 6C18.9498 5.57556 17.8077 5.42986 16.6845 5.57704C15.5614 5.72422 14.4954 6.15929 13.59 6.84C13.4169 6.96982 13.2064 7.04 12.99 7.04C12.7736 7.04 12.5631 6.96982 12.39 6.84C11.4709 6.15147 10.3894 5.71228 9.25047 5.5651C8.11155 5.41792 6.95392 5.56773 5.88999 6C5.41985 6.15293 4.99798 6.42635 4.66638 6.79304C4.33477 7.15973 4.10502 7.6069 3.99999 8.09C3.79999 10.26 3.82999 16.01 3.99999 19.69C5.03542 19.2296 6.15684 18.9944 7.28999 19Z" fill="#B1DFF9"/>
<path d="M13 16.53C12.7348 16.53 12.4804 16.4246 12.2929 16.2371C12.1054 16.0496 12 15.7952 12 15.53V6C12 5.73478 12.1054 5.48043 12.2929 5.29289C12.4804 5.10536 12.7348 5 13 5C13.2652 5 13.5196 5.10536 13.7071 5.29289C13.8946 5.48043 14 5.73478 14 6V15.53C14 15.6613 13.9741 15.7914 13.9239 15.9127C13.8736 16.034 13.8 16.1442 13.7071 16.2371C13.6142 16.33 13.504 16.4036 13.3827 16.4539C13.2614 16.5041 13.1313 16.53 13 16.53Z" fill="#B1DFF9"/>
</svg>
