<svg width="26" height="26" viewBox="0 0 26 26" fill="none" xmlns="http://www.w3.org/2000/svg">
<path d="M5.72 25.56C5.45478 25.56 5.20043 25.4546 5.01289 25.2671C4.82536 25.0796 4.72 24.8252 4.72 24.56V20.05C4.57006 19.9495 4.42949 19.8357 4.3 19.71C1.9 17.31 1.9 10.71 4.3 8.29C6.7 5.87 16.36 5.94 18.72 8.29C21.08 10.64 21.12 17.29 18.72 19.71C17.19 21.24 13.5 21.47 11.72 21.49C10.09 24 7.72 25.56 5.72 25.56ZM11.5 8.49C9.01 8.49 6.5 8.9 5.71 9.71C4.1 11.31 4.1 16.71 5.71 18.29C5.84787 18.4193 6.00682 18.5242 6.18 18.6C6.33968 18.685 6.4733 18.8118 6.56664 18.9667C6.65997 19.1217 6.70952 19.2991 6.71 19.48V23.35C8.24297 22.6364 9.51784 21.4663 10.36 20C10.4497 19.8526 10.5761 19.7309 10.7268 19.6468C10.8775 19.5627 11.0474 19.519 11.22 19.52C14.4 19.52 16.67 18.95 17.29 18.32C18.9 16.72 18.9 11.32 17.29 9.74C16.48 8.9 14 8.49 11.5 8.49Z" fill="#B1DFF9"/>
<path d="M23 11.91C22.8684 11.9108 22.7379 11.8855 22.6161 11.8358C22.4943 11.786 22.3834 11.7127 22.29 11.62C22.1038 11.4326 21.9992 11.1792 21.9992 10.915C21.9992 10.6508 22.1038 10.3974 22.29 10.21C23.29 9.21 23.29 5.8 22.29 4.81C21.29 3.82 15.83 3.81 14.86 4.81C14.7674 4.90455 14.6571 4.97994 14.5354 5.03187C14.4137 5.08379 14.2829 5.11124 14.1506 5.11263C14.0183 5.11402 13.887 5.08934 13.7642 5.03999C13.6414 4.99064 13.5296 4.91758 13.435 4.825C13.3405 4.73242 13.2651 4.62212 13.2131 4.5004C13.1612 4.37869 13.1338 4.24793 13.1324 4.11561C13.131 3.98329 13.1557 3.85198 13.205 3.7292C13.2544 3.60642 13.3274 3.49455 13.42 3.4C15.2 1.63 21.91 1.63 23.69 3.4C25.47 5.17 25.45 9.85 23.69 11.62C23.5062 11.8023 23.2589 11.9063 23 11.91Z" fill="#B1DFF9"/>
</svg>
