<svg width="26" height="26" viewBox="0 0 26 26" fill="none" xmlns="http://www.w3.org/2000/svg">
<path d="M9.08999 15.34C7.09491 15.4213 5.10111 15.1505 3.19999 14.54C3.03508 14.4569 2.8964 14.3298 2.79932 14.1727C2.70224 14.0156 2.65055 13.8347 2.64999 13.65C2.67609 10.7407 3.84339 7.95794 5.90066 5.90067C7.95793 3.8434 10.7407 2.6761 13.65 2.65C13.8347 2.65056 14.0156 2.70225 14.1727 2.79932C14.3298 2.8964 14.4569 3.03509 14.54 3.2C15.54 5.12 15.77 12.94 14.36 14.35C13.66 15.05 11.42 15.34 9.08999 15.34ZM4.64999 12.95C6.72999 13.48 11.87 13.42 12.9 12.95C13.39 11.95 13.45 6.79 12.9 4.7C10.7737 4.89905 8.78517 5.83957 7.28241 7.35695C5.77966 8.87433 4.85844 10.8719 4.67999 13L4.64999 12.95Z" fill="#B1DFF9"/>
<path d="M14 24C12.0551 23.999 10.1527 23.4309 8.52577 22.3652C6.89883 21.2995 5.61796 19.7825 4.84 18C4.77915 17.8786 4.74364 17.7462 4.73564 17.6106C4.72764 17.4751 4.74732 17.3394 4.79348 17.2117C4.83964 17.0841 4.91131 16.9671 5.00412 16.868C5.09694 16.769 5.20895 16.6898 5.33335 16.6355C5.45774 16.5811 5.5919 16.5526 5.72765 16.5518C5.86341 16.5509 5.99791 16.5777 6.12298 16.6305C6.24804 16.6833 6.36103 16.7611 6.45508 16.859C6.54913 16.9569 6.62225 17.0729 6.67 17.2C7.07198 18.112 7.63804 18.9425 8.34 19.65C9.16532 20.4833 10.1638 21.1249 11.2646 21.5294C12.3655 21.934 13.5418 22.0915 14.7103 21.9909C15.8788 21.8903 17.0109 21.5339 18.0264 20.9472C19.0419 20.3604 19.9159 19.5575 20.5866 18.5954C21.2574 17.6333 21.7083 16.5355 21.9076 15.3797C22.1069 14.224 22.0496 13.0385 21.7399 11.9074C21.4301 10.7762 20.8754 9.72696 20.115 8.83399C19.3547 7.94101 18.4073 7.22614 17.34 6.74C17.0987 6.62861 16.9114 6.4259 16.8196 6.17648C16.7277 5.92706 16.7386 5.65135 16.85 5.41C16.9614 5.16865 17.1641 4.98144 17.4135 4.88955C17.6629 4.79765 17.9387 4.80861 18.18 4.92C19.6384 5.59861 20.9116 6.61905 21.8916 7.8947C22.8715 9.17036 23.5292 10.6636 23.809 12.2477C24.0887 13.8317 23.9821 15.4599 23.4983 16.994C23.0146 18.5282 22.1678 19.9229 21.03 21.06C20.1095 21.9888 19.0146 22.7266 17.8082 23.2312C16.6018 23.7357 15.3077 23.997 14 24Z" fill="#B1DFF9"/>
</svg>
