<?xml version="1.0" encoding="utf-8"?>
<!-- Generator: Adobe Illustrator 16.0.0, SVG Export Plug-In . SVG Version: 6.00 Build 0)  -->
<!DOCTYPE svg PUBLIC "-//W3C//DTD SVG 1.1//EN" "http://www.w3.org/Graphics/SVG/1.1/DTD/svg11.dtd">
<svg version="1.1" id="Layer_1" xmlns="http://www.w3.org/2000/svg" xmlns:xlink="http://www.w3.org/1999/xlink" x="0px" y="0px"
	 width="30px" height="30px" viewBox="0 0 30 30" enable-background="new 0 0 30 30" xml:space="preserve">
<path fill="#0FA869" d="M15,26.9C8.438,26.9,3.1,21.562,3.1,15S8.438,3.1,15,3.1S26.9,8.438,26.9,15S21.562,26.9,15,26.9z M15,4.9
	C9.431,4.9,4.9,9.431,4.9,15S9.431,25.1,15,25.1s10.1-4.53,10.1-10.1S20.569,4.9,15,4.9z"/>
<path fill="#0FA869" d="M12,14.5c0.829,0,1.5-0.671,1.5-1.5s-0.671-1.5-1.5-1.5s-1.5,0.671-1.5,1.5S11.171,14.5,12,14.5z"/>
<path fill="#0FA869" d="M18,14.5c0.828,0,1.5-0.671,1.5-1.5s-0.672-1.5-1.5-1.5s-1.5,0.671-1.5,1.5S17.172,14.5,18,14.5z"/>
<path fill="#0FA869" d="M15.015,21.295c-0.815,0-1.635-0.184-2.371-0.53c-0.749-0.354-1.394-0.856-1.918-1.491
	c-0.316-0.384-0.262-0.951,0.122-1.268c0.383-0.317,0.95-0.261,1.267,0.121c0.354,0.431,0.792,0.77,1.298,1.01
	c0.993,0.467,2.21,0.47,3.206-0.001c0.507-0.239,0.943-0.578,1.296-1.008c0.316-0.383,0.883-0.439,1.268-0.123
	c0.384,0.316,0.438,0.884,0.123,1.268c-0.517,0.627-1.18,1.143-1.918,1.491C16.65,21.111,15.83,21.295,15.015,21.295z"/>
</svg>
