<?xml version="1.0" encoding="utf-8"?>
<!-- Generator: Adobe Illustrator 16.0.0, SVG Export Plug-In . SVG Version: 6.00 Build 0)  -->
<!DOCTYPE svg PUBLIC "-//W3C//DTD SVG 1.1//EN" "http://www.w3.org/Graphics/SVG/1.1/DTD/svg11.dtd">
<svg version="1.1" id="Layer_1" xmlns="http://www.w3.org/2000/svg" xmlns:xlink="http://www.w3.org/1999/xlink" x="0px" y="0px"
	 width="30px" height="30px" viewBox="0 0 30 30" enable-background="new 0 0 30 30" xml:space="preserve">
<path fill="#EB3143" d="M15,26.9C8.438,26.9,3.1,21.562,3.1,15S8.438,3.1,15,3.1S26.9,8.438,26.9,15S21.562,26.9,15,26.9z M15,4.9
	C9.431,4.9,4.9,9.431,4.9,15S9.431,25.1,15,25.1s10.1-4.53,10.1-10.1S20.569,4.9,15,4.9z"/>
<path fill="#EB3143" d="M12,14.5c0.829,0,1.5-0.671,1.5-1.5s-0.671-1.5-1.5-1.5s-1.5,0.671-1.5,1.5S11.171,14.5,12,14.5z"/>
<path fill="#EB3143" d="M18,14.5c0.828,0,1.5-0.671,1.5-1.5s-0.672-1.5-1.5-1.5s-1.5,0.671-1.5,1.5S17.172,14.5,18,14.5z"/>
<path fill="#EB3143" d="M18,19.971c-0.204,0-0.41-0.069-0.578-0.211c-1.355-1.137-3.487-1.137-4.844,0
	c-0.381,0.319-0.95,0.271-1.268-0.111c-0.319-0.381-0.27-0.948,0.111-1.268c2.002-1.679,5.154-1.68,7.156,0
	c0.381,0.319,0.431,0.887,0.111,1.268C18.512,19.861,18.257,19.971,18,19.971z"/>
</svg>
