<svg width="26" height="26" viewBox="0 0 26 26" fill="none" xmlns="http://www.w3.org/2000/svg">
<path d="M13 21.9C11.2397 21.9 9.519 21.378 8.0554 20.4001C6.59181 19.4221 5.45107 18.0321 4.77745 16.4059C4.10383 14.7796 3.92758 12.9901 4.27099 11.2637C4.6144 9.53726 5.46204 7.95143 6.70673 6.70674C7.95142 5.46206 9.53724 4.61441 11.2637 4.27101C12.9901 3.9276 14.7796 4.10385 16.4059 4.77747C18.0321 5.45109 19.4221 6.59182 20.4001 8.05542C21.378 9.51902 21.9 11.2397 21.9 13C21.8973 15.3596 20.9588 17.6218 19.2903 19.2903C17.6218 20.9588 15.3596 21.8973 13 21.9ZM13 5.9C11.5957 5.9 10.223 6.3164 9.05543 7.09656C7.88784 7.87672 6.97782 8.98559 6.44044 10.2829C5.90305 11.5803 5.76245 13.0079 6.0364 14.3851C6.31036 15.7624 6.98657 17.0275 7.97952 18.0205C8.97247 19.0134 10.2376 19.6896 11.6148 19.9636C12.9921 20.2375 14.4197 20.0969 15.717 19.5595C17.0144 19.0222 18.1233 18.1121 18.9034 16.9445C19.6836 15.777 20.1 14.4042 20.1 13C20.1 12.0676 19.9163 11.1444 19.5595 10.2829C19.2027 9.42153 18.6797 8.63883 18.0204 7.97954C17.3611 7.32024 16.5784 6.79726 15.717 6.44045C14.8556 6.08364 13.9324 5.9 13 5.9Z" fill="#0FA869"/>
<path d="M10.82 12.75C11.4827 12.75 12.02 12.2127 12.02 11.55C12.02 10.8873 11.4827 10.35 10.82 10.35C10.1573 10.35 9.62 10.8873 9.62 11.55C9.62 12.2127 10.1573 12.75 10.82 12.75Z" fill="#0FA869"/>
<path d="M15.18 12.75C15.8427 12.75 16.38 12.2127 16.38 11.55C16.38 10.8873 15.8427 10.35 15.18 10.35C14.5172 10.35 13.98 10.8873 13.98 11.55C13.98 12.2127 14.5172 12.75 15.18 12.75Z" fill="#0FA869"/>
<path d="M13 17.83C12.3722 17.8303 11.7521 17.6925 11.1835 17.4264C10.6149 17.1602 10.1119 16.7723 9.70998 16.29C9.63052 16.199 9.57021 16.0929 9.53262 15.9781C9.49504 15.8633 9.48097 15.742 9.49123 15.6217C9.5015 15.5013 9.53589 15.3842 9.59237 15.2774C9.64885 15.1706 9.72626 15.0762 9.81998 15C10.0051 14.8495 10.242 14.7778 10.4795 14.8002C10.7171 14.8227 10.9363 14.9375 11.09 15.12C11.3319 15.3896 11.628 15.6052 11.9588 15.7528C12.2896 15.9004 12.6477 15.9766 13.01 15.9766C13.3722 15.9766 13.7304 15.9004 14.0612 15.7528C14.392 15.6052 14.688 15.3896 14.93 15.12C15.0025 15.0218 15.0942 14.9395 15.1995 14.8779C15.3049 14.8163 15.4216 14.7767 15.5427 14.7617C15.6638 14.7466 15.7867 14.7563 15.9039 14.7902C16.0211 14.8241 16.1302 14.8815 16.2246 14.9589C16.3189 15.0363 16.3966 15.132 16.4528 15.2403C16.509 15.3487 16.5425 15.4673 16.5515 15.589C16.5604 15.7107 16.5445 15.8329 16.5047 15.9483C16.4649 16.0636 16.402 16.1697 16.32 16.26C15.9178 16.7517 15.4112 17.1476 14.8369 17.4192C14.2627 17.6907 13.6352 17.8311 13 17.83Z" fill="#0FA869"/>
</svg>
