<svg width="26" height="26" viewBox="0 0 26 26" fill="none" xmlns="http://www.w3.org/2000/svg">
<path d="M13 21.9C11.2397 21.9 9.519 21.378 8.0554 20.4001C6.59181 19.4221 5.45107 18.0321 4.77745 16.4059C4.10383 14.7796 3.92758 12.9901 4.27099 11.2637C4.6144 9.53726 5.46204 7.95143 6.70673 6.70674C7.95142 5.46206 9.53724 4.61441 11.2637 4.27101C12.9901 3.9276 14.7796 4.10385 16.4059 4.77747C18.0321 5.45109 19.4221 6.59182 20.4001 8.05542C21.378 9.51902 21.9 11.2397 21.9 13C21.8973 15.3596 20.9588 17.6218 19.2903 19.2903C17.6218 20.9588 15.3596 21.8973 13 21.9ZM13 5.9C11.5957 5.9 10.223 6.3164 9.05543 7.09656C7.88784 7.87672 6.97782 8.98559 6.44044 10.2829C5.90305 11.5803 5.76245 13.0079 6.0364 14.3851C6.31036 15.7624 6.98657 17.0275 7.97952 18.0205C8.97247 19.0134 10.2376 19.6896 11.6148 19.9636C12.9921 20.2375 14.4197 20.0969 15.717 19.5595C17.0144 19.0222 18.1233 18.1121 18.9034 16.9445C19.6836 15.777 20.1 14.4042 20.1 13C20.1 12.0676 19.9163 11.1444 19.5595 10.2829C19.2027 9.42153 18.6797 8.63883 18.0204 7.97954C17.3611 7.32024 16.5784 6.79726 15.717 6.44045C14.8556 6.08364 13.9324 5.9 13 5.9Z" fill="#9AA7B2"/>
<path d="M10.82 12.75C11.4827 12.75 12.02 12.2127 12.02 11.55C12.02 10.8873 11.4827 10.35 10.82 10.35C10.1573 10.35 9.62 10.8873 9.62 11.55C9.62 12.2127 10.1573 12.75 10.82 12.75Z" fill="#9AA7B2"/>
<path d="M15.18 12.75C15.8427 12.75 16.38 12.2127 16.38 11.55C16.38 10.8873 15.8427 10.35 15.18 10.35C14.5172 10.35 13.98 10.8873 13.98 11.55C13.98 12.2127 14.5172 12.75 15.18 12.75Z" fill="#9AA7B2"/>
<path d="M15.18 16.81H10.82C10.5813 16.81 10.3524 16.7152 10.1836 16.5464C10.0148 16.3776 9.91998 16.1487 9.91998 15.91C9.91998 15.6713 10.0148 15.4424 10.1836 15.2736C10.3524 15.1048 10.5813 15.01 10.82 15.01H15.18C15.4187 15.01 15.6476 15.1048 15.8164 15.2736C15.9852 15.4424 16.08 15.6713 16.08 15.91C16.08 16.1487 15.9852 16.3776 15.8164 16.5464C15.6476 16.7152 15.4187 16.81 15.18 16.81Z" fill="#9AA7B2"/>
</svg>
