<?xml version="1.0" encoding="utf-8"?>
<!-- Generator: Adobe Illustrator 16.0.0, SVG Export Plug-In . SVG Version: 6.00 Build 0)  -->
<!DOCTYPE svg PUBLIC "-//W3C//DTD SVG 1.1//EN" "http://www.w3.org/Graphics/SVG/1.1/DTD/svg11.dtd">
<svg version="1.1" id="Layer_1" xmlns="http://www.w3.org/2000/svg" xmlns:xlink="http://www.w3.org/1999/xlink" x="0px" y="0px"
	 width="26px" height="26px" viewBox="0 0 26 26" enable-background="new 0 0 26 26" xml:space="preserve">
<path fill="#506472" d="M19.59,19.041h-2.779c-0.497,0-0.9-0.403-0.9-0.9s0.403-0.9,0.9-0.9h2.779c0.497,0,0.9,0.403,0.9,0.9
	S20.087,19.041,19.59,19.041z"/>
<path fill="#506472" d="M9.19,19.041H6.41c-0.497,0-0.9-0.403-0.9-0.9s0.403-0.9,0.9-0.9h2.78c0.497,0,0.9,0.403,0.9,0.9
	S9.687,19.041,9.19,19.041z"/>
<path fill="#506472" d="M21.32,24.24H4.68c-0.497,0-0.9-0.403-0.9-0.9s0.403-0.9,0.9-0.9h16.64c0.497,0,0.9,0.403,0.9,0.9
	S21.817,24.24,21.32,24.24z"/>
<path fill="#506472" d="M7.95,18.69c-0.115,0-0.232-0.022-0.345-0.069c-0.459-0.191-0.676-0.718-0.485-1.177l5.05-12.13
	c0.191-0.459,0.718-0.677,1.177-0.485c0.459,0.191,0.676,0.718,0.485,1.177l-5.05,12.13C8.637,18.481,8.302,18.69,7.95,18.69z"/>
<path fill="#506472" d="M18.05,18.68c-0.353,0-0.687-0.209-0.831-0.555L12.169,6.006c-0.191-0.459,0.025-0.986,0.484-1.177
	c0.458-0.192,0.986,0.026,1.177,0.484l5.05,12.12c0.19,0.458-0.026,0.985-0.485,1.177C18.283,18.657,18.166,18.68,18.05,18.68z"/>
<path fill="#506472" d="M16.12,15.92H9.88c-0.497,0-0.9-0.403-0.9-0.9s0.403-0.9,0.9-0.9h6.24c0.497,0,0.9,0.403,0.9,0.9
	S16.617,15.92,16.12,15.92z"/>
</svg>
