<svg width="26" height="26" viewBox="0 0 26 26" fill="none" xmlns="http://www.w3.org/2000/svg">
<path d="M5.99998 18.4C5.88303 18.4002 5.7672 18.3773 5.6591 18.3327C5.551 18.2881 5.45276 18.2226 5.36998 18.14C1.09998 13.94 1.09998 13.37 1.09998 13C1.09998 12.63 1.09998 11.88 5.37998 7.85001C5.46348 7.75986 5.56455 7.68777 5.67697 7.63816C5.7894 7.58856 5.91079 7.56251 6.03366 7.56161C6.15654 7.56071 6.2783 7.58498 6.39144 7.63292C6.50458 7.68087 6.6067 7.75148 6.69151 7.84039C6.77632 7.92931 6.84203 8.03465 6.88458 8.14993C6.92713 8.26521 6.94563 8.38798 6.93892 8.51067C6.93222 8.63337 6.90047 8.75339 6.84561 8.86335C6.79076 8.97331 6.71397 9.07086 6.61998 9.15001C5.32309 10.3454 4.11334 11.632 2.99998 13C4.13819 14.3619 5.34999 15.6605 6.62998 16.89C6.71433 16.9729 6.78134 17.0717 6.82708 17.1807C6.87282 17.2897 6.89638 17.4068 6.89638 17.525C6.89638 17.6432 6.87282 17.7603 6.82708 17.8693C6.78134 17.9783 6.71433 18.0772 6.62998 18.16C6.459 18.3186 6.23314 18.4047 5.99998 18.4Z" fill="#506472"/>
<path d="M20 18.4C19.8807 18.3996 19.7628 18.3756 19.6529 18.3292C19.543 18.2829 19.4435 18.2152 19.36 18.13C19.2756 18.0472 19.2086 17.9483 19.1629 17.8393C19.1171 17.7303 19.0936 17.6132 19.0936 17.495C19.0936 17.3768 19.1171 17.2597 19.1629 17.1507C19.2086 17.0417 19.2756 16.9429 19.36 16.86C20.6426 15.6404 21.8577 14.3519 23 13C21.8855 11.6424 20.6758 10.3658 19.38 9.18001C19.286 9.10086 19.2092 9.0033 19.1543 8.89335C19.0995 8.78339 19.0677 8.66337 19.061 8.54067C19.0543 8.41798 19.0728 8.29521 19.1154 8.17993C19.1579 8.06465 19.2236 7.95931 19.3084 7.87039C19.3933 7.78148 19.4954 7.71087 19.6085 7.66292C19.7217 7.61498 19.8434 7.59071 19.9663 7.59161C20.0892 7.59251 20.2106 7.61856 20.323 7.66816C20.4354 7.71776 20.5365 7.78986 20.62 7.88001C24.9 11.88 24.9 12.67 24.9 13.03C24.9 13.39 24.9 13.97 20.63 18.17C20.458 18.3259 20.2319 18.4084 20 18.4Z" fill="#506472"/>
<path d="M11 19.9C10.9077 19.9191 10.8124 19.9191 10.72 19.9C10.6072 19.865 10.5027 19.8076 10.4125 19.7313C10.3224 19.655 10.2485 19.5614 10.1953 19.4559C10.1421 19.3505 10.1107 19.2354 10.1029 19.1176C10.0951 18.9997 10.1112 18.8815 10.15 18.77L14.15 6.76999C14.2243 6.54456 14.3851 6.35786 14.597 6.25096C14.8089 6.14406 15.0546 6.12573 15.28 6.19999C15.5055 6.27425 15.6922 6.43502 15.7991 6.64694C15.906 6.85886 15.9243 7.10456 15.85 7.32999L11.85 19.33C11.7842 19.5009 11.6673 19.6474 11.5152 19.7494C11.363 19.8514 11.1831 19.904 11 19.9Z" fill="#506472"/>
</svg>
