<svg width="26" height="26" viewBox="0 0 26 26" fill="none" xmlns="http://www.w3.org/2000/svg">
<path d="M7.05 20.06C6.9232 20.0618 6.79754 20.036 6.6818 19.9841C6.56607 19.9323 6.46306 19.8558 6.38 19.76C6.30003 19.6726 6.23833 19.5701 6.19849 19.4585C6.15866 19.347 6.1415 19.2286 6.14802 19.1103C6.15454 18.992 6.1846 18.8762 6.23646 18.7697C6.28831 18.6632 6.36091 18.5681 6.45 18.49C7.64425 17.4295 8.59038 16.1191 9.22119 14.6518C9.85201 13.1845 10.152 11.5963 10.1 10C10.1 9.76131 10.1948 9.53239 10.3636 9.36361C10.5324 9.19483 10.7613 9.10001 11 9.10001C11.2387 9.10001 11.4676 9.19483 11.6364 9.36361C11.8052 9.53239 11.9 9.76131 11.9 10C11.9469 11.8487 11.591 13.6854 10.8571 15.3829C10.1232 17.0803 9.0289 18.5977 7.65 19.83C7.48322 19.9748 7.2708 20.0562 7.05 20.06Z" fill="#506472"/>
<path d="M18.05 20.06C17.9232 20.0618 17.7975 20.036 17.6818 19.9841C17.5661 19.9323 17.4631 19.8558 17.38 19.76C17.3 19.6726 17.2383 19.5701 17.1985 19.4585C17.1587 19.347 17.1415 19.2286 17.148 19.1103C17.1545 18.992 17.1846 18.8762 17.2365 18.7697C17.2883 18.6632 17.3609 18.5681 17.45 18.49C18.6443 17.4295 19.5904 16.1191 20.2212 14.6518C20.852 13.1845 21.152 11.5963 21.1 10C21.1 9.76131 21.1948 9.53239 21.3636 9.36361C21.5324 9.19483 21.7613 9.10001 22 9.10001C22.2387 9.10001 22.4676 9.19483 22.6364 9.36361C22.8052 9.53239 22.9 9.76131 22.9 10C22.9469 11.8487 22.591 13.6854 21.8571 15.3829C21.1232 17.0803 20.0289 18.5977 18.65 19.83C18.4832 19.9748 18.2708 20.0562 18.05 20.06Z" fill="#506472"/>
<path d="M7.49998 14.4C6.62974 14.4 5.77904 14.142 5.05547 13.6585C4.33189 13.175 3.76793 12.4878 3.43491 11.6838C3.10188 10.8798 3.01475 9.99513 3.18452 9.14161C3.3543 8.28809 3.77336 7.50409 4.38871 6.88874C5.00406 6.27339 5.78806 5.85433 6.64158 5.68455C7.4951 5.51478 8.37979 5.60191 9.18378 5.93494C9.98778 6.26796 10.675 6.83192 11.1584 7.5555C11.6419 8.27908 11.9 9.12977 11.9 10C11.9 11.167 11.4364 12.2861 10.6112 13.1113C9.78609 13.9364 8.66693 14.4 7.49998 14.4ZM7.49998 7.40001C6.98575 7.40001 6.48306 7.5525 6.05549 7.83819C5.62793 8.12388 5.29468 8.52994 5.09789 9.00503C4.9011 9.48012 4.84961 10.0029 4.94994 10.5072C5.05026 11.0116 5.29788 11.4749 5.6615 11.8385C6.02512 12.2021 6.48839 12.4497 6.99274 12.5501C7.49709 12.6504 8.01987 12.5989 8.49495 12.4021C8.97004 12.2053 9.37611 11.8721 9.6618 11.4445C9.94749 11.0169 10.1 10.5142 10.1 10C10.0973 9.31126 9.82257 8.65147 9.33555 8.16444C8.84852 7.67742 8.18873 7.40264 7.49998 7.40001Z" fill="#506472"/>
<path d="M18.5 14.4C17.6297 14.4 16.779 14.142 16.0555 13.6585C15.3319 13.175 14.7679 12.4878 14.4349 11.6838C14.1019 10.8798 14.0147 9.99513 14.1845 9.14161C14.3543 8.28809 14.7734 7.50409 15.3887 6.88874C16.0041 6.27339 16.7881 5.85433 17.6416 5.68455C18.4951 5.51478 19.3798 5.60191 20.1838 5.93494C20.9878 6.26796 21.675 6.83192 22.1584 7.5555C22.6419 8.27908 22.9 9.12977 22.9 10C22.9 11.167 22.4364 12.2861 21.6112 13.1113C20.7861 13.9364 19.6669 14.4 18.5 14.4ZM18.5 7.40001C17.9857 7.40001 17.4831 7.5525 17.0555 7.83819C16.6279 8.12388 16.2947 8.52994 16.0979 9.00503C15.9011 9.48012 15.8496 10.0029 15.9499 10.5072C16.0503 11.0116 16.2979 11.4749 16.6615 11.8385C17.0251 12.2021 17.4884 12.4497 17.9927 12.5501C18.4971 12.6504 19.0199 12.5989 19.495 12.4021C19.97 12.2053 20.3761 11.8721 20.6618 11.4445C20.9475 11.0169 21.1 10.5142 21.1 10C21.0973 9.31126 20.8226 8.65147 20.3355 8.16444C19.8485 7.67742 19.1887 7.40264 18.5 7.40001Z" fill="#506472"/>
</svg>
