<svg width="26" height="26" viewBox="0 0 26 26" fill="none" xmlns="http://www.w3.org/2000/svg">
<path d="M6.32001 18.91H5.68001C5.24371 18.91 4.89001 19.2637 4.89001 19.7V20.34C4.89001 20.7763 5.24371 21.13 5.68001 21.13H6.32001C6.75632 21.13 7.11001 20.7763 7.11001 20.34V19.7C7.11001 19.2637 6.75632 18.91 6.32001 18.91Z" fill="#506472"/>
<path d="M6.32001 11.89H5.68001C5.24371 11.89 4.89001 12.2437 4.89001 12.68V13.32C4.89001 13.7563 5.24371 14.11 5.68001 14.11H6.32001C6.75632 14.11 7.11001 13.7563 7.11001 13.32V12.68C7.11001 12.2437 6.75632 11.89 6.32001 11.89Z" fill="#506472"/>
<path d="M6.32001 4.89001H5.68001C5.24371 4.89001 4.89001 5.24371 4.89001 5.68001V6.32001C4.89001 6.75632 5.24371 7.11001 5.68001 7.11001H6.32001C6.75632 7.11001 7.11001 6.75632 7.11001 6.32001V5.68001C7.11001 5.24371 6.75632 4.89001 6.32001 4.89001Z" fill="#506472"/>
<path d="M20 13.9H11.1C10.8613 13.9 10.6324 13.8052 10.4636 13.6364C10.2948 13.4676 10.2 13.2387 10.2 13C10.2 12.7613 10.2948 12.5324 10.4636 12.3636C10.6324 12.1948 10.8613 12.1 11.1 12.1H20C20.2387 12.1 20.4676 12.1948 20.6364 12.3636C20.8052 12.5324 20.9 12.7613 20.9 13C20.9 13.2387 20.8052 13.4676 20.6364 13.6364C20.4676 13.8052 20.2387 13.9 20 13.9Z" fill="#506472"/>
<path d="M20 6.90001H11C10.7613 6.90001 10.5324 6.80518 10.3636 6.6364C10.1948 6.46762 10.1 6.2387 10.1 6.00001C10.1 5.76131 10.1948 5.53239 10.3636 5.36361C10.5324 5.19483 10.7613 5.10001 11 5.10001H20C20.1182 5.10001 20.2352 5.12329 20.3444 5.16851C20.4536 5.21374 20.5528 5.28004 20.6364 5.36361C20.7199 5.44718 20.7862 5.5464 20.8315 5.65559C20.8767 5.76478 20.9 5.88182 20.9 6.00001C20.9 6.1182 20.8767 6.23523 20.8315 6.34442C20.7862 6.45361 20.7199 6.55283 20.6364 6.6364C20.5528 6.71997 20.4536 6.78627 20.3444 6.8315C20.2352 6.87673 20.1182 6.90001 20 6.90001Z" fill="#506472"/>
<path d="M20 20.9H11C10.7613 20.9 10.5324 20.8052 10.3636 20.6364C10.1948 20.4676 10.1 20.2387 10.1 20C10.1 19.7613 10.1948 19.5324 10.3636 19.3636C10.5324 19.1948 10.7613 19.1 11 19.1H20C20.2387 19.1 20.4676 19.1948 20.6364 19.3636C20.8052 19.5324 20.9 19.7613 20.9 20C20.9 20.2387 20.8052 20.4676 20.6364 20.6364C20.4676 20.8052 20.2387 20.9 20 20.9Z" fill="#506472"/>
</svg>
