<svg width="26" height="26" viewBox="0 0 26 26" fill="none" xmlns="http://www.w3.org/2000/svg">
<path d="M10.88 14.61C10.7608 14.6096 10.6428 14.5856 10.5329 14.5392C10.423 14.4929 10.3235 14.4252 10.24 14.34C9.73973 13.7974 9.45702 13.0894 9.44596 12.3515C9.43489 11.6135 9.69623 10.8974 10.18 10.34C11.7355 8.51421 13.4342 6.81549 15.26 5.25999C16.0078 4.57924 16.9856 4.20698 17.9968 4.21811C19.008 4.22924 19.9774 4.62294 20.71 5.31999C21.4403 6.05287 21.8504 7.04534 21.8504 8.07999C21.8504 9.11465 21.4403 10.1071 20.71 10.84L19.71 11.84C19.5396 12.0085 19.3097 12.1031 19.07 12.1031C18.8303 12.1031 18.6004 12.0085 18.43 11.84C18.2621 11.6713 18.1678 11.443 18.1678 11.205C18.1678 10.967 18.2621 10.7387 18.43 10.57L19.43 9.56999C19.6283 9.37377 19.7858 9.14017 19.8933 8.8827C20.0007 8.62522 20.0561 8.34899 20.0561 8.06999C20.0561 7.79099 20.0007 7.51476 19.8933 7.25729C19.7858 6.99982 19.6283 6.76621 19.43 6.56999C19.0121 6.20498 18.4732 6.00886 17.9184 6.01996C17.3637 6.03105 16.833 6.24856 16.43 6.62999C14.6982 8.11011 13.0865 9.72517 11.61 11.46C11.3978 11.6723 11.2729 11.9565 11.26 12.2564C11.247 12.5563 11.3469 12.8501 11.54 13.08C11.6244 13.1628 11.6914 13.2617 11.7371 13.3707C11.7828 13.4797 11.8064 13.5968 11.8064 13.715C11.8064 13.8332 11.7828 13.9503 11.7371 14.0593C11.6914 14.1683 11.6244 14.2671 11.54 14.35C11.4533 14.4358 11.3502 14.5031 11.2367 14.5478C11.1232 14.5925 11.0019 14.6136 10.88 14.61Z" fill="#506472"/>
<path d="M8.00001 21.81C7.50451 21.8111 7.01365 21.7145 6.55551 21.5258C6.09737 21.337 5.68093 21.0598 5.33001 20.71C4.59967 19.9771 4.18958 18.9847 4.18958 17.95C4.18958 16.9154 4.59967 15.9229 5.33001 15.19L6.33001 14.19C6.50038 14.0215 6.73036 13.9269 6.97001 13.9269C7.20966 13.9269 7.43964 14.0215 7.61001 14.19C7.77794 14.3587 7.87222 14.587 7.87222 14.825C7.87222 15.063 7.77794 15.2913 7.61001 15.46L6.61001 16.46C6.41167 16.6562 6.25421 16.8898 6.14675 17.1473C6.03929 17.4048 5.98396 17.681 5.98396 17.96C5.98396 18.239 6.03929 18.5152 6.14675 18.7727C6.25421 19.0302 6.41167 19.2638 6.61001 19.46C7.0279 19.825 7.56686 20.0211 8.12161 20.0101C8.67636 19.999 9.20705 19.7814 9.61001 19.4C11.3418 17.9199 12.9535 16.3048 14.43 14.57C14.6422 14.3577 14.7671 14.0735 14.78 13.7736C14.793 13.4737 14.6931 13.1799 14.5 12.95C14.4157 12.8672 14.3486 12.7684 14.3029 12.6593C14.2572 12.5503 14.2336 12.4332 14.2336 12.315C14.2336 12.1968 14.2572 12.0797 14.3029 11.9707C14.3486 11.8617 14.4157 11.7629 14.5 11.68C14.6704 11.5115 14.9004 11.4169 15.14 11.4169C15.3797 11.4169 15.6096 11.5115 15.78 11.68C16.2803 12.2226 16.563 12.9306 16.5741 13.6686C16.5851 14.4065 16.3238 15.1226 15.84 15.68C14.2845 17.5058 12.5858 19.2045 10.76 20.76C9.98801 21.4168 9.01334 21.7876 8.00001 21.81Z" fill="#506472"/>
</svg>
