<svg width="26" height="26" viewBox="0 0 26 26" fill="none" xmlns="http://www.w3.org/2000/svg">
<path d="M13.9664 6.04794L11.0781 19.5321L13.0337 19.951L15.922 6.46684L13.9664 6.04794Z" fill="#506472"/>
<path d="M17 6.90001H13C12.7613 6.90001 12.5324 6.80518 12.3636 6.6364C12.1948 6.46762 12.1 6.2387 12.1 6.00001C12.1 5.76131 12.1948 5.53239 12.3636 5.36361C12.5324 5.19483 12.7613 5.10001 13 5.10001H17C17.1182 5.10001 17.2352 5.12329 17.3444 5.16851C17.4536 5.21374 17.5528 5.28004 17.6364 5.36361C17.7199 5.44718 17.7862 5.5464 17.8315 5.65559C17.8767 5.76478 17.9 5.88182 17.9 6.00001C17.9 6.1182 17.8767 6.23523 17.8315 6.34442C17.7862 6.45361 17.7199 6.55283 17.6364 6.6364C17.5528 6.71997 17.4536 6.78627 17.3444 6.8315C17.2352 6.87673 17.1182 6.90001 17 6.90001Z" fill="#506472"/>
<path d="M14 20.9H9.99998C9.76128 20.9 9.53236 20.8052 9.36358 20.6364C9.1948 20.4676 9.09998 20.2387 9.09998 20C9.09998 19.7613 9.1948 19.5324 9.36358 19.3636C9.53236 19.1948 9.76128 19.1 9.99998 19.1H14C14.2387 19.1 14.4676 19.1948 14.6364 19.3636C14.8052 19.5324 14.9 19.7613 14.9 20C14.9 20.2387 14.8052 20.4676 14.6364 20.6364C14.4676 20.8052 14.2387 20.9 14 20.9Z" fill="#506472"/>
</svg>
