<svg width="26" height="26" viewBox="0 0 26 26" fill="none" xmlns="http://www.w3.org/2000/svg">
<path d="M20 13.9H11.1C10.8613 13.9 10.6324 13.8052 10.4636 13.6364C10.2948 13.4676 10.2 13.2387 10.2 13C10.2 12.7613 10.2948 12.5324 10.4636 12.3636C10.6324 12.1948 10.8613 12.1 11.1 12.1H20C20.2387 12.1 20.4676 12.1948 20.6364 12.3636C20.8052 12.5324 20.9 12.7613 20.9 13C20.9 13.2387 20.8052 13.4676 20.6364 13.6364C20.4676 13.8052 20.2387 13.9 20 13.9Z" fill="#506472"/>
<path d="M20 6.90001H11C10.7613 6.90001 10.5324 6.80518 10.3636 6.6364C10.1948 6.46762 10.1 6.2387 10.1 6.00001C10.1 5.76131 10.1948 5.53239 10.3636 5.36361C10.5324 5.19483 10.7613 5.10001 11 5.10001H20C20.1182 5.10001 20.2352 5.12329 20.3444 5.16851C20.4536 5.21374 20.5528 5.28004 20.6364 5.36361C20.7199 5.44718 20.7862 5.5464 20.8315 5.65559C20.8767 5.76478 20.9 5.88182 20.9 6.00001C20.9 6.1182 20.8767 6.23523 20.8315 6.34442C20.7862 6.45361 20.7199 6.55283 20.6364 6.6364C20.5528 6.71997 20.4536 6.78627 20.3444 6.8315C20.2352 6.87673 20.1182 6.90001 20 6.90001Z" fill="#506472"/>
<path d="M20 20.9H11C10.7613 20.9 10.5324 20.8052 10.3636 20.6364C10.1948 20.4676 10.1 20.2387 10.1 20C10.1 19.7613 10.1948 19.5324 10.3636 19.3636C10.5324 19.1948 10.7613 19.1 11 19.1H20C20.2387 19.1 20.4676 19.1948 20.6364 19.3636C20.8052 19.5324 20.9 19.7613 20.9 20C20.9 20.2387 20.8052 20.4676 20.6364 20.6364C20.4676 20.8052 20.2387 20.9 20 20.9Z" fill="#506472"/>
<path d="M6.57001 8.13H5.57001V4.86H4.57001V4.16L6.51001 3.87L6.57001 8.13Z" fill="#506472"/>
<path d="M7.45998 15H4.45998V14.35L5.82998 12.91C5.98029 12.7492 6.11119 12.5713 6.21998 12.38C6.29047 12.2643 6.33484 12.1346 6.34998 12C6.35594 11.8601 6.31356 11.7224 6.22998 11.61C6.18158 11.5586 6.12242 11.5185 6.05674 11.4925C5.99105 11.4666 5.92046 11.4555 5.84998 11.46C5.78013 11.4583 5.71106 11.475 5.64965 11.5083C5.58825 11.5417 5.53664 11.5905 5.49998 11.65C5.41592 11.7956 5.37435 11.9619 5.37998 12.13H4.37998C4.37194 11.9454 4.40247 11.7611 4.46962 11.5889C4.53677 11.4167 4.63907 11.2604 4.76998 11.13C4.90926 10.9928 5.07518 10.8857 5.2575 10.8152C5.43982 10.7446 5.63466 10.7123 5.82998 10.72C6.03383 10.6869 6.24221 10.6946 6.44306 10.7427C6.6439 10.7907 6.8332 10.8782 6.99998 11C7.13045 11.1181 7.2331 11.2637 7.30054 11.4262C7.36797 11.5887 7.39852 11.7642 7.38998 11.94C7.39406 12.1957 7.32087 12.4466 7.17998 12.66C6.94323 12.9828 6.68604 13.2901 6.40998 13.58L5.83998 14.2H7.45998V15Z" fill="#506472"/>
<path d="M5.38001 19.59H5.84001C5.91508 19.5955 5.99048 19.585 6.06117 19.5592C6.13187 19.5333 6.19624 19.4927 6.25001 19.44C6.30012 19.3869 6.33849 19.3238 6.36261 19.2549C6.38673 19.186 6.39606 19.1128 6.39001 19.04C6.39312 18.9188 6.35025 18.8009 6.27001 18.71C6.2207 18.6604 6.16114 18.6221 6.0955 18.598C6.02986 18.5738 5.95972 18.5642 5.89001 18.57C5.76712 18.5645 5.64637 18.6035 5.55001 18.68C5.49808 18.7145 5.45662 18.7625 5.43017 18.819C5.40371 18.8754 5.39328 18.938 5.40001 19H4.40001C4.39525 18.8397 4.42911 18.6806 4.49872 18.5362C4.56834 18.3917 4.67167 18.2661 4.80001 18.17C5.09085 17.9608 5.44186 17.852 5.80001 17.86C6.21812 17.8033 6.64284 17.8954 7.00001 18.12C7.13386 18.2276 7.24066 18.365 7.31186 18.5213C7.38305 18.6776 7.41667 18.8484 7.41001 19.02C7.41149 19.215 7.34817 19.4049 7.23001 19.56C7.10523 19.7257 6.93994 19.8566 6.75001 19.94C6.962 20.0137 7.14909 20.1453 7.29001 20.32C7.41655 20.5017 7.483 20.7186 7.48001 20.94C7.48699 21.1186 7.44954 21.2962 7.371 21.4567C7.29246 21.6173 7.17529 21.7559 7.03001 21.86C6.69561 22.0902 6.29567 22.206 5.89001 22.19C5.51595 22.2009 5.14815 22.0923 4.84001 21.88C4.69149 21.7873 4.56991 21.6572 4.48743 21.5028C4.40495 21.3484 4.36446 21.175 4.37001 21H5.37001C5.36992 21.065 5.38422 21.1291 5.41189 21.1879C5.43955 21.2467 5.47989 21.2986 5.53001 21.34C5.63679 21.4357 5.77673 21.486 5.92001 21.48C6.07221 21.4848 6.22112 21.4351 6.34001 21.34C6.38909 21.2919 6.42773 21.2343 6.45354 21.1706C6.47935 21.107 6.49176 21.0387 6.49001 20.97C6.49762 20.8863 6.48728 20.802 6.45969 20.7227C6.4321 20.6434 6.38788 20.5709 6.33001 20.51C6.19802 20.4105 6.03506 20.3609 5.87001 20.37H5.38001V19.59Z" fill="#506472"/>
</svg>
