<svg width="26" height="26" viewBox="0 0 26 26" fill="none" xmlns="http://www.w3.org/2000/svg">
<path d="M9.33002 6.90001H6.67002C6.43132 6.90001 6.20241 6.80518 6.03362 6.6364C5.86484 6.46762 5.77002 6.2387 5.77002 6.00001C5.77002 5.76131 5.86484 5.53239 6.03362 5.36361C6.20241 5.19483 6.43132 5.10001 6.67002 5.10001H9.33002C9.44821 5.10001 9.56524 5.12329 9.67443 5.16851C9.78363 5.21374 9.88284 5.28004 9.96642 5.36361C10.05 5.44718 10.1163 5.5464 10.1615 5.65559C10.2067 5.76478 10.23 5.88182 10.23 6.00001C10.23 6.1182 10.2067 6.23523 10.1615 6.34442C10.1163 6.45361 10.05 6.55283 9.96642 6.6364C9.88284 6.71997 9.78363 6.78627 9.67443 6.8315C9.56524 6.87673 9.44821 6.90001 9.33002 6.90001Z" fill="#506472"/>
<path d="M19.33 6.90001H16.67C16.5518 6.90001 16.4348 6.87673 16.3256 6.8315C16.2164 6.78627 16.1172 6.71997 16.0336 6.6364C15.9501 6.55283 15.8838 6.45361 15.8385 6.34442C15.7933 6.23523 15.77 6.1182 15.77 6.00001C15.77 5.88182 15.7933 5.76478 15.8385 5.65559C15.8838 5.5464 15.9501 5.44718 16.0336 5.36361C16.1172 5.28004 16.2164 5.21374 16.3256 5.16851C16.4348 5.12329 16.5518 5.10001 16.67 5.10001H19.33C19.5687 5.10001 19.7976 5.19483 19.9664 5.36361C20.1352 5.53239 20.23 5.76131 20.23 6.00001C20.23 6.2387 20.1352 6.46762 19.9664 6.6364C19.7976 6.80518 19.5687 6.90001 19.33 6.90001Z" fill="#506472"/>
<path d="M13 19.28C11.4087 19.28 9.88258 18.6479 8.75736 17.5226C7.63214 16.3974 7 14.8713 7 13.28V6.5H9V13.28C9 14.3409 9.42143 15.3583 10.1716 16.1084C10.9217 16.8586 11.9391 17.28 13 17.28C14.0609 17.28 15.0783 16.8586 15.8284 16.1084C16.5786 15.3583 17 14.3409 17 13.28V6.5H19V13.28C19 14.8713 18.3679 16.3974 17.2426 17.5226C16.1174 18.6479 14.5913 19.28 13 19.28Z" fill="#506472"/>
<path d="M18 24.9H7.99998C7.76128 24.9 7.53236 24.8052 7.36358 24.6364C7.1948 24.4676 7.09998 24.2387 7.09998 24C7.09998 23.7613 7.1948 23.5324 7.36358 23.3636C7.53236 23.1948 7.76128 23.1 7.99998 23.1H18C18.2387 23.1 18.4676 23.1948 18.6364 23.3636C18.8052 23.5324 18.9 23.7613 18.9 24C18.9 24.2387 18.8052 24.4676 18.6364 24.6364C18.4676 24.8052 18.2387 24.9 18 24.9Z" fill="#506472"/>
</svg>
