<svg width="26" height="26" viewBox="0 0 26 26" fill="none" xmlns="http://www.w3.org/2000/svg">
<path d="M14.35 14.5H8.91002C8.51219 14.5 8.13066 14.342 7.84936 14.0607C7.56805 13.7794 7.41002 13.3978 7.41002 13V6.54C7.40467 6.33968 7.43952 6.14031 7.51251 5.95368C7.5855 5.76705 7.69514 5.59694 7.83496 5.45339C7.97479 5.30983 8.14196 5.19575 8.3266 5.11788C8.51125 5.04001 8.70962 4.99993 8.91002 5H14.35C15.6045 5 16.8076 5.49834 17.6946 6.38539C18.5817 7.27243 19.08 8.47553 19.08 9.73C19.08 10.9845 18.5817 12.1876 17.6946 13.0746C16.8076 13.9617 15.6045 14.46 14.35 14.46V14.5ZM10.41 11.5H14.35C14.8088 11.5 15.2489 11.3177 15.5733 10.9933C15.8978 10.6689 16.08 10.2288 16.08 9.77C16.08 9.31118 15.8978 8.87114 15.5733 8.54671C15.2489 8.22227 14.8088 8.04 14.35 8.04H10.41V11.5Z" fill="#506472"/>
<path d="M15.28 21H8.90997C8.51215 21 8.13062 20.842 7.84931 20.5607C7.56801 20.2794 7.40997 19.8978 7.40997 19.5V13C7.40997 12.6022 7.56801 12.2206 7.84931 11.9393C8.13062 11.658 8.51215 11.5 8.90997 11.5H15.28C16.5344 11.5 17.7375 11.9983 18.6246 12.8854C19.5116 13.7724 20.01 14.9755 20.01 16.23C20.01 17.4845 19.5116 18.6876 18.6246 19.5746C17.7375 20.4617 16.5344 20.96 15.28 20.96V21ZM10.41 18H15.28C15.7388 18 16.1788 17.8177 16.5033 17.4933C16.8277 17.1689 17.01 16.7288 17.01 16.27C17.01 15.8112 16.8277 15.3711 16.5033 15.0467C16.1788 14.7223 15.7388 14.54 15.28 14.54H10.41V18Z" fill="#506472"/>
<path d="M10.91 7.44001H6.91002C6.59176 7.44001 6.28654 7.31358 6.06149 7.08854C5.83645 6.86349 5.71002 6.55827 5.71002 6.24001C5.71002 5.92175 5.83645 5.61652 6.06149 5.39148C6.28654 5.16644 6.59176 5.04001 6.91002 5.04001H10.91C11.2283 5.04001 11.5335 5.16644 11.7585 5.39148C11.9836 5.61652 12.11 5.92175 12.11 6.24001C12.11 6.55827 11.9836 6.86349 11.7585 7.08854C11.5335 7.31358 11.2283 7.44001 10.91 7.44001Z" fill="#506472"/>
<path d="M10.91 21H6.91002C6.59176 21 6.28654 20.8736 6.06149 20.6485C5.83645 20.4235 5.71002 20.1183 5.71002 19.8C5.71002 19.4817 5.83645 19.1765 6.06149 18.9515C6.28654 18.7264 6.59176 18.6 6.91002 18.6H10.91C11.0676 18.6 11.2237 18.631 11.3692 18.6914C11.5148 18.7517 11.6471 18.84 11.7585 18.9515C11.87 19.0629 11.9584 19.1952 12.0187 19.3408C12.079 19.4864 12.11 19.6424 12.11 19.8C12.11 19.9576 12.079 20.1136 12.0187 20.2592C11.9584 20.4048 11.87 20.5371 11.7585 20.6485C11.6471 20.76 11.5148 20.8484 11.3692 20.9087C11.2237 20.969 11.0676 21 10.91 21Z" fill="#506472"/>
</svg>
