<svg width="20" height="20" viewBox="0 0 20 20" fill="none" xmlns="http://www.w3.org/2000/svg">
<path d="M10 15.4C12.9823 15.4 15.4 12.9823 15.4 9.99998C15.4 7.01764 12.9823 4.59998 10 4.59998C7.01767 4.59998 4.60001 7.01764 4.60001 9.99998C4.60001 12.9823 7.01767 15.4 10 15.4Z" fill="#3D505F"/>
<path d="M10 16C8.81331 16 7.65328 15.6481 6.66658 14.9888C5.67989 14.3295 4.91085 13.3925 4.45673 12.2961C4.0026 11.1997 3.88378 9.99335 4.11529 8.82946C4.3468 7.66558 4.91825 6.59648 5.75736 5.75736C6.59648 4.91825 7.66558 4.3468 8.82946 4.11529C9.99335 3.88378 11.1997 4.0026 12.2961 4.45673C13.3925 4.91085 14.3295 5.67989 14.9888 6.66658C15.6481 7.65328 16 8.81331 16 10C16 11.5913 15.3679 13.1174 14.2426 14.2426C13.1174 15.3679 11.5913 16 10 16ZM10 5.2C9.05065 5.2 8.12262 5.48152 7.33327 6.00895C6.54391 6.53638 5.92868 7.28604 5.56538 8.16312C5.20208 9.04021 5.10702 10.0053 5.29223 10.9364C5.47744 11.8675 5.9346 12.7228 6.60589 13.3941C7.27718 14.0654 8.13246 14.5226 9.06357 14.7078C9.99468 14.893 10.9598 14.7979 11.8369 14.4346C12.714 14.0713 13.4636 13.4561 13.9911 12.6667C14.5185 11.8774 14.8 10.9494 14.8 10C14.8 8.72696 14.2943 7.50606 13.3941 6.60589C12.4939 5.70572 11.273 5.2 10 5.2Z" fill="#3D505F"/>
</svg>
