<svg width="16" height="16" viewBox="0 0 16 16" fill="none" xmlns="http://www.w3.org/2000/svg">
<path d="M8.00001 13.2001C6.97154 13.2001 5.96618 12.8951 5.11104 12.3237C4.2559 11.7523 3.58941 10.9402 3.19583 9.99001C2.80226 9.03983 2.69928 7.99428 2.89992 6.98558C3.10057 5.97688 3.59582 5.05033 4.32305 4.3231C5.05028 3.59586 5.97683 3.10061 6.98554 2.89997C7.99424 2.69932 9.03978 2.8023 9.98996 3.19588C10.9401 3.58945 11.7523 4.25595 12.3236 5.11109C12.895 5.96622 13.2 6.97159 13.2 8.00005C13.2 9.37918 12.6522 10.7018 11.677 11.677C10.7018 12.6522 9.37913 13.2001 8.00001 13.2001ZM8.00001 4.20005C7.24844 4.20005 6.51375 4.42292 5.88884 4.84047C5.26393 5.25802 4.77688 5.85149 4.48926 6.54585C4.20165 7.24021 4.1264 8.00427 4.27302 8.74139C4.41965 9.47852 4.78156 10.1556 5.313 10.6871C5.84444 11.2185 6.52153 11.5804 7.25866 11.727C7.99579 11.8737 8.75984 11.7984 9.4542 11.5108C10.1486 11.2232 10.742 10.7361 11.1596 10.1112C11.5771 9.48631 11.8 8.75162 11.8 8.00005C11.8 6.99223 11.3996 6.02568 10.687 5.31305C9.97437 4.60041 9.00783 4.20005 8.00001 4.20005Z" fill="#3D505F"/>
<path d="M8 12.5C10.4853 12.5 12.5 10.4853 12.5 8C12.5 5.51472 10.4853 3.5 8 3.5C5.51472 3.5 3.5 5.51472 3.5 8C3.5 10.4853 5.51472 12.5 8 12.5Z" fill="#3D505F"/>
</svg>
