<svg width="20" height="20" viewBox="0 0 20 20" fill="none" xmlns="http://www.w3.org/2000/svg">
<path d="M10 16C8.81331 16 7.65328 15.6481 6.66658 14.9888C5.67989 14.3295 4.91085 13.3925 4.45673 12.2961C4.0026 11.1997 3.88378 9.99335 4.11529 8.82946C4.3468 7.66558 4.91825 6.59648 5.75736 5.75736C6.59648 4.91825 7.66558 4.3468 8.82946 4.11529C9.99335 3.88378 11.1997 4.0026 12.2961 4.45673C13.3925 4.91085 14.3295 5.67989 14.9888 6.66658C15.6481 7.65328 16 8.81331 16 10C16 11.5913 15.3679 13.1174 14.2426 14.2426C13.1174 15.3679 11.5913 16 10 16ZM10 5.2C9.05065 5.2 8.12262 5.48152 7.33327 6.00895C6.54391 6.53638 5.92868 7.28604 5.56538 8.16312C5.20208 9.04021 5.10702 10.0053 5.29223 10.9364C5.47744 11.8675 5.9346 12.7228 6.60589 13.3941C7.27718 14.0654 8.13246 14.5226 9.06357 14.7078C9.99468 14.893 10.9598 14.7979 11.8369 14.4346C12.714 14.0713 13.4636 13.4561 13.9911 12.6667C14.5185 11.8774 14.8 10.9494 14.8 10C14.7974 8.7287 14.2905 7.51037 13.3906 6.61235C12.4907 5.71434 11.2713 5.21 10 5.21V5.2Z" fill="#3D505F"/>
<path d="M16.36 4.24001C16.2822 4.24131 16.2049 4.22693 16.1327 4.19772C16.0606 4.16852 15.995 4.12509 15.94 4.07001C15.2948 3.42323 14.5483 2.88616 13.73 2.48001C13.5862 2.40893 13.4762 2.28407 13.4238 2.13247C13.3714 1.98087 13.3808 1.81472 13.45 1.67001C13.5247 1.5298 13.6504 1.42361 13.8011 1.37337C13.9518 1.32313 14.1161 1.33267 14.26 1.40001C15.1944 1.86886 16.0484 2.48319 16.79 3.22001C16.9006 3.33386 16.9624 3.48631 16.9624 3.64501C16.9624 3.80372 16.9006 3.95617 16.79 4.07001C16.7335 4.12584 16.6662 4.16968 16.5924 4.19889C16.5185 4.22811 16.4394 4.24209 16.36 4.24001Z" fill="#3D505F"/>
<path d="M3.64 4.24001C3.56058 4.24209 3.48155 4.22811 3.40766 4.19889C3.33377 4.16968 3.26654 4.12584 3.21 4.07001C3.09943 3.95617 3.03758 3.80372 3.03758 3.64501C3.03758 3.48631 3.09943 3.33386 3.21 3.22001C3.95163 2.48319 4.80561 1.86886 5.74 1.40001C5.8839 1.33267 6.04816 1.32313 6.19889 1.37337C6.34961 1.42361 6.4753 1.5298 6.55 1.67001C6.6192 1.81472 6.62862 1.98087 6.57622 2.13247C6.52381 2.28407 6.4138 2.40893 6.27 2.48001C5.45168 2.88616 4.70519 3.42323 4.06 4.07001C4.00499 4.12509 3.93945 4.16852 3.86729 4.19772C3.79513 4.22693 3.71784 4.24131 3.64 4.24001Z" fill="#3D505F"/>
</svg>
