<svg width="16" height="16" viewBox="0 0 16 16" fill="none" xmlns="http://www.w3.org/2000/svg">
<path d="M8 13.2001C6.97153 13.2001 5.96617 12.8951 5.11103 12.3237C4.2559 11.7523 3.5894 10.9402 3.19582 9.99001C2.80225 9.03983 2.69927 7.99428 2.89991 6.98558C3.10056 5.97688 3.59581 5.05033 4.32304 4.3231C5.05028 3.59586 5.97683 3.10061 6.98553 2.89997C7.99423 2.69932 9.03978 2.8023 9.98995 3.19588C10.9401 3.58945 11.7523 4.25595 12.3236 5.11109C12.895 5.96622 13.2 6.97159 13.2 8.00005C13.2 9.37918 12.6521 10.7018 11.677 11.677C10.7018 12.6522 9.37912 13.2001 8 13.2001ZM8 4.20005C7.24843 4.20005 6.51374 4.42292 5.88883 4.84047C5.26392 5.25802 4.77687 5.85149 4.48926 6.54585C4.20164 7.24021 4.12639 8.00427 4.27301 8.74139C4.41964 9.47852 4.78155 10.1556 5.31299 10.6871C5.84443 11.2185 6.52153 11.5804 7.25865 11.727C7.99578 11.8737 8.75984 11.7984 9.45419 11.5108C10.1486 11.2232 10.742 10.7361 11.1596 10.1112C11.5771 9.48631 11.8 8.75162 11.8 8.00005C11.8 6.99223 11.3996 6.02568 10.687 5.31305C9.97437 4.60041 9.00782 4.20005 8 4.20005Z" fill="#3D505F"/>
</svg>
