<svg width="20" height="20" viewBox="0 0 20 20" fill="none" xmlns="http://www.w3.org/2000/svg">
<path d="M11.8 12.4H8.20001C8.04088 12.4 7.88826 12.3368 7.77574 12.2243C7.66322 12.1118 7.60001 11.9591 7.60001 11.8C7.60001 11.6409 7.66322 11.4883 7.77574 11.3757C7.88826 11.2632 8.04088 11.2 8.20001 11.2H11.8C11.9591 11.2 12.1117 11.2632 12.2243 11.3757C12.3368 11.4883 12.4 11.6409 12.4 11.8C12.4 11.9591 12.3368 12.1118 12.2243 12.2243C12.1117 12.3368 11.9591 12.4 11.8 12.4Z" fill="#3D505F"/>
<path d="M13.6 16H6.40001C5.96664 16 5.53753 15.9146 5.13715 15.7488C4.73678 15.583 4.37299 15.3399 4.06655 15.0335C3.76012 14.727 3.51704 14.3632 3.3512 13.9629C3.18536 13.5625 3.10001 13.1334 3.10001 12.7V8.5C3.10281 8.17591 3.20779 7.86096 3.40001 7.6L5.11001 5.32C5.41793 4.91073 5.81663 4.57849 6.27473 4.34944C6.73283 4.12039 7.23783 4.00077 7.75001 4H12.25C12.7622 4.00077 13.2672 4.12039 13.7253 4.34944C14.1834 4.57849 14.5821 4.91073 14.89 5.32L16.6 7.6C16.7922 7.86096 16.8972 8.17591 16.9 8.5V12.7C16.9 13.1334 16.8146 13.5625 16.6488 13.9629C16.483 14.3632 16.2399 14.727 15.9335 15.0335C15.627 15.3399 15.2632 15.583 14.8629 15.7488C14.4625 15.9146 14.0334 16 13.6 16ZM7.75001 5.2C7.42721 5.19453 7.10754 5.26392 6.81606 5.40272C6.52459 5.54152 6.26922 5.74596 6.07001 6L4.36001 8.32C4.31967 8.37119 4.29845 8.43485 4.30001 8.5V12.7C4.30001 13.257 4.52126 13.7911 4.91508 14.1849C5.30891 14.5788 5.84305 14.8 6.40001 14.8H13.6C14.157 14.8 14.6911 14.5788 15.0849 14.1849C15.4788 13.7911 15.7 13.257 15.7 12.7V8.5C15.7016 8.43485 15.6803 8.37119 15.64 8.32L13.93 6C13.7349 5.73861 13.4814 5.5265 13.1897 5.38064C12.898 5.23478 12.5762 5.15922 12.25 5.16L7.75001 5.2Z" fill="#3D505F"/>
<path d="M15.8503 8.79998H4.13006C3.97093 8.79998 3.81832 8.73676 3.7058 8.62424C3.59327 8.51172 3.53006 8.35911 3.53006 8.19998C3.53006 8.04085 3.59327 7.88823 3.7058 7.77571C3.81832 7.66319 3.97093 7.59998 4.13006 7.59998H15.8503C16.0094 7.59998 16.1621 7.66319 16.2746 7.77571C16.3871 7.88823 16.4503 8.04085 16.4503 8.19998C16.4503 8.35911 16.3871 8.51172 16.2746 8.62424C16.1621 8.73676 16.0094 8.79998 15.8503 8.79998Z" fill="#3D505F"/>
</svg>
