<svg width="16" height="16" viewBox="0 0 16 16" fill="none" xmlns="http://www.w3.org/2000/svg">
<path d="M8.00001 13.2001C6.97154 13.2001 5.96618 12.8951 5.11104 12.3237C4.2559 11.7523 3.58941 10.9402 3.19583 9.99001C2.80226 9.03983 2.69928 7.99428 2.89992 6.98558C3.10057 5.97688 3.59582 5.05033 4.32305 4.3231C5.05028 3.59586 5.97683 3.10061 6.98554 2.89997C7.99424 2.69932 9.03978 2.8023 9.98996 3.19588C10.9401 3.58945 11.7523 4.25595 12.3236 5.11109C12.895 5.96622 13.2 6.97159 13.2 8.00005C13.2 9.37918 12.6522 10.7018 11.677 11.677C10.7018 12.6522 9.37913 13.2001 8.00001 13.2001ZM8.00001 4.20005C7.24844 4.20005 6.51375 4.42292 5.88884 4.84047C5.26393 5.25802 4.77688 5.85149 4.48926 6.54585C4.20165 7.24021 4.1264 8.00427 4.27302 8.74139C4.41965 9.47852 4.78156 10.1556 5.313 10.6871C5.84444 11.2185 6.52153 11.5804 7.25866 11.727C7.99579 11.8737 8.75984 11.7984 9.4542 11.5108C10.1486 11.2232 10.742 10.7361 11.1596 10.1112C11.5771 9.48631 11.8 8.75162 11.8 8.00005C11.8 6.99223 11.3996 6.02568 10.687 5.31305C9.97437 4.60041 9.00783 4.20005 8.00001 4.20005Z" fill="#3D505F"/>
<path d="M13.36 3.40005C13.2692 3.4006 13.1792 3.38321 13.0951 3.34889C13.011 3.31457 12.9345 3.26399 12.87 3.20005C12.3383 2.67034 11.7235 2.23121 11.05 1.90005C10.896 1.81506 10.7791 1.67596 10.7218 1.50969C10.6646 1.34342 10.671 1.16182 10.74 1.00005C10.7805 0.917118 10.837 0.843014 10.9062 0.782C10.9755 0.720985 11.0561 0.674263 11.1434 0.644523C11.2308 0.614782 11.3232 0.60261 11.4153 0.608707C11.5074 0.614803 11.5973 0.639048 11.68 0.680047C12.4862 1.08304 13.2223 1.61315 13.86 2.25005C13.9919 2.38303 14.0659 2.56274 14.0659 2.75005C14.0659 2.93735 13.9919 3.11707 13.86 3.25005C13.7194 3.3636 13.5399 3.41745 13.36 3.40005Z" fill="#3D505F"/>
<path d="M2.64 3.4C2.54751 3.40189 2.45558 3.38515 2.36968 3.35079C2.28379 3.31644 2.20568 3.26516 2.14 3.2C2.0081 3.06702 1.93408 2.88731 1.93408 2.7C1.93408 2.5127 2.0081 2.33298 2.14 2.2C2.77847 1.56666 3.51451 1.03995 4.32 0.640002C4.40511 0.600287 4.49734 0.578106 4.59121 0.57478C4.68507 0.571454 4.77864 0.58705 4.86635 0.620641C4.95406 0.654232 5.03411 0.70513 5.10174 0.770304C5.16937 0.835477 5.22319 0.913594 5.26 1C5.3333 1.15602 5.34734 1.33337 5.29949 1.49897C5.25165 1.66457 5.1452 1.80711 5 1.9C4.30877 2.22644 3.67678 2.66579 3.13 3.2C3.06551 3.26395 2.98902 3.31453 2.90494 3.34885C2.82085 3.38317 2.73082 3.40055 2.64 3.4Z" fill="#3D505F"/>
</svg>
