<svg width="20" height="20" viewBox="0 0 20 20" fill="none" xmlns="http://www.w3.org/2000/svg">
<path d="M7.25001 16H4.61001C4.45088 16 4.29827 15.9368 4.18575 15.8243C4.07322 15.7118 4.01001 15.5592 4.01001 15.4V12.72C4.01223 12.1209 4.24917 11.5465 4.67001 11.12L8.67001 7.12003C8.72505 7.06286 8.79106 7.01739 8.86409 6.98633C8.93711 6.95527 9.01565 6.93926 9.09501 6.93926C9.17437 6.93926 9.25291 6.95527 9.32593 6.98633C9.39896 7.01739 9.46497 7.06286 9.52001 7.12003C9.63058 7.23387 9.69243 7.38632 9.69243 7.54503C9.69243 7.70373 9.63058 7.85618 9.52001 7.97003L5.52001 11.97C5.42161 12.0686 5.34358 12.1855 5.29039 12.3142C5.2372 12.4429 5.20989 12.5808 5.21001 12.72V14.72H7.21001C7.35411 14.7333 7.49937 14.7151 7.63576 14.6668C7.77215 14.6184 7.89643 14.5411 8.00001 14.44L14.72 7.73003C14.7495 7.69702 14.7658 7.6543 14.7658 7.61003C14.7658 7.56575 14.7495 7.52303 14.72 7.49003L12.48 5.26003C12.465 5.243 12.4465 5.22937 12.4258 5.22003C12.4051 5.21069 12.3827 5.20586 12.36 5.20586C12.3373 5.20586 12.3149 5.21069 12.2942 5.22003C12.2735 5.22937 12.255 5.243 12.24 5.26003L11.68 5.81003C11.625 5.86719 11.559 5.91266 11.4859 5.94372C11.4129 5.97478 11.3344 5.99079 11.255 5.99079C11.1757 5.99079 11.0971 5.97478 11.0241 5.94372C10.9511 5.91266 10.8851 5.86719 10.83 5.81003C10.7194 5.69618 10.6576 5.54373 10.6576 5.38503C10.6576 5.22632 10.7194 5.07387 10.83 4.96003L11.39 4.41003C11.6508 4.15947 11.9984 4.01953 12.36 4.01953C12.7216 4.01953 13.0692 4.15947 13.33 4.41003L15.55 6.64003C15.6776 6.76729 15.7788 6.91847 15.8479 7.08492C15.917 7.25137 15.9525 7.42981 15.9525 7.61003C15.9525 7.79024 15.917 7.96868 15.8479 8.13513C15.7788 8.30158 15.6776 8.45276 15.55 8.58003L8.84001 15.29C8.63688 15.5099 8.3912 15.6862 8.11788 15.8082C7.84457 15.9303 7.54931 15.9955 7.25001 16Z" fill="#3D505F"/>
</svg>
