<?xml version="1.0" encoding="utf-8"?>
<!-- Generator: Adobe Illustrator 16.0.0, SVG Export Plug-In . SVG Version: 6.00 Build 0)  -->
<!DOCTYPE svg PUBLIC "-//W3C//DTD SVG 1.1//EN" "http://www.w3.org/Graphics/SVG/1.1/DTD/svg11.dtd">
<svg version="1.1" id="Layer_1" xmlns="http://www.w3.org/2000/svg" xmlns:xlink="http://www.w3.org/1999/xlink" x="0px" y="0px"
	 width="26px" height="26px" viewBox="0 0 26 26" enable-background="new 0 0 26 26" xml:space="preserve">
<path fill="#506472" d="M18.12,22.621c-1.838,0-4.043-1.479-5.603-3.721c-1.83-0.001-3.534-0.009-4.742-0.1
	c-0.031,0.001-0.063,0.002-0.07,0.002c-0.68,0-1.342-0.24-1.863-0.676C5.282,17.658,4.921,17,4.828,16.275
	C4.7,15.099,4.7,13.488,4.7,11.93c0-1.661,0.044-3.227,0.123-4.295c0.099-0.777,0.461-1.437,1.025-1.907
	c0.521-0.433,1.18-0.671,1.855-0.671l0.081,0.002C9.107,4.96,10.999,4.96,13,4.96c1.694,0.009,3.81,0.032,5.226,0.139l0.077-0.002
	c0.666,0,1.317,0.232,1.835,0.654c0.56,0.458,0.926,1.103,1.032,1.816c0.086,1.147,0.127,2.641,0.169,4.34
	c0.001,1.681-0.044,3.247-0.121,4.317c-0.099,0.776-0.459,1.434-1.021,1.902c-0.343,0.287-0.747,0.489-1.177,0.594v3
	C19.021,22.218,18.617,22.621,18.12,22.621z M7.806,17.002c0.028,0,0.054,0,0.063,0.001C9.115,17.1,11.002,17.1,13,17.1
	c0.309,0,0.596,0.158,0.761,0.419c1.05,1.658,2.385,2.712,3.459,3.115V17.9c0-0.497,0.403-0.9,0.9-0.9h0.12c0.004,0,0.008,0,0.013,0
	c0.346,0,0.595-0.091,0.79-0.254c0.213-0.178,0.35-0.427,0.385-0.701c0.069-0.979,0.111-2.497,0.111-4.115
	c-0.033-1.342-0.075-3.04-0.157-4.165c-0.033-0.203-0.172-0.447-0.384-0.621c-0.195-0.159-0.442-0.248-0.695-0.248
	c-0.038,0.002-0.133,0.003-0.172,0c-1.359-0.105-3.459-0.129-5.135-0.138c-1.983,0-3.861,0-5.116,0.098
	C7.841,6.86,7.802,6.86,7.762,6.859C7.453,6.877,7.198,6.948,6.999,7.112C6.786,7.29,6.648,7.54,6.613,7.815
	C6.543,8.793,6.5,10.311,6.5,11.93c0,1.51,0,3.071,0.115,4.133c0.033,0.256,0.169,0.505,0.382,0.683
	c0.198,0.165,0.449,0.257,0.708,0.257C7.72,17.003,7.766,17.002,7.806,17.002z"/>
</svg>
