<?xml version="1.0" encoding="utf-8"?>
<!-- Generator: Adobe Illustrator 16.0.0, SVG Export Plug-In . SVG Version: 6.00 Build 0)  -->
<!DOCTYPE svg PUBLIC "-//W3C//DTD SVG 1.1//EN" "http://www.w3.org/Graphics/SVG/1.1/DTD/svg11.dtd">
<svg version="1.1" id="Layer_1" xmlns="http://www.w3.org/2000/svg" xmlns:xlink="http://www.w3.org/1999/xlink" x="0px" y="0px"
	 width="26px" height="26px" viewBox="0 0 26 26" enable-background="new 0 0 26 26" xml:space="preserve">
<path fill="#506472" d="M10.515,21.25c-0.863,0-1.738-0.031-2.599-0.093c-0.74-0.028-1.465-0.342-2.014-0.88
	c-0.549-0.539-0.876-1.258-0.921-2.024c-0.156-2.524-0.156-7.828,0-10.505c0.032-0.767,0.357-1.5,0.916-2.049
	c0.56-0.549,1.3-0.86,2.083-0.878c1.236-0.076,3.094-0.12,5.061-0.12c1.968,0,3.828,0.044,5.104,0.122
	c0.768,0.061,1.471,0.39,1.997,0.926c0.526,0.537,0.842,1.246,0.887,1.998c0.142,1.816,0.142,3.673-0.001,5.504
	c-0.038,0.729-0.337,1.448-0.841,2.005l-5.03,5.032c-0.59,0.535-1.311,0.834-2.062,0.871C12.253,21.219,11.378,21.25,10.515,21.25z
	 M13.041,6.5c-1.933,0-3.75,0.043-4.986,0.119C7.696,6.627,7.39,6.756,7.158,6.983C6.928,7.21,6.792,7.514,6.779,7.837
	c-0.154,2.639-0.154,7.833-0.001,10.307c0.019,0.323,0.155,0.623,0.385,0.848c0.229,0.225,0.532,0.355,0.853,0.368
	c1.694,0.119,3.333,0.117,4.97,0.002c0.356-0.019,0.679-0.152,0.929-0.379l4.968-4.97c0.196-0.218,0.331-0.542,0.349-0.88
	c0.137-1.762,0.137-3.524,0.001-5.264c-0.021-0.334-0.153-0.634-0.376-0.861s-0.521-0.366-0.838-0.392
	C16.795,6.543,14.975,6.5,13.041,6.5z"/>
<path fill="#506472" d="M13.89,20.76c-0.456,0-0.847-0.346-0.895-0.81c-0.203-1.991-0.203-4.01,0-6.001
	c0.044-0.432,0.39-0.771,0.821-0.806c1.967-0.162,3.959-0.162,5.928,0c0.495,0.041,0.863,0.475,0.822,0.971
	c-0.04,0.494-0.466,0.859-0.971,0.823c-1.616-0.134-3.256-0.152-4.876-0.054c-0.121,1.625-0.099,3.265,0.066,4.885
	c0.05,0.494-0.31,0.936-0.805,0.986C13.951,20.758,13.92,20.76,13.89,20.76z"/>
</svg>
