<svg width="20" height="20" viewBox="0 0 20 20" fill="none" xmlns="http://www.w3.org/2000/svg">
<path d="M10 11.72C9.43407 11.7219 8.87548 11.5919 8.36859 11.3402C7.86171 11.0885 7.4205 10.7221 7.08001 10.27C7.05467 10.2356 7.02151 10.2076 6.98326 10.1885C6.94501 10.1694 6.90277 10.1596 6.86001 10.16H3.70001C3.50003 10 3.50003 9.5 3.70001 9H6.86001C7.07912 9.00026 7.29536 9.04983 7.49271 9.14504C7.69005 9.24025 7.86344 9.37866 8.00001 9.55C8.22895 9.86464 8.53011 10.1197 8.87815 10.2937C9.22619 10.4677 9.61093 10.5556 10 10.55C10.3891 10.5556 10.7738 10.4677 11.1219 10.2937C11.4699 10.1197 11.7711 9.86464 12 9.55C12.1366 9.37866 12.31 9.24025 12.5073 9.14504C12.7047 9.04983 12.9209 9.00026 13.14 9H16.3C16.4591 9 16.6118 9.06321 16.7243 9.17574C16.8368 9.28826 16.9 9.44087 16.9 9.6C16.9 9.75913 16.8368 9.91174 16.7243 10.0243C16.6118 10.1368 16.4591 10.2 16.3 10.2H13.14C13.0983 10.1999 13.0571 10.2087 13.0191 10.226C12.9811 10.2432 12.9473 10.2685 12.92 10.3C12.5775 10.7477 12.1351 11.1092 11.6281 11.3557C11.1212 11.6023 10.5637 11.727 10 11.72Z" fill="#3D505F"/>
<path d="M13.6 15.74H6.40001C5.52479 15.74 4.68542 15.3923 4.06655 14.7735C3.44768 14.1546 3.10001 13.3152 3.10001 12.44V8.84003C3.10281 8.51593 3.20779 8.20098 3.40001 7.94003L5.11001 5.66003C5.41951 5.25245 5.81854 4.92145 6.27628 4.69258C6.73403 4.46371 7.23824 4.34309 7.75001 4.34003H12.25C12.7618 4.34309 13.266 4.46371 13.7237 4.69258C14.1815 4.92145 14.5805 5.25245 14.89 5.66003L16.6 7.94003C16.7922 8.20098 16.8972 8.51593 16.9 8.84003V12.44C16.9 13.3152 16.5523 14.1546 15.9335 14.7735C15.3146 15.3923 14.4752 15.74 13.6 15.74ZM7.75001 5.54003C7.42426 5.54156 7.10326 5.61814 6.8119 5.76382C6.52055 5.9095 6.26668 6.12035 6.07001 6.38003L4.36001 8.66003C4.32106 8.71196 4.30001 8.77512 4.30001 8.84003V12.44C4.30001 12.997 4.52126 13.5311 4.91508 13.925C5.30891 14.3188 5.84305 14.54 6.40001 14.54H13.6C14.157 14.54 14.6911 14.3188 15.0849 13.925C15.4788 13.5311 15.7 12.997 15.7 12.44V8.84003C15.7 8.77512 15.679 8.71196 15.64 8.66003L13.93 6.38003C13.7333 6.12035 13.4795 5.9095 13.1881 5.76382C12.8968 5.61814 12.5757 5.54156 12.25 5.54003H7.75001Z" fill="#3D505F"/>
</svg>
