<svg width="26" height="26" viewBox="0 0 26 26" fill="none" xmlns="http://www.w3.org/2000/svg">
<path d="M19.4 12H6.60001C6.06957 12 5.56087 11.7893 5.18579 11.4142C4.81072 11.0391 4.60001 10.5304 4.60001 10V7.53C4.60001 6.99957 4.81072 6.49086 5.18579 6.11579C5.56087 5.74071 6.06957 5.53 6.60001 5.53H19.4C19.9304 5.53 20.4391 5.74071 20.8142 6.11579C21.1893 6.49086 21.4 6.99957 21.4 7.53V10C21.4 10.5304 21.1893 11.0391 20.8142 11.4142C20.4391 11.7893 19.9304 12 19.4 12ZM6.60001 7.35C6.57554 7.34864 6.55105 7.35229 6.52805 7.36072C6.50504 7.36915 6.484 7.3822 6.46621 7.39905C6.44842 7.4159 6.43426 7.43621 6.4246 7.45872C6.41493 7.48124 6.40997 7.5055 6.41001 7.53V10C6.40855 10.0253 6.41248 10.0507 6.42151 10.0744C6.43055 10.0981 6.44449 10.1196 6.46243 10.1376C6.48037 10.1555 6.5019 10.1695 6.52561 10.1785C6.54932 10.1875 6.57468 10.1914 6.60001 10.19H19.4C19.4253 10.1914 19.4507 10.1875 19.4744 10.1785C19.4981 10.1695 19.5196 10.1555 19.5376 10.1376C19.5555 10.1196 19.5695 10.0981 19.5785 10.0744C19.5875 10.0507 19.5915 10.0253 19.59 10V7.53C19.59 7.5055 19.5851 7.48124 19.5754 7.45872C19.5657 7.43621 19.5516 7.4159 19.5338 7.39905C19.516 7.3822 19.495 7.36915 19.472 7.36072C19.449 7.35229 19.4245 7.34864 19.4 7.35H6.60001Z" fill="#506472"/>
<path d="M19.4 20.45H6.60001C6.06957 20.45 5.56087 20.2393 5.18579 19.8642C4.81072 19.4891 4.60001 18.9804 4.60001 18.45V16C4.60001 15.4696 4.81072 14.9609 5.18579 14.5858C5.56087 14.2107 6.06957 14 6.60001 14H19.4C19.9304 14 20.4391 14.2107 20.8142 14.5858C21.1893 14.9609 21.4 15.4696 21.4 16V18.51C21.3844 19.03 21.1668 19.5234 20.7934 19.8856C20.42 20.2478 19.9202 20.4502 19.4 20.45ZM6.60001 15.77C6.57468 15.7685 6.54932 15.7725 6.52561 15.7815C6.5019 15.7905 6.48037 15.8045 6.46243 15.8224C6.44449 15.8404 6.43055 15.8619 6.42151 15.8856C6.41248 15.9093 6.40855 15.9347 6.41001 15.96V18.47C6.40997 18.4945 6.41493 18.5188 6.4246 18.5413C6.43426 18.5638 6.44842 18.5841 6.46621 18.601C6.484 18.6178 6.50504 18.6308 6.52805 18.6393C6.55105 18.6477 6.57554 18.6514 6.60001 18.65H19.4C19.4245 18.6514 19.449 18.6477 19.472 18.6393C19.495 18.6308 19.516 18.6178 19.5338 18.601C19.5516 18.5841 19.5657 18.5638 19.5754 18.5413C19.5851 18.5188 19.59 18.4945 19.59 18.47V16C19.5915 15.9747 19.5875 15.9493 19.5785 15.9256C19.5695 15.9019 19.5555 15.8804 19.5376 15.8624C19.5196 15.8445 19.4981 15.8305 19.4744 15.8215C19.4507 15.8125 19.4253 15.8085 19.4 15.81L6.60001 15.77Z" fill="#506472"/>
</svg>
