<svg width="20" height="20" viewBox="0 0 20 20" fill="none" xmlns="http://www.w3.org/2000/svg">
<path d="M10 11.27C9.86611 11.2665 9.7367 11.221 9.63 11.14L4.23 6.87001C4.10535 6.7679 4.02637 6.62046 4.01043 6.46011C3.99449 6.29977 4.0429 6.13966 4.145 6.01501C4.24711 5.89036 4.39456 5.81137 4.5549 5.79543C4.71524 5.77949 4.87535 5.8279 5 5.93001L10 9.93001L15 5.93001C15.0608 5.8739 15.1326 5.83098 15.2108 5.80394C15.289 5.7769 15.3719 5.76632 15.4544 5.77288C15.5369 5.77944 15.6171 5.803 15.6901 5.84206C15.763 5.88112 15.8271 5.93484 15.8783 5.99986C15.9295 6.06488 15.9667 6.13978 15.9875 6.21985C16.0084 6.29993 16.0124 6.38346 15.9994 6.46518C15.9864 6.5469 15.9567 6.62504 15.912 6.69471C15.8674 6.76438 15.8088 6.82406 15.74 6.87001L10.34 11.14C10.2416 11.2153 10.1235 11.2605 10 11.27Z" fill="#3D505F"/>
<path d="M14.23 15.22H5.77001C5.06361 15.22 4.38599 14.9401 3.88556 14.4415C3.38512 13.943 3.10265 13.2664 3.10001 12.56V7.56002C3.10527 6.85444 3.38857 6.1794 3.88844 5.68141C4.38831 5.18341 5.06441 4.90264 5.77001 4.90002H14.23C14.9373 4.90266 15.6149 5.18481 16.1151 5.68496C16.6152 6.18511 16.8974 6.86271 16.9 7.57002V12.57C16.8947 13.2747 16.6111 13.9487 16.1109 14.4451C15.6108 14.9415 14.9347 15.22 14.23 15.22ZM5.77001 6.10002C5.38014 6.10002 5.00624 6.2549 4.73056 6.53058C4.45488 6.80626 4.30001 7.18016 4.30001 7.57002V12.57C4.31043 12.9529 4.46989 13.3166 4.74445 13.5837C5.01901 13.8508 5.38697 14.0002 5.77001 14H14.23C14.6181 14 14.9905 13.8465 15.2659 13.573C15.5413 13.2995 15.6974 12.9282 15.7 12.54V7.54002C15.6922 7.15538 15.5338 6.78914 15.259 6.51992C14.9842 6.25069 14.6147 6.09994 14.23 6.10002H5.77001Z" fill="#3D505F"/>
</svg>
