<svg width="20" height="20" viewBox="0 0 20 20" fill="none" xmlns="http://www.w3.org/2000/svg">
<path d="M10 16.06H7C6.31125 16.0574 5.65146 15.7826 5.16443 15.2956C4.67741 14.8085 4.40264 14.1487 4.4 13.46V6.52999C4.40264 5.84124 4.67741 5.18145 5.16443 4.69442C5.65146 4.2074 6.31125 3.93263 7 3.92999H13C13.6888 3.93263 14.3485 4.2074 14.8356 4.69442C15.3226 5.18145 15.5974 5.84124 15.6 6.52999V10.11C15.5989 10.5096 15.4492 10.8946 15.18 11.19L11.18 15.54C11.0302 15.7038 10.8479 15.8346 10.6447 15.9241C10.4416 16.0137 10.222 16.0599 10 16.06ZM7 5.12999C6.6287 5.12999 6.2726 5.27749 6.01005 5.54004C5.7475 5.80259 5.6 6.15869 5.6 6.52999V13.46C5.6 13.8313 5.7475 14.1874 6.01005 14.4499C6.2726 14.7125 6.6287 14.86 7 14.86H10C10.1132 14.8579 10.221 14.8111 10.3 14.73L14.3 10.38C14.362 10.3034 14.3971 10.2085 14.4 10.11V6.52999C14.4 6.15869 14.2525 5.80259 13.99 5.54004C13.7274 5.27749 13.3713 5.12999 13 5.12999H7Z" fill="#3D505F"/>
<path d="M10.48 15.86C10.3209 15.86 10.1683 15.7968 10.0557 15.6843C9.94321 15.5718 9.88 15.4192 9.88 15.26V10.5C9.88 10.3409 9.94321 10.1883 10.0557 10.0758C10.1683 9.96324 10.3209 9.90002 10.48 9.90002H14.92C15.0791 9.90002 15.2317 9.96324 15.3443 10.0758C15.4568 10.1883 15.52 10.3409 15.52 10.5C15.52 10.6592 15.4568 10.8118 15.3443 10.9243C15.2317 11.0368 15.0791 11.1 14.92 11.1H11.08V15.26C11.08 15.4192 11.0168 15.5718 10.9043 15.6843C10.7917 15.7968 10.6391 15.86 10.48 15.86Z" fill="#3D505F"/>
</svg>
