<svg width="20" height="20" viewBox="0 0 20 20" fill="none" xmlns="http://www.w3.org/2000/svg">
<path d="M7.63998 16.46C5.99358 16.4504 4.38402 15.9717 2.99998 15.08C2.88544 15.0064 2.79934 14.896 2.7558 14.767C2.71227 14.638 2.7139 14.4981 2.76043 14.3701C2.80695 14.2422 2.89561 14.1339 3.01183 14.063C3.12805 13.9921 3.26493 13.9628 3.39998 13.98C4.28319 14.0856 5.17871 13.9616 5.99998 13.62C5.19055 13.2051 4.57905 12.4857 4.29998 11.62C4.27161 11.5353 4.26316 11.4452 4.2753 11.3568C4.28744 11.2683 4.31984 11.1839 4.36998 11.11C4.02443 10.7893 3.74847 10.401 3.55925 9.96924C3.37002 9.53746 3.27156 9.07139 3.26998 8.59997C3.27036 8.49196 3.29806 8.3858 3.35052 8.29138C3.40297 8.19696 3.47847 8.11735 3.56998 8.05997H3.62998C3.4103 7.59766 3.29751 7.09182 3.29998 6.57997C3.28165 5.96009 3.42648 5.34627 3.71998 4.79997C3.77034 4.7153 3.84046 4.64408 3.92435 4.59241C4.00823 4.54074 4.10338 4.51016 4.20166 4.50328C4.29994 4.4964 4.39843 4.51343 4.48869 4.55291C4.57895 4.59238 4.65831 4.65314 4.71998 4.72997C5.90109 6.1791 7.58084 7.13488 9.42998 7.40997C9.43089 6.74896 9.62222 6.1022 9.98108 5.54708C10.34 4.99197 10.8512 4.552 11.4535 4.27982C12.0559 4.00765 12.7239 3.91478 13.3777 4.01235C14.0315 4.10992 14.6433 4.39378 15.14 4.82997C15.6023 4.70563 16.0462 4.52069 16.46 4.27997C16.5892 4.23589 16.7295 4.23717 16.8579 4.2836C16.9862 4.33003 17.0949 4.41884 17.166 4.53536C17.2371 4.65189 17.2663 4.78916 17.2488 4.92454C17.2314 5.05991 17.1683 5.18528 17.07 5.27997C17.226 5.25025 17.3874 5.28254 17.52 5.36997C17.6524 5.45765 17.7446 5.59426 17.7765 5.74984C17.8084 5.90542 17.7773 6.06729 17.69 6.19997C17.3286 6.74051 16.8869 7.22273 16.38 7.62997V7.70997C16.3975 8.86303 16.1835 10.0079 15.7505 11.0767C15.3176 12.1456 14.6747 13.1167 13.8597 13.9326C13.0448 14.7485 12.0744 15.3926 11.006 15.8267C9.93766 16.2608 8.79306 16.4762 7.63998 16.46ZM5.64998 15C6.30119 15.1809 6.97411 15.2717 7.64998 15.27C8.6375 15.2793 9.61697 15.0917 10.5311 14.7181C11.4453 14.3445 12.2758 13.7924 12.9741 13.0941C13.6724 12.3958 14.2245 11.5653 14.5981 10.6511C14.9717 9.73696 15.1593 8.75748 15.15 7.76997C15.15 7.65997 15.15 7.53997 15.15 7.42997C15.1434 7.33053 15.1631 7.2311 15.2069 7.14161C15.2508 7.05213 15.3174 6.9757 15.4 6.91997C15.8966 6.55686 16.3263 6.11022 16.67 5.59997L16.73 5.51997C16.2127 5.78361 15.6605 5.97217 15.09 6.07997C14.9906 6.09877 14.888 6.09213 14.7918 6.06066C14.6957 6.02919 14.609 5.97391 14.54 5.89997C14.2292 5.5763 13.8291 5.35248 13.3906 5.25702C12.9521 5.16156 12.4952 5.19879 12.078 5.36397C11.6607 5.52914 11.3021 5.81478 11.0478 6.1845C10.7935 6.55421 10.655 6.99127 10.65 7.43997C10.649 7.61178 10.6692 7.78306 10.71 7.94997C10.7315 8.04003 10.7318 8.13383 10.711 8.22405C10.6902 8.31426 10.6487 8.39843 10.59 8.46997C10.5333 8.54476 10.4587 8.60411 10.3731 8.64255C10.2875 8.68099 10.1935 8.6973 10.1 8.68997C7.98835 8.58287 5.98756 7.71218 4.46998 6.23997C4.46998 6.33997 4.46998 6.43997 4.46998 6.53997C4.46923 6.91002 4.56018 7.27448 4.73468 7.6008C4.90918 7.92712 5.1618 8.20512 5.46998 8.40997C5.57908 8.48104 5.6611 8.58677 5.70282 8.71011C5.74454 8.83346 5.74354 8.96726 5.69998 9.08997C5.65806 9.21298 5.57855 9.31971 5.47268 9.39507C5.36681 9.47044 5.23993 9.51063 5.10998 9.50997L4.61998 9.44997C4.7605 9.78835 4.98152 10.0873 5.26385 10.3208C5.54617 10.5543 5.88126 10.7154 6.23998 10.79C6.37536 10.8152 6.49764 10.887 6.58564 10.993C6.67364 11.0989 6.72181 11.2323 6.72181 11.37C6.72181 11.5077 6.67364 11.6411 6.58564 11.747C6.49764 11.8529 6.37536 11.9247 6.23998 11.95C6.10585 11.9905 5.96877 12.0206 5.82998 12.04C6.03515 12.2741 6.28707 12.4627 6.56953 12.5936C6.85198 12.7245 7.15871 12.7948 7.46998 12.8C7.59357 12.8047 7.71293 12.8462 7.81273 12.9193C7.91252 12.9923 7.98818 13.0936 8.02998 13.21C8.07008 13.3271 8.07234 13.4538 8.03645 13.5722C8.00056 13.6907 7.92833 13.7948 7.82998 13.87C7.18636 14.3889 6.44502 14.7732 5.64998 15Z" fill="#3D505F"/>
</svg>
