<svg width="20" height="20" viewBox="0 0 20 20" fill="none" xmlns="http://www.w3.org/2000/svg">
<path d="M10 12C9.38722 12.0035 8.78216 11.8633 8.23337 11.5907C7.68458 11.318 7.20735 10.9205 6.84 10.43H3.7C3.46131 10.43 3.23239 10.3352 3.06361 10.1664C2.89482 9.99763 2.8 9.76872 2.8 9.53002C2.8 9.29133 2.89482 9.06241 3.06361 8.89363C3.23239 8.72484 3.46131 8.63002 3.7 8.63002H6.86C7.13577 8.62884 7.40795 8.69249 7.65461 8.81581C7.90126 8.93914 8.11548 9.1187 8.28 9.34002C8.48131 9.6052 8.74145 9.82001 9.03993 9.96751C9.33841 10.115 9.66707 10.1912 10 10.19C10.3329 10.1912 10.6616 10.115 10.9601 9.96751C11.2586 9.82001 11.5187 9.6052 11.72 9.34002C11.8845 9.1187 12.0987 8.93914 12.3454 8.81581C12.5921 8.69249 12.8642 8.62884 13.14 8.63002H16.3C16.4182 8.63002 16.5352 8.6533 16.6444 8.69853C16.7536 8.74376 16.8528 8.81005 16.9364 8.89363C17.02 8.9772 17.0863 9.07641 17.1315 9.18561C17.1767 9.2948 17.2 9.41183 17.2 9.53002C17.2 9.64821 17.1767 9.76524 17.1315 9.87444C17.0863 9.98363 17.02 10.0828 16.9364 10.1664C16.8528 10.25 16.7536 10.3163 16.6444 10.3615C16.5352 10.4067 16.4182 10.43 16.3 10.43H13.14C12.7774 10.9207 12.304 11.3187 11.7583 11.5916C11.2126 11.8644 10.6101 12.0044 10 12Z" fill="#637887"/>
<path d="M13.6 16H6.4C5.44522 16 4.52955 15.6207 3.85442 14.9456C3.17929 14.2705 2.8 13.3548 2.8 12.4V8.84C2.80143 8.45077 2.9276 8.07224 3.16 7.76L4.87 5.48C5.20222 5.02667 5.63542 4.65692 6.1353 4.40004C6.63518 4.14315 7.18801 4.00619 7.75 4H12.25C12.8086 4.00154 13.3593 4.13234 13.8589 4.38216C14.3586 4.63198 14.7936 4.99404 15.13 5.44L16.84 7.72C17.0724 8.03224 17.1986 8.41077 17.2 8.8V12.4C17.2 12.8728 17.1069 13.3409 16.926 13.7777C16.7451 14.2144 16.4799 14.6113 16.1456 14.9456C15.8113 15.2799 15.4144 15.545 14.9777 15.726C14.5409 15.9069 14.0728 16 13.6 16ZM7.75 5.84C7.47083 5.84153 7.19576 5.90727 6.94606 6.03211C6.69636 6.15696 6.47873 6.33758 6.31 6.56L4.6 8.84V12.44C4.6 12.9174 4.78965 13.3752 5.12721 13.7128C5.46478 14.0504 5.92261 14.24 6.4 14.24H13.6C14.0774 14.24 14.5352 14.0504 14.8728 13.7128C15.2104 13.3752 15.4 12.9174 15.4 12.44V8.84L13.69 6.56C13.5213 6.33758 13.3036 6.15696 13.0539 6.03211C12.8042 5.90727 12.5292 5.84153 12.25 5.84H7.75Z" fill="#637887"/>
</svg>
