<svg width="20" height="20" viewBox="0 0 20 20" fill="none" xmlns="http://www.w3.org/2000/svg">
<path d="M13.4 8.79998H4.6C4.44087 8.79998 4.28826 8.73676 4.17574 8.62424C4.06321 8.51172 4 8.35911 4 8.19998C4 8.04085 4.06321 7.88823 4.17574 7.77571C4.28826 7.66319 4.44087 7.59998 4.6 7.59998H13.4C13.5591 7.59998 13.7117 7.66319 13.8243 7.77571C13.9368 7.88823 14 8.04085 14 8.19998C14 8.35911 13.9368 8.51172 13.8243 8.62424C13.7117 8.73676 13.5591 8.79998 13.4 8.79998Z" fill="#3D505F"/>
<path d="M15.4 5.2H4.6C4.44087 5.2 4.28826 5.13679 4.17574 5.02426C4.06321 4.91174 4 4.75913 4 4.6C4 4.44087 4.06321 4.28826 4.17574 4.17574C4.28826 4.06321 4.44087 4 4.6 4H15.4C15.5591 4 15.7117 4.06321 15.8243 4.17574C15.9368 4.28826 16 4.44087 16 4.6C16 4.75913 15.9368 4.91174 15.8243 5.02426C15.7117 5.13679 15.5591 5.2 15.4 5.2Z" fill="#3D505F"/>
<path d="M15.4 16H4.6C4.44087 16 4.28826 15.9368 4.17574 15.8243C4.06321 15.7118 4 15.5591 4 15.4V11.8C4 11.6409 4.06321 11.4883 4.17574 11.3757C4.28826 11.2632 4.44087 11.2 4.6 11.2H15.4C15.5591 11.2 15.7117 11.2632 15.8243 11.3757C15.9368 11.4883 16 11.6409 16 11.8V15.4C16 15.5591 15.9368 15.7118 15.8243 15.8243C15.7117 15.9368 15.5591 16 15.4 16ZM5.2 14.8H14.8V12.4H5.2V14.8Z" fill="#3D505F"/>
</svg>
