<svg width="20" height="20" viewBox="0 0 20 20" fill="none" xmlns="http://www.w3.org/2000/svg">
<path d="M5.40999 16.65C5.30373 16.6473 5.2 16.6169 5.1091 16.5619C5.01819 16.5068 4.94326 16.4289 4.89172 16.3359C4.84019 16.2429 4.81384 16.1381 4.81529 16.0318C4.81674 15.9256 4.84594 15.8215 4.89999 15.73C5.44446 14.9525 5.75975 14.0378 5.80999 13.09C5.60193 12.9763 5.41019 12.835 5.23999 12.67C3.56999 11 3.56999 6.41997 5.23999 4.75997C6.90999 3.09997 13.62 3.11997 15.24 4.75997C16.86 6.39997 16.91 11.01 15.24 12.67C14.24 13.67 11.83 13.86 10.66 13.9C9.99999 15.43 8.19999 16.35 5.46999 16.64L5.40999 16.65ZM10.25 4.72997C8.45999 4.72997 6.66999 5.01997 6.07999 5.60997C4.88999 6.79997 4.88999 10.61 6.07999 11.82C6.2467 11.9633 6.4359 12.0782 6.63999 12.16C6.7431 12.2008 6.83207 12.2707 6.89601 12.3613C6.95995 12.4519 6.99609 12.5592 6.99999 12.67C7.05065 13.5636 6.88245 14.4561 6.50999 15.27C8.26999 14.9 9.33999 14.18 9.70999 13.11C9.75119 12.9912 9.82806 12.8881 9.93008 12.8147C10.0321 12.7414 10.1543 12.7013 10.28 12.7C12.2 12.7 13.9 12.34 14.42 11.82C15.61 10.63 15.61 6.81997 14.42 5.60997C13.83 4.99997 12 4.72997 10.25 4.72997Z" fill="#3D505F"/>
</svg>
