<svg width="20" height="20" viewBox="0 0 20 20" fill="none" xmlns="http://www.w3.org/2000/svg">
<path d="M13.34 16.54C11.61 16.54 9.19001 15.26 7.00001 13C3.88001 10 2.62001 6.51001 4.00001 5.00001L5.21001 3.84001C5.47844 3.58094 5.83695 3.43616 6.21001 3.43616C6.58307 3.43616 6.94157 3.58094 7.21001 3.84001L9.37001 6.00001C9.63381 6.26597 9.78184 6.6254 9.78184 7.00001C9.78184 7.37462 9.63381 7.73405 9.37001 8.00001L8.63001 8.77001L11.22 11.35L12 10.61C12.1302 10.4774 12.286 10.3727 12.4579 10.3022C12.6298 10.2317 12.8142 10.197 13 10.2C13.1864 10.1988 13.3711 10.2355 13.543 10.3076C13.7149 10.3798 13.8703 10.4861 14 10.62L16.17 12.79C16.3018 12.921 16.4064 13.0769 16.4778 13.2485C16.5492 13.4201 16.586 13.6041 16.586 13.79C16.586 13.9759 16.5492 14.1599 16.4778 14.3315C16.4064 14.5032 16.3018 14.659 16.17 14.79L15 16C14.5381 16.3893 13.9425 16.583 13.34 16.54ZM6.20001 4.63001C6.14421 4.63026 6.09059 4.65171 6.05001 4.69001L4.88001 5.86001C4.11001 6.68001 5.11001 9.48001 7.81001 12.18C10.51 14.88 13.31 15.89 14.14 15.1L15.3 13.94C15.338 13.8993 15.3591 13.8457 15.3591 13.79C15.3591 13.7343 15.338 13.6807 15.3 13.64L13.13 11.48C13.08 11.42 12.98 11.43 12.98 11.41C12.9529 11.4104 12.9262 11.4169 12.902 11.429C12.8778 11.4411 12.8566 11.4586 12.84 11.48L11.62 12.64C11.5079 12.7499 11.3571 12.8115 11.2 12.8115C11.043 12.8115 10.8922 12.7499 10.78 12.64L7.37001 9.22001C7.26239 9.10666 7.20239 8.95632 7.20239 8.80001C7.20239 8.64371 7.26239 8.49336 7.37001 8.38001L8.51001 7.17001C8.54666 7.12668 8.56677 7.07176 8.56677 7.01501C8.56677 6.95826 8.54666 6.90334 8.51001 6.86001L6.35001 4.69001C6.33055 4.67013 6.30716 4.65452 6.28133 4.64419C6.25551 4.63386 6.22781 4.62903 6.20001 4.63001Z" fill="#3D505F"/>
</svg>
