<svg width="26" height="26" viewBox="0 0 26 26" fill="none" xmlns="http://www.w3.org/2000/svg">
<path d="M13 21.17C12.2545 21.1705 11.5237 20.9627 10.89 20.57C10.2207 20.1762 9.46762 19.9464 8.69244 19.8995C7.91726 19.8526 7.14199 19.9898 6.43002 20.3C6.16944 20.4277 5.88106 20.4882 5.59113 20.4759C5.3012 20.4637 5.01894 20.3792 4.77002 20.23C4.53661 20.0754 4.34447 19.8661 4.21029 19.6204C4.0761 19.3747 4.00392 19.0999 4.00002 18.82C3.81002 15.77 3.78002 11 4.00002 9.14C4.09612 8.44025 4.37901 7.77934 4.81895 7.22678C5.25889 6.67422 5.83961 6.25043 6.50002 5.99999C7.54468 5.55626 8.68091 5.37093 9.81242 5.45971C10.9439 5.54849 12.0374 5.90877 13 6.50999C13.9478 5.93231 15.0179 5.58521 16.1243 5.49663C17.2307 5.40805 18.3424 5.58046 19.37 5.99999C20.0481 6.23614 20.65 6.65043 21.1128 7.1994C21.5756 7.74837 21.882 8.41177 22 9.11999C22.2066 12.3534 22.2066 15.5966 22 18.83C21.9815 19.1159 21.8947 19.3932 21.7468 19.6385C21.5988 19.8839 21.3942 20.0901 21.15 20.24C20.9021 20.3825 20.6232 20.4624 20.3374 20.4728C20.0517 20.4833 19.7677 20.424 19.51 20.3C18.806 19.9803 18.0347 19.8369 17.2629 19.8822C16.491 19.9275 15.7418 20.1601 15.08 20.56C14.4597 20.9589 13.7376 21.1706 13 21.17ZM8.35003 18.1C9.57046 18.0934 10.7698 18.4183 11.82 19.04C12.1665 19.2511 12.5643 19.3628 12.97 19.3628C13.3757 19.3628 13.7736 19.2511 14.12 19.04C15.0389 18.4719 16.084 18.14 17.1623 18.0737C18.2405 18.0074 19.3185 18.2088 20.3 18.66C20.4415 15.5475 20.4148 12.4296 20.22 9.31999C20.126 8.9281 19.9319 8.56729 19.6567 8.27283C19.3815 7.97837 19.0347 7.76033 18.65 7.63999C17.8097 7.30018 16.8958 7.1833 15.997 7.30069C15.0981 7.41808 14.2449 7.76576 13.52 8.31C13.3642 8.42684 13.1748 8.48999 12.98 8.48999C12.7853 8.48999 12.5958 8.42684 12.44 8.31C11.7029 7.75848 10.8347 7.40849 9.92117 7.29451C9.0076 7.18054 8.0801 7.3065 7.23002 7.65999C6.86004 7.78243 6.52819 7.99887 6.267 8.28811C6.00581 8.57735 5.82422 8.92948 5.74002 9.31C5.58002 11.06 5.61002 15.65 5.74002 18.64C6.5624 18.2785 7.45174 18.0945 8.35003 18.1Z" fill="#0291D9"/>
<path d="M13 16.25C12.7613 16.25 12.5324 16.1552 12.3636 15.9864C12.1948 15.8176 12.1 15.5887 12.1 15.35V7.60001C12.1 7.36132 12.1948 7.1324 12.3636 6.96362C12.5324 6.79483 12.7613 6.70001 13 6.70001C13.2387 6.70001 13.4676 6.79483 13.6364 6.96362C13.8052 7.1324 13.9 7.36132 13.9 7.60001V15.35C13.9 15.5887 13.8052 15.8176 13.6364 15.9864C13.4676 16.1552 13.2387 16.25 13 16.25Z" fill="#0291D9"/>
</svg>
