<?xml version="1.0" encoding="utf-8"?>
<!-- Generator: Adobe Illustrator 16.0.0, SVG Export Plug-In . SVG Version: 6.00 Build 0)  -->
<!DOCTYPE svg PUBLIC "-//W3C//DTD SVG 1.1//EN" "http://www.w3.org/Graphics/SVG/1.1/DTD/svg11.dtd">
<svg version="1.1" id="Layer_1" xmlns="http://www.w3.org/2000/svg" xmlns:xlink="http://www.w3.org/1999/xlink" x="0px" y="0px"
	 width="26px" height="26px" viewBox="0 0 26 26" enable-background="new 0 0 26 26" xml:space="preserve">
<path fill="#506472" d="M19.811,11.95H6.19c-0.497,0-0.9-0.403-0.9-0.9s0.403-0.9,0.9-0.9h13.621c0.497,0,0.9,0.403,0.9,0.9
	S20.308,11.95,19.811,11.95z"/>
<path fill="#506472" d="M19.811,15.851H6.19c-0.497,0-0.9-0.403-0.9-0.9s0.403-0.9,0.9-0.9h13.621c0.497,0,0.9,0.403,0.9,0.9
	S20.308,15.851,19.811,15.851z"/>
<path fill="#506472" d="M19.811,19.74H6.19c-0.497,0-0.9-0.403-0.9-0.9s0.403-0.9,0.9-0.9h13.621c0.497,0,0.9,0.403,0.9,0.9
	S20.308,19.74,19.811,19.74z"/>
<path fill="#506472" d="M19.811,8.06H6.19c-0.497,0-0.9-0.403-0.9-0.9s0.403-0.9,0.9-0.9h13.621c0.497,0,0.9,0.403,0.9,0.9
	S20.308,8.06,19.811,8.06z"/>
</svg>
