<svg width="16" height="16" viewBox="0 0 16 16" fill="none" xmlns="http://www.w3.org/2000/svg">
<path d="M7.99999 13C7.84086 13 7.68825 12.9313 7.57573 12.809C7.46321 12.6867 7.39999 12.5208 7.39999 12.3478V3.65217C7.39999 3.47921 7.46321 3.31332 7.57573 3.19102C7.68825 3.06871 7.84086 3 7.99999 3C8.15912 3 8.31174 3.06871 8.42426 3.19102C8.53678 3.31332 8.59999 3.47921 8.59999 3.65217V12.3478C8.59999 12.5208 8.53678 12.6867 8.42426 12.809C8.31174 12.9313 8.15912 13 7.99999 13Z" fill="#9AA7B2"/>
<path d="M3 8.00002C3 7.84089 3.06871 7.68828 3.19102 7.57576C3.31332 7.46324 3.47921 7.40002 3.65217 7.40002L12.3478 7.40002C12.5208 7.40002 12.6867 7.46324 12.809 7.57576C12.9313 7.68828 13 7.84089 13 8.00002C13 8.15915 12.9313 8.31177 12.809 8.42429C12.6867 8.53681 12.5208 8.60002 12.3478 8.60002L3.65217 8.60002C3.47921 8.60002 3.31332 8.53681 3.19102 8.42429C3.06871 8.31177 3 8.15915 3 8.00002Z" fill="#9AA7B2"/>
</svg>
