<?xml version="1.0" encoding="utf-8"?>
<!-- Generator: Adobe Illustrator 16.0.0, SVG Export Plug-In . SVG Version: 6.00 Build 0)  -->
<!DOCTYPE svg PUBLIC "-//W3C//DTD SVG 1.1//EN" "http://www.w3.org/Graphics/SVG/1.1/DTD/svg11.dtd">
<svg version="1.1" id="Layer_1" xmlns="http://www.w3.org/2000/svg" xmlns:xlink="http://www.w3.org/1999/xlink" x="0px" y="0px"
	 width="30px" height="30px" viewBox="0 0 30 30" enable-background="new 0 0 30 30" xml:space="preserve">
<path d="M15,24c-0.552,0-1-0.447-1-1V7c0-0.552,0.448-1,1-1c0.553,0,1,0.448,1,1v16C16,23.553,15.553,24,15,24z"/>
<path d="M23,16H7c-0.552,0-1-0.447-1-1c0-0.552,0.448-1,1-1h16c0.553,0,1,0.448,1,1C24,15.553,23.553,16,23,16z"/>
</svg>
