<svg width="16" height="16" viewBox="0 0 16 16" fill="none" xmlns="http://www.w3.org/2000/svg">
<path d="M8.00001 14.9C7.76131 14.9 7.53239 14.8052 7.36361 14.6364C7.19483 14.4676 7.10001 14.2387 7.10001 14V1.99998C7.10001 1.76128 7.19483 1.53236 7.36361 1.36358C7.53239 1.1948 7.76131 1.09998 8.00001 1.09998C8.2387 1.09998 8.46762 1.1948 8.6364 1.36358C8.80519 1.53236 8.90001 1.76128 8.90001 1.99998V14C8.90001 14.2387 8.80519 14.4676 8.6364 14.6364C8.46762 14.8052 8.2387 14.9 8.00001 14.9Z" fill="#506472"/>
<path d="M14 8.89998H2.00001C1.76131 8.89998 1.53239 8.80515 1.36361 8.63637C1.19483 8.46759 1.10001 8.23867 1.10001 7.99998C1.10001 7.76128 1.19483 7.53236 1.36361 7.36358C1.53239 7.1948 1.76131 7.09998 2.00001 7.09998H14C14.2387 7.09998 14.4676 7.1948 14.6364 7.36358C14.8052 7.53236 14.9 7.76128 14.9 7.99998C14.9 8.23867 14.8052 8.46759 14.6364 8.63637C14.4676 8.80515 14.2387 8.89998 14 8.89998Z" fill="#506472"/>
</svg>
