<?xml version="1.0" encoding="utf-8"?>
<!-- Generator: Adobe Illustrator 16.0.0, SVG Export Plug-In . SVG Version: 6.00 Build 0)  -->
<!DOCTYPE svg PUBLIC "-//W3C//DTD SVG 1.1//EN" "http://www.w3.org/Graphics/SVG/1.1/DTD/svg11.dtd">
<svg version="1.1" id="Layer_1" xmlns="http://www.w3.org/2000/svg" xmlns:xlink="http://www.w3.org/1999/xlink" x="0px" y="0px"
	 width="26px" height="26px" viewBox="0 0 26 26" enable-background="new 0 0 26 26" xml:space="preserve">
<path fill="#506472" d="M10,21.541H6.44c-1.092,0-1.98-0.889-1.98-1.98V16c0-1.092,0.888-1.98,1.98-1.98H10
	c1.092,0,1.98,0.889,1.98,1.98v3.561C11.98,20.652,11.092,21.541,10,21.541z M6.44,15.82c-0.099,0-0.18,0.08-0.18,0.18v3.561
	c0,0.1,0.081,0.18,0.18,0.18H10c0.099,0,0.18-0.08,0.18-0.18V16c0-0.1-0.081-0.18-0.18-0.18H6.44z"/>
<path fill="#506472" d="M19.561,21.541H16c-1.092,0-1.98-0.889-1.98-1.98V16c0-1.092,0.889-1.98,1.98-1.98h3.561
	c1.092,0,1.98,0.889,1.98,1.98v3.561C21.541,20.652,20.652,21.541,19.561,21.541z M16,15.82c-0.1,0-0.18,0.08-0.18,0.18v3.561
	c0,0.1,0.08,0.18,0.18,0.18h3.561c0.1,0,0.18-0.08,0.18-0.18V16c0-0.1-0.08-0.18-0.18-0.18H16z"/>
<path fill="#506472" d="M10,11.98H6.44c-1.092,0-1.98-0.888-1.98-1.98V6.44c0-1.092,0.888-1.98,1.98-1.98H10
	c1.092,0,1.98,0.888,1.98,1.98V10C11.98,11.092,11.092,11.98,10,11.98z M6.44,6.26c-0.099,0-0.18,0.081-0.18,0.18V10
	c0,0.099,0.081,0.18,0.18,0.18H10c0.099,0,0.18-0.081,0.18-0.18V6.44c0-0.099-0.081-0.18-0.18-0.18H6.44z"/>
<path fill="#506472" d="M19.561,11.98H16c-1.092,0-1.98-0.888-1.98-1.98V6.44c0-1.092,0.889-1.98,1.98-1.98h3.561
	c1.092,0,1.98,0.888,1.98,1.98V10C21.541,11.092,20.652,11.98,19.561,11.98z M16,6.26c-0.1,0-0.18,0.081-0.18,0.18V10
	c0,0.099,0.08,0.18,0.18,0.18h3.561c0.1,0,0.18-0.081,0.18-0.18V6.44c0-0.099-0.08-0.18-0.18-0.18H16z"/>
</svg>
