<?xml version="1.0" encoding="utf-8"?>
<!-- Generator: Adobe Illustrator 16.0.0, SVG Export Plug-In . SVG Version: 6.00 Build 0)  -->
<!DOCTYPE svg PUBLIC "-//W3C//DTD SVG 1.1//EN" "http://www.w3.org/Graphics/SVG/1.1/DTD/svg11.dtd">
<svg version="1.1" id="Layer_1" xmlns="http://www.w3.org/2000/svg" xmlns:xlink="http://www.w3.org/1999/xlink" x="0px" y="0px"
	 width="26px" height="26px" viewBox="0 0 26 26" enable-background="new 0 0 26 26" xml:space="preserve">
<path fill="#506472" d="M21.3,13.9H6.74c-0.497,0-0.9-0.403-0.9-0.9s0.403-0.9,0.9-0.9H21.3c0.497,0,0.9,0.403,0.9,0.9
	S21.797,13.9,21.3,13.9z"/>
<path fill="#506472" d="M5.7,13.9c-0.497,0-0.9-0.403-0.9-0.9c0-1.549,6.524-6.902,6.59-6.953c0.392-0.304,0.958-0.231,1.262,0.163
	c0.304,0.393,0.231,0.958-0.163,1.262c-2.279,1.76-5.505,5.002-5.911,5.723C6.49,13.599,6.13,13.9,5.7,13.9z"/>
<path fill="#506472" d="M11.939,20.141c-0.192,0-0.386-0.062-0.549-0.188C11.324,19.901,4.8,14.551,4.8,13
	c0-0.497,0.403-0.9,0.9-0.9c0.43,0,0.79,0.302,0.879,0.705c0.406,0.721,3.632,3.963,5.911,5.722
	c0.394,0.304,0.466,0.869,0.163,1.263C12.475,20.02,12.208,20.141,11.939,20.141z"/>
</svg>
