<svg width="20" height="20" viewBox="0 0 20 20" fill="none" xmlns="http://www.w3.org/2000/svg">
<path d="M8 14.9C7.7612 14.8987 7.53204 14.8056 7.36 14.64L4.36 11.64C4.21824 11.4653 4.14626 11.2442 4.15794 11.0195C4.16961 10.7948 4.26413 10.5824 4.42324 10.4233C4.58235 10.2642 4.79477 10.1696 5.01948 10.158C5.24419 10.1463 5.46525 10.2183 5.64 10.36L8 12.73L14.36 6.36002C14.4403 6.26104 14.5405 6.18002 14.6541 6.12223C14.7677 6.06444 14.8922 6.03116 15.0195 6.02454C15.1468 6.01793 15.274 6.03812 15.393 6.08383C15.512 6.12953 15.62 6.19972 15.7102 6.28985C15.8003 6.37998 15.8705 6.48803 15.9162 6.60702C15.9619 6.726 15.9821 6.85326 15.9755 6.98055C15.9689 7.10784 15.9356 7.23232 15.8778 7.34592C15.82 7.45953 15.739 7.55972 15.64 7.64002L8.64 14.64C8.46796 14.8056 8.2388 14.8987 8 14.9Z" fill="#637887"/>
</svg>
