<svg width="16" height="16" viewBox="0 0 16 16" fill="none" xmlns="http://www.w3.org/2000/svg">
<path d="M6.99999 11.9C6.76119 11.8987 6.53203 11.8056 6.35999 11.64L3.92999 9.20002C3.77955 9.0282 3.70005 8.8056 3.70762 8.57735C3.71518 8.34909 3.80924 8.13225 3.97073 7.97076C4.13222 7.80927 4.34906 7.71521 4.57732 7.70765C4.80557 7.70008 5.02817 7.77958 5.19999 7.93002L6.99999 9.73002L11.36 5.36002C11.4403 5.26104 11.5405 5.18002 11.6541 5.12223C11.7677 5.06444 11.8922 5.03116 12.0195 5.02454C12.1468 5.01793 12.274 5.03812 12.393 5.08383C12.512 5.12953 12.62 5.19972 12.7102 5.28985C12.8003 5.37998 12.8705 5.48803 12.9162 5.60702C12.9619 5.726 12.9821 5.85326 12.9755 5.98055C12.9689 6.10784 12.9356 6.23232 12.8778 6.34592C12.82 6.45953 12.739 6.55972 12.64 6.64002L7.63999 11.64C7.46795 11.8056 7.2388 11.8987 6.99999 11.9Z" fill="#506472"/>
</svg>
