<?xml version="1.0" encoding="utf-8"?>
<!-- Generator: Adobe Illustrator 16.0.0, SVG Export Plug-In . SVG Version: 6.00 Build 0)  -->
<!DOCTYPE svg PUBLIC "-//W3C//DTD SVG 1.1//EN" "http://www.w3.org/Graphics/SVG/1.1/DTD/svg11.dtd">
<svg version="1.1" id="Layer_1" xmlns="http://www.w3.org/2000/svg" xmlns:xlink="http://www.w3.org/1999/xlink" x="0px" y="0px"
	 width="16px" height="16px" viewBox="0 0 16 16" enable-background="new 0 0 16 16" xml:space="preserve">
<path fill="#506472" d="M13,8.9H3C2.503,8.9,2.1,8.497,2.1,8S2.503,7.1,3,7.1h10c0.497,0,0.9,0.403,0.9,0.9S13.497,8.9,13,8.9z"/>
<path fill="#506472" d="M13,4.9H3C2.503,4.9,2.1,4.497,2.1,4S2.503,3.1,3,3.1h10c0.497,0,0.9,0.403,0.9,0.9S13.497,4.9,13,4.9z"/>
<path fill="#506472" d="M13,12.9H3c-0.497,0-0.9-0.403-0.9-0.9s0.403-0.9,0.9-0.9h10c0.497,0,0.9,0.403,0.9,0.9S13.497,12.9,13,12.9
	z"/>
</svg>
