<svg width="20" height="20" viewBox="0 0 20 20" fill="none" xmlns="http://www.w3.org/2000/svg">
<path d="M10 10.6C9.84089 10.6 9.68828 10.5368 9.57576 10.4243C9.46324 10.3118 9.40002 10.1591 9.40002 10V6.43002C9.40002 6.27089 9.46324 6.11827 9.57576 6.00575C9.68828 5.89323 9.84089 5.83002 10 5.83002C10.1592 5.83002 10.3118 5.89323 10.4243 6.00575C10.5368 6.11827 10.6 6.27089 10.6 6.43002V10C10.6 10.1591 10.5368 10.3118 10.4243 10.4243C10.3118 10.5368 10.1592 10.6 10 10.6Z" fill="#EB3143"/>
<path d="M9.99999 13.89C10.4915 13.89 10.89 13.4915 10.89 13C10.89 12.5085 10.4915 12.11 9.99999 12.11C9.50845 12.11 9.10999 12.5085 9.10999 13C9.10999 13.4915 9.50845 13.89 9.99999 13.89Z" fill="#EB3143"/>
<path d="M10 17.1C8.59578 17.1 7.22307 16.6836 6.05548 15.9035C4.88789 15.1233 3.97787 14.0144 3.44048 12.7171C2.9031 11.4197 2.7625 9.99215 3.03645 8.61489C3.31041 7.23762 3.98662 5.97252 4.97957 4.97957C5.97252 3.98662 7.23762 3.31041 8.61489 3.03645C9.99215 2.7625 11.4197 2.9031 12.7171 3.44048C14.0144 3.97787 15.1233 4.88789 15.9035 6.05548C16.6836 7.22307 17.1 8.59578 17.1 10C17.1 10.9324 16.9164 11.8557 16.5596 12.7171C16.2028 13.5785 15.6798 14.3612 15.0205 15.0205C14.3612 15.6798 13.5785 16.2028 12.7171 16.5596C11.8557 16.9164 10.9324 17.1 10 17.1ZM10 4.10003C8.83312 4.10003 7.69241 4.44606 6.72216 5.09436C5.75191 5.74266 4.9957 6.66411 4.54914 7.7422C4.10258 8.82028 3.98574 10.0066 4.21339 11.1511C4.44105 12.2955 5.00297 13.3468 5.8281 14.172C6.65323 14.9971 7.70451 15.559 8.849 15.7867C9.99348 16.0143 11.1798 15.8975 12.2579 15.4509C13.3359 15.0044 14.2574 14.2481 14.9057 13.2779C15.554 12.3076 15.9 11.1669 15.9 10C15.8974 8.43606 15.2749 6.93691 14.169 5.83102C13.0631 4.72513 11.564 4.10267 10 4.10003Z" fill="#EB3143"/>
</svg>
