<?xml version="1.0" encoding="utf-8"?>
<!-- Generator: Adobe Illustrator 16.0.0, SVG Export Plug-In . SVG Version: 6.00 Build 0)  -->
<!DOCTYPE svg PUBLIC "-//W3C//DTD SVG 1.1//EN" "http://www.w3.org/Graphics/SVG/1.1/DTD/svg11.dtd">
<svg version="1.1" id="Layer_1" xmlns="http://www.w3.org/2000/svg" xmlns:xlink="http://www.w3.org/1999/xlink" x="0px" y="0px"
	 width="20px" height="20px" viewBox="0 0 20 20" enable-background="new 0 0 20 20" xml:space="preserve">
<path fill="#3D505F" d="M14.5,16.1h-9c-1.434,0-2.6-1.166-2.6-2.6V7c0-1.434,1.167-2.6,2.6-2.6h2.167
	c0.344,0,0.686,0.114,0.96,0.321l1.466,1.099c0.069,0.052,0.154,0.08,0.24,0.08H14.5c1.434,0,2.6,1.167,2.6,2.6v5
	C17.1,14.934,15.934,16.1,14.5,16.1z M5.5,5.6C4.728,5.6,4.1,6.228,4.1,7v6.5c0,0.771,0.628,1.4,1.4,1.4h9
	c0.771,0,1.4-0.629,1.4-1.4v-5c0-0.772-0.629-1.4-1.4-1.4h-4.167c-0.344,0-0.686-0.114-0.96-0.321L7.907,5.68
	C7.837,5.628,7.752,5.6,7.667,5.6H5.5z"/>
</svg>
