<svg width="26" height="26" viewBox="0 0 26 26" fill="none" xmlns="http://www.w3.org/2000/svg">
<path d="M12.96 5.7H12.04C11.4877 5.7 11.04 6.14771 11.04 6.7V7.62C11.04 8.17228 11.4877 8.62 12.04 8.62H12.96C13.5123 8.62 13.96 8.17228 13.96 7.62V6.7C13.96 6.14771 13.5123 5.7 12.96 5.7Z" fill="#506472"/>
<path d="M12.96 11.54H12.04C11.4877 11.54 11.04 11.9877 11.04 12.54V13.46C11.04 14.0123 11.4877 14.46 12.04 14.46H12.96C13.5123 14.46 13.96 14.0123 13.96 13.46V12.54C13.96 11.9877 13.5123 11.54 12.96 11.54Z" fill="#506472"/>
<path d="M12.96 17.38H12.04C11.4877 17.38 11.04 17.8277 11.04 18.38V19.3C11.04 19.8523 11.4877 20.3 12.04 20.3H12.96C13.5123 20.3 13.96 19.8523 13.96 19.3V18.38C13.96 17.8277 13.5123 17.38 12.96 17.38Z" fill="#506472"/>
</svg>
