<svg width="20" height="20" viewBox="0 0 20 20" fill="none" xmlns="http://www.w3.org/2000/svg">
<path d="M1 10.5C3.53125 9.65625 4.65625 8.53125 5.5 6C6.34375 8.53125 7.46875 9.65625 10 10.5C7.46875 11.3438 6.34375 12.4688 5.5 15C4.65625 12.4688 3.53125 11.3438 1 10.5Z" fill="#9AA7B2"/>
<path d="M9 6C10.4062 5.53125 11.0312 4.90625 11.5 3.5C11.9688 4.90625 12.5938 5.53125 14 6C12.5938 6.46875 11.9688 7.09375 11.5 8.5C11.0312 7.09375 10.4062 6.46875 9 6Z" fill="#9AA7B2"/>
<path d="M10 13.5C11.9688 12.8438 12.8438 11.9688 13.5 10C14.1562 11.9688 15.0312 12.8438 17 13.5C15.0312 14.1562 14.1562 15.0312 13.5 17C12.8438 15.0312 11.9688 14.1562 10 13.5Z" fill="#9AA7B2"/>
</svg>
