<?xml version="1.0" encoding="utf-8"?>
<!-- Generator: Adobe Illustrator 16.0.0, SVG Export Plug-In . SVG Version: 6.00 Build 0)  -->
<!DOCTYPE svg PUBLIC "-//W3C//DTD SVG 1.1//EN" "http://www.w3.org/Graphics/SVG/1.1/DTD/svg11.dtd">
<svg version="1.1" id="Layer_1" xmlns="http://www.w3.org/2000/svg" xmlns:xlink="http://www.w3.org/1999/xlink" x="0px" y="0px"
	 width="26px" height="26px" viewBox="0 0 26 26" enable-background="new 0 0 26 26" xml:space="preserve">
<path fill="#506472" d="M13,6.64c-0.497,0-0.9-0.403-0.9-0.9V3.66c0-0.497,0.403-0.9,0.9-0.9s0.9,0.403,0.9,0.9v2.08
	C13.9,6.237,13.497,6.64,13,6.64z"/>
<path fill="#506472" d="M13,20c-0.56,0-1.41,0-2.38-0.07c0,0.051,0,0.09,0,0.141c0,0.637,0.253,1.246,0.703,1.697
	c0.45,0.449,1.061,0.703,1.697,0.703c0.636,0,1.248-0.254,1.697-0.703c0.45-0.451,0.703-1.061,0.703-1.697c0-0.051,0-0.09,0-0.141
	C14.41,20,13.561,20,13,20z"/>
<path fill="#506472" d="M13,20.9c-0.006,0-0.013,0-0.019-0.001c-1.856-0.039-6.375-0.202-8.245-0.872
	C4.378,19.898,4.14,19.56,4.14,19.18c0-1.363,0.668-2.425,1.376-3.549c0.798-1.267,1.624-2.577,1.624-4.551
	c-0.031-0.752,0.098-1.524,0.383-2.258c0.285-0.734,0.71-1.391,1.265-1.951c0.554-0.56,1.206-0.992,1.938-1.285
	c0.677-0.271,1.39-0.408,2.118-0.408l0.173,0.003l0.118-0.003c0.729,0,1.441,0.137,2.117,0.408c0.733,0.293,1.385,0.725,1.939,1.285
	c0.553,0.559,0.979,1.215,1.265,1.951s0.414,1.508,0.382,2.296c0.001,1.956,0.827,3.264,1.627,4.528
	c0.706,1.117,1.374,2.172,1.374,3.534c0,0.367-0.224,0.698-0.564,0.835C19.651,20.667,15.936,20.9,13,20.9z M6.036,18.52
	c1.402,0.301,3.949,0.517,6.974,0.58c2.891,0,5.519-0.217,6.941-0.557c-0.167-0.609-0.551-1.216-1.006-1.936
	c-0.849-1.342-1.905-3.013-1.905-5.527c0.023-0.576-0.064-1.104-0.26-1.606c-0.196-0.504-0.487-0.954-0.866-1.336
	c-0.379-0.383-0.826-0.679-1.329-0.88c-0.462-0.185-0.949-0.279-1.448-0.279l-0.118,0.001l-0.173-0.001
	c-0.499,0-0.986,0.094-1.449,0.279c-0.502,0.201-0.949,0.497-1.328,0.88c-0.38,0.384-0.671,0.834-0.867,1.336
	c-0.195,0.502-0.283,1.031-0.261,1.571c0,2.53-1.053,4.202-1.9,5.547C6.588,17.308,6.206,17.914,6.036,18.52z"/>
</svg>
