<?xml version="1.0" encoding="utf-8"?>
<!-- Generator: Adobe Illustrator 16.0.0, SVG Export Plug-In . SVG Version: 6.00 Build 0)  -->
<!DOCTYPE svg PUBLIC "-//W3C//DTD SVG 1.1//EN" "http://www.w3.org/Graphics/SVG/1.1/DTD/svg11.dtd">
<svg version="1.1" id="Layer_1" xmlns="http://www.w3.org/2000/svg" xmlns:xlink="http://www.w3.org/1999/xlink" x="0px" y="0px"
	 width="26px" height="26px" viewBox="0 0 26 26" enable-background="new 0 0 26 26" xml:space="preserve">
<g>
	<defs>
		<rect id="SVGID_1_" width="26" height="26"/>
	</defs>
	<clipPath id="SVGID_2_">
		<use xlink:href="#SVGID_1_"  overflow="visible"/>
	</clipPath>
	<g clip-path="url(#SVGID_2_)">
		<path fill="#EB3143" d="M13,6.69c-0.497,0-0.9-0.403-0.9-0.9V3.71c0-0.497,0.403-0.9,0.9-0.9s0.9,0.403,0.9,0.9v2.08
			C13.9,6.287,13.497,6.69,13,6.69z"/>
		<path fill="#EB3143" d="M13,20.07c-0.56,0-1.41,0-2.38-0.07c0,0.05,0,0.1,0,0.15c0,0.637,0.253,1.246,0.703,1.697
			c0.45,0.449,1.061,0.702,1.697,0.702c0.636,0,1.248-0.253,1.697-0.702c0.45-0.451,0.703-1.061,0.703-1.697c0,0,0-0.101,0-0.15
			C14.41,20.061,13.561,20.07,13,20.07z"/>
		<path fill="#EB3143" d="M13,20.9c-2.77,0-6.594-0.214-8.256-0.813C4.387,19.958,4.15,19.619,4.15,19.24
			c0-1.369,0.669-2.434,1.378-3.56c0.797-1.268,1.622-2.578,1.622-4.551c-0.033-0.75,0.095-1.523,0.38-2.259
			c0.285-0.735,0.71-1.393,1.265-1.954c0.556-0.561,1.209-0.993,1.942-1.285c0.675-0.269,1.385-0.405,2.111-0.405l0.182,0.003
			l0.114-0.003c0.723,0,1.432,0.136,2.105,0.403c0.729,0.29,1.377,0.717,1.929,1.271c0.552,0.553,0.978,1.202,1.267,1.931
			c0.288,0.729,0.421,1.495,0.396,2.277c0.001,1.962,0.826,3.271,1.625,4.535c0.677,1.07,1.376,2.178,1.376,3.545
			c0,0.367-0.224,0.697-0.564,0.835C19.672,20.67,15.949,20.9,13,20.9z M6.044,18.581C7.506,18.895,10.18,19.1,13,19.1
			c2.905,0,5.535-0.213,6.95-0.548c-0.166-0.614-0.552-1.224-1.008-1.946c-0.848-1.343-1.903-3.013-1.903-5.525
			c0.019-0.564-0.072-1.088-0.27-1.585c-0.197-0.499-0.489-0.944-0.866-1.322c-0.378-0.379-0.822-0.671-1.32-0.869
			c-0.461-0.183-0.945-0.276-1.44-0.276l-0.116,0.001l-0.18-0.002c-0.497,0-0.983,0.093-1.445,0.277
			c-0.501,0.2-0.948,0.496-1.329,0.879c-0.379,0.384-0.67,0.834-0.865,1.337c-0.195,0.504-0.282,1.032-0.259,1.571
			c0,2.529-1.052,4.202-1.897,5.547C6.598,17.36,6.214,17.97,6.044,18.581z"/>
		<path fill="#EB3143" d="M21.71,8.46c-0.358,0-0.698-0.216-0.837-0.57c-0.544-1.381-1.445-2.6-2.604-3.527
			c-0.389-0.31-0.452-0.876-0.142-1.265c0.31-0.387,0.875-0.452,1.265-0.142c1.405,1.123,2.496,2.6,3.155,4.273
			c0.183,0.462-0.045,0.985-0.507,1.167C21.932,8.44,21.82,8.46,21.71,8.46z"/>
		<path fill="#EB3143" d="M25.12,7.74c-0.368,0-0.713-0.228-0.846-0.593c-0.772-2.128-2.103-4.014-3.847-5.453
			c-0.384-0.316-0.438-0.884-0.122-1.267c0.315-0.384,0.883-0.438,1.267-0.122c1.993,1.644,3.512,3.797,4.394,6.227
			c0.17,0.467-0.071,0.983-0.539,1.153C25.326,7.723,25.222,7.74,25.12,7.74z"/>
		<path fill="#EB3143" d="M4.29,8.46c-0.109,0-0.221-0.021-0.33-0.063C3.498,8.215,3.271,7.692,3.453,7.23
			c0.66-1.673,1.75-3.151,3.156-4.273C6.997,2.646,7.563,2.71,7.873,3.099C8.184,3.487,8.12,4.053,7.731,4.363
			C6.572,5.29,5.671,6.509,5.127,7.89C4.988,8.244,4.648,8.46,4.29,8.46z"/>
		<path fill="#EB3143" d="M0.92,7.71c-0.102,0-0.205-0.018-0.307-0.054c-0.467-0.169-0.709-0.686-0.54-1.153
			c0.874-2.413,2.378-4.555,4.351-6.195C4.808-0.01,5.375,0.042,5.692,0.424c0.318,0.382,0.266,0.95-0.116,1.268
			c-1.727,1.437-3.044,3.312-3.81,5.425C1.633,7.483,1.288,7.71,0.92,7.71z"/>
	</g>
</g>
</svg>
