<svg width="26" height="26" viewBox="0 0 26 26" fill="none" xmlns="http://www.w3.org/2000/svg">
<path d="M17.23 9.41001C16.4839 9.39839 15.7392 9.34162 15 9.24001C14.7626 9.20951 14.5471 9.08596 14.4008 8.89655C14.2546 8.70714 14.1895 8.46738 14.22 8.23001C14.2505 7.99264 14.3741 7.77711 14.5635 7.63083C14.7529 7.48455 14.9926 7.41951 15.23 7.45001C16.0044 7.56535 16.7872 7.61553 17.57 7.60001C17.5855 6.81719 17.5354 6.03444 17.42 5.26001C17.4029 5.14248 17.4092 5.02273 17.4384 4.90761C17.4676 4.79249 17.5192 4.68425 17.5902 4.58907C17.6613 4.49389 17.7503 4.41364 17.8524 4.35289C17.9545 4.29213 18.0675 4.25208 18.185 4.23501C18.3025 4.21794 18.4223 4.22418 18.5374 4.25339C18.6525 4.28259 18.7608 4.33419 18.8559 4.40522C18.9511 4.47626 19.0314 4.56535 19.0921 4.6674C19.1529 4.76946 19.1929 4.88248 19.21 5.00001C19.63 8.27001 19.21 8.73001 18.96 9.00001C18.71 9.27001 18.53 9.41001 17.23 9.41001Z" fill="#EB3143"/>
<path d="M13 21.1C11.6638 21.1035 10.3472 20.7779 9.16653 20.1521C7.98588 19.5263 6.97746 18.6194 6.23028 17.5115C5.4831 16.4037 5.02015 15.1289 4.8823 13.7998C4.74445 12.4706 4.93593 11.128 5.43985 9.89039C5.94376 8.65277 6.74462 7.55825 7.7717 6.70344C8.79879 5.84863 10.0205 5.25981 11.3291 4.98898C12.6376 4.71815 13.9927 4.77362 15.2747 5.15051C16.5567 5.5274 17.7262 6.2141 18.68 7.15001C18.848 7.31868 18.9422 7.547 18.9422 7.78501C18.9422 8.02302 18.848 8.25134 18.68 8.42001C18.5097 8.58856 18.2797 8.68309 18.04 8.68309C17.8004 8.68309 17.5704 8.58856 17.4 8.42001C16.3501 7.40355 14.9814 6.78098 13.5252 6.65763C12.0691 6.53428 10.6151 6.91771 9.40922 7.74307C8.2033 8.56843 7.31953 9.78503 6.90741 11.187C6.4953 12.589 6.58016 14.0904 7.14763 15.437C7.7151 16.7836 8.73033 17.8929 10.0216 18.5771C11.3128 19.2613 12.8008 19.4785 14.2337 19.1918C15.6666 18.9052 16.9565 18.1323 17.8852 17.0041C18.8139 15.8758 19.3243 14.4613 19.33 13C19.33 12.7613 19.4248 12.5324 19.5936 12.3636C19.7624 12.1948 19.9913 12.1 20.23 12.1C20.4687 12.1 20.6976 12.1948 20.8664 12.3636C21.0352 12.5324 21.13 12.7613 21.13 13C21.1195 15.1502 20.2586 17.2089 18.7353 18.7265C17.2121 20.2441 15.1502 21.0974 13 21.1Z" fill="#EB3143"/>
</svg>