<svg width="20" height="20" viewBox="0 0 20 20" fill="none" xmlns="http://www.w3.org/2000/svg">
<path d="M14 7.80997C13.3811 7.79998 12.7634 7.75323 12.15 7.66997C12.0722 7.66016 11.9972 7.63494 11.9293 7.59579C11.8614 7.55664 11.8019 7.50435 11.7544 7.44197C11.707 7.3796 11.6724 7.30838 11.6527 7.23249C11.6331 7.1566 11.6288 7.07756 11.64 6.99997C11.66 6.8422 11.7418 6.69881 11.8674 6.60131C11.993 6.5038 12.1522 6.46016 12.31 6.47997C13.0079 6.5876 13.7145 6.62779 14.42 6.59997C14.4534 5.89141 14.4166 5.18127 14.31 4.47997C14.2988 4.40164 14.3035 4.32186 14.3238 4.24537C14.344 4.16888 14.3795 4.09725 14.428 4.03474C14.4765 3.97223 14.5371 3.92012 14.6062 3.88151C14.6752 3.84289 14.7514 3.81857 14.83 3.80997C14.9878 3.79016 15.147 3.8338 15.2726 3.93131C15.3983 4.02881 15.48 4.1722 15.5 4.32997C15.84 6.98997 15.5 7.32997 15.33 7.49997C15.16 7.66997 15 7.80997 14 7.80997Z" fill="#EB3143"/>
<path d="M10.5 16.5C9.5036 16.4943 8.52377 16.2445 7.64619 15.7726C6.7686 15.3007 6.01998 14.621 5.46578 13.7929C4.91157 12.9648 4.56865 12.0136 4.46701 11.0224C4.36536 10.0312 4.50808 9.03013 4.88268 8.10681C5.25729 7.18349 5.85237 6.36599 6.61591 5.72578C7.37945 5.08558 8.2882 4.64217 9.2627 4.43431C10.2372 4.22645 11.2478 4.26048 12.2061 4.53342C13.1644 4.80636 14.0413 5.30989 14.76 6.00001C14.8159 6.05575 14.8603 6.12199 14.8906 6.19492C14.9209 6.26785 14.9365 6.34604 14.9365 6.42501C14.9365 6.50398 14.9209 6.58217 14.8906 6.6551C14.8603 6.72803 14.8159 6.79427 14.76 6.85001C14.6462 6.96058 14.4937 7.02243 14.335 7.02243C14.1763 7.02243 14.0238 6.96058 13.91 6.85001C13.101 6.06295 12.0447 5.57996 10.9203 5.48296C9.79578 5.38596 8.67236 5.68093 7.74058 6.31783C6.80879 6.95473 6.12601 7.89434 5.80806 8.97729C5.4901 10.0602 5.55654 11.2198 5.99612 12.2594C6.4357 13.2989 7.22134 14.1544 8.21977 14.6807C9.21821 15.207 10.368 15.3717 11.474 15.1469C12.58 14.9221 13.5743 14.3216 14.288 13.4473C15.0018 12.573 15.3911 11.4787 15.39 10.35C15.39 10.1909 15.4532 10.0383 15.5657 9.92574C15.6783 9.81322 15.8309 9.75001 15.99 9.75001C16.1491 9.75001 16.3017 9.81322 16.4143 9.92574C16.5268 10.0383 16.59 10.1909 16.59 10.35C16.5953 11.1541 16.4418 11.9513 16.1383 12.6959C15.8349 13.4405 15.3875 14.1179 14.8217 14.6892C14.2559 15.2606 13.5829 15.7146 12.8413 16.0254C12.0997 16.3361 11.3041 16.4974 10.5 16.5Z" fill="#EB3143"/>
</svg>
