<svg width="20" height="20" viewBox="0 0 20 20" fill="none" xmlns="http://www.w3.org/2000/svg">
<path d="M8.5 13.65C7.48143 13.65 6.48573 13.3479 5.63881 12.782C4.7919 12.2162 4.13181 11.4118 3.74202 10.4708C3.35223 9.52976 3.25024 8.49427 3.44896 7.49526C3.64767 6.49626 4.13816 5.57862 4.8584 4.85838C5.57864 4.13814 6.49628 3.64765 7.49529 3.44893C8.49429 3.25022 9.52978 3.35221 10.4708 3.742C11.4119 4.13179 12.2162 4.79188 12.7821 5.63879C13.348 6.4857 13.65 7.4814 13.65 8.49998C13.6474 9.86503 13.1039 11.1734 12.1387 12.1387C11.1734 13.1039 9.86505 13.6473 8.5 13.65ZM8.5 5.14998C7.83743 5.14998 7.18975 5.34645 6.63884 5.71455C6.08794 6.08266 5.65856 6.60586 5.405 7.21799C5.15145 7.83012 5.08511 8.50369 5.21437 9.15353C5.34363 9.80337 5.66269 10.4003 6.13119 10.8688C6.5997 11.3373 7.19661 11.6563 7.84645 11.7856C8.49628 11.9149 9.16986 11.8485 9.78199 11.595C10.3941 11.3414 10.9173 10.912 11.2854 10.3611C11.6535 9.81023 11.85 9.16255 11.85 8.49998C11.85 7.6115 11.4971 6.75942 10.8688 6.13117C10.2406 5.50292 9.38848 5.14998 8.5 5.14998Z" fill="#637887"/>
<path d="M15.5 16.4C15.2612 16.3987 15.032 16.3057 14.86 16.14L10.86 12.14C10.7182 11.9653 10.6463 11.7442 10.6579 11.5195C10.6696 11.2948 10.7641 11.0824 10.9232 10.9233C11.0824 10.7642 11.2948 10.6696 11.5195 10.658C11.7442 10.6463 11.9653 10.7183 12.14 10.86L16.14 14.86C16.3085 15.0304 16.4031 15.2604 16.4031 15.5C16.4031 15.7397 16.3085 15.9697 16.14 16.14C15.968 16.3057 15.7388 16.3987 15.5 16.4Z" fill="#637887"/>
</svg>
