<?xml version="1.0" encoding="utf-8"?>
<!-- Generator: Adobe Illustrator 16.0.0, SVG Export Plug-In . SVG Version: 6.00 Build 0)  -->
<!DOCTYPE svg PUBLIC "-//W3C//DTD SVG 1.1//EN" "http://www.w3.org/Graphics/SVG/1.1/DTD/svg11.dtd">
<svg version="1.1" id="Layer_1" xmlns="http://www.w3.org/2000/svg" xmlns:xlink="http://www.w3.org/1999/xlink" x="0px" y="0px"
	 width="26px" height="26px" viewBox="0 0 26 26" enable-background="new 0 0 26 26" xml:space="preserve">
<path fill="#506472" d="M11.94,19.08c-3.937,0-7.14-3.203-7.14-7.14S8.003,4.8,11.94,4.8s7.14,3.203,7.14,7.14
	S15.877,19.08,11.94,19.08z M11.94,6.6c-2.944,0-5.34,2.396-5.34,5.34c0,2.945,2.396,5.339,5.34,5.339
	c2.945,0,5.339-2.395,5.339-5.339C17.279,8.996,14.885,6.6,11.94,6.6z"/>
<path fill="#506472" d="M21.3,22.2c-0.23,0-0.461-0.088-0.637-0.264l-4.95-4.95c-0.352-0.352-0.352-0.922,0-1.273
	s0.922-0.352,1.273,0l4.95,4.95c0.352,0.352,0.352,0.922,0,1.273C21.761,22.112,21.53,22.2,21.3,22.2z"/>
</svg>
