<?xml version="1.0" encoding="utf-8"?>
<!-- Generator: Adobe Illustrator 16.0.0, SVG Export Plug-In . SVG Version: 6.00 Build 0)  -->
<!DOCTYPE svg PUBLIC "-//W3C//DTD SVG 1.1//EN" "http://www.w3.org/Graphics/SVG/1.1/DTD/svg11.dtd">
<svg version="1.1" id="Layer_1" xmlns="http://www.w3.org/2000/svg" xmlns:xlink="http://www.w3.org/1999/xlink" x="0px" y="0px"
	 width="26px" height="26px" viewBox="0 0 26 26" enable-background="new 0 0 26 26" xml:space="preserve">
<path fill="#506472" d="M13,23.09c-0.001,0-0.003,0-0.005,0c-0.397-0.003-0.802-0.028-1.203-0.076
	c-0.321-0.049-0.601-0.167-0.836-0.347c-0.237-0.18-0.427-0.419-0.548-0.691l-0.731-1.663c-0.472-0.193-0.945-0.467-1.381-0.789
	l-1.771,0.202c-0.239,0.027-0.598-0.007-0.879-0.124c-0.283-0.118-0.532-0.31-0.719-0.554c-0.48-0.65-0.878-1.343-1.192-2.072
	c-0.123-0.305-0.162-0.614-0.123-0.916c0.038-0.296,0.153-0.585,0.332-0.83l1.063-1.443c-0.07-0.516-0.07-1.056-0.009-1.588
	l-1.051-1.424c-0.181-0.247-0.297-0.536-0.335-0.836c-0.039-0.3,0-0.609,0.114-0.893c0.323-0.75,0.721-1.442,1.192-2.08
	C5.112,6.709,5.36,6.518,5.644,6.399c0.285-0.118,0.592-0.162,0.897-0.123l1.783,0.188c0.407-0.311,0.88-0.584,1.377-0.8
	l0.705-1.637c0.124-0.277,0.313-0.516,0.55-0.695c0.234-0.178,0.513-0.297,0.807-0.342c0.429-0.051,0.829-0.077,1.23-0.08
	c0.416,0.003,0.815,0.029,1.213,0.076c0.323,0.049,0.604,0.168,0.84,0.348c0.235,0.179,0.426,0.418,0.546,0.691l0.732,1.662
	c0.472,0.194,0.945,0.467,1.381,0.79l1.771-0.202c0.236-0.031,0.599,0.006,0.881,0.125c0.284,0.119,0.532,0.311,0.719,0.555
	c0.485,0.667,0.884,1.379,1.195,2.131c0.118,0.291,0.157,0.601,0.118,0.904c-0.037,0.296-0.152,0.587-0.334,0.833l-1.061,1.44
	c0.072,0.516,0.072,1.057,0.009,1.592l1.052,1.422c0.181,0.243,0.297,0.534,0.335,0.838c0.038,0.298-0.001,0.607-0.115,0.891
	c-0.321,0.749-0.72,1.442-1.191,2.079c-0.192,0.253-0.44,0.444-0.724,0.564c-0.28,0.118-0.592,0.164-0.9,0.123l-1.784-0.188
	c-0.403,0.312-0.877,0.585-1.376,0.802l-0.71,1.596c-0.117,0.266-0.307,0.505-0.545,0.686c-0.236,0.18-0.516,0.298-0.808,0.343
	c-0.43,0.052-0.834,0.077-1.231,0.08C13.003,23.09,13.001,23.09,13,23.09z M8.323,17.735c0.372,0,0.729,0.115,1.032,0.334
	c0.337,0.248,0.691,0.453,1.063,0.615c0.411,0.174,0.738,0.501,0.912,0.92l0.723,1.643c0.283,0.02,0.615,0.04,0.946,0.042
	c0.332-0.002,0.662-0.022,0.992-0.063l0.688-1.599c0.164-0.396,0.493-0.725,0.915-0.899c0.358-0.156,0.713-0.36,1.038-0.602
	c0.314-0.227,0.673-0.342,1.047-0.342c0.03,0,0.149,0.006,0.18,0.009l1.805,0.191c0.36-0.497,0.688-1.068,0.947-1.671l-1.067-1.411
	c-0.264-0.375-0.377-0.813-0.33-1.249c0.047-0.404,0.047-0.804,0.001-1.199c-0.048-0.446,0.065-0.884,0.317-1.243l1.072-1.456
	c-0.255-0.603-0.583-1.19-0.974-1.727l-1.768,0.226c-0.031,0.003-0.154,0.01-0.186,0.01c-0.373,0-0.73-0.115-1.034-0.334
	c-0.336-0.249-0.69-0.453-1.063-0.615c-0.41-0.173-0.737-0.501-0.912-0.92l-0.724-1.643c-0.284-0.019-0.618-0.04-0.953-0.043
	c-0.32,0.003-0.654,0.024-0.986,0.063l-0.683,1.639c-0.168,0.403-0.495,0.731-0.915,0.908c-0.362,0.157-0.716,0.362-1.043,0.604
	C9.052,8.149,8.694,8.265,8.321,8.265c-0.031,0-0.154-0.006-0.185-0.01l-1.8-0.19c-0.361,0.497-0.69,1.068-0.949,1.671l1.068,1.411
	c0.264,0.375,0.377,0.813,0.331,1.249c-0.046,0.403-0.046,0.806-0.001,1.202c0.047,0.442-0.065,0.88-0.317,1.239l-1.073,1.457
	c0.251,0.572,0.58,1.145,0.969,1.671l1.772-0.22C8.167,17.742,8.292,17.735,8.323,17.735z"/>
<path fill="#506472" d="M13,16.871c-2.134,0-3.87-1.736-3.87-3.871c0-2.134,1.736-3.87,3.87-3.87c2.135,0,3.871,1.736,3.871,3.87
	C16.871,15.135,15.135,16.871,13,16.871z M13,10.93c-1.142,0-2.07,0.929-2.07,2.07s0.929,2.07,2.07,2.07s2.07-0.929,2.07-2.07
	S14.142,10.93,13,10.93z"/>
</svg>
