<?xml version="1.0" encoding="utf-8"?>
<!-- Generator: Adobe Illustrator 16.0.0, SVG Export Plug-In . SVG Version: 6.00 Build 0)  -->
<!DOCTYPE svg PUBLIC "-//W3C//DTD SVG 1.1//EN" "http://www.w3.org/Graphics/SVG/1.1/DTD/svg11.dtd">
<svg version="1.1" id="Layer_1" xmlns="http://www.w3.org/2000/svg" xmlns:xlink="http://www.w3.org/1999/xlink" x="0px" y="0px"
	 width="20px" height="20px" viewBox="0 0 20 20" enable-background="new 0 0 20 20" xml:space="preserve">
<path fill="#637887" d="M9.034,14.43c-2.975,0-5.396-2.42-5.396-5.396c0-2.975,2.421-5.396,5.396-5.396
	c2.976,0,5.396,2.421,5.396,5.396C14.43,12.01,12.01,14.43,9.034,14.43z M9.034,4.838c-2.313,0-4.196,1.882-4.196,4.196
	s1.882,4.196,4.196,4.196s4.196-1.883,4.196-4.196S11.348,4.838,9.034,4.838z"/>
<path fill="#637887" d="M15.962,16.562c-0.153,0-0.307-0.059-0.424-0.176l-3.197-3.197c-0.234-0.233-0.234-0.614,0-0.848
	c0.234-0.234,0.613-0.234,0.848,0l3.197,3.197c0.234,0.233,0.234,0.614,0,0.848C16.269,16.503,16.115,16.562,15.962,16.562z"/>
</svg>
