<?xml version="1.0" encoding="utf-8"?>
<!-- Generator: Adobe Illustrator 16.0.0, SVG Export Plug-In . SVG Version: 6.00 Build 0)  -->
<!DOCTYPE svg PUBLIC "-//W3C//DTD SVG 1.1//EN" "http://www.w3.org/Graphics/SVG/1.1/DTD/svg11.dtd">
<svg version="1.1" id="Layer_1" xmlns="http://www.w3.org/2000/svg" xmlns:xlink="http://www.w3.org/1999/xlink" x="0px" y="0px"
	 width="20px" height="20px" viewBox="0 0 20 20" enable-background="new 0 0 20 20" xml:space="preserve">
<path fill="#637887" d="M11.201,17.321c-0.402,0-0.785-0.17-1.106-0.491L3.271,9.902C2.958,9.589,2.783,9.177,2.783,8.746
	c0-0.431,0.174-0.842,0.491-1.159l1.049-1.049c0.234-0.234,0.614-0.234,0.849,0C5.53,6.896,6.137,6.86,6.567,6.501
	c0.154-0.128,0.245-0.327,0.256-0.558c0.013-0.283-0.095-0.56-0.296-0.761C6.411,5.066,6.348,4.908,6.352,4.744
	s0.075-0.319,0.196-0.43l1.118-1.017c0.527-0.638,1.593-0.65,2.229-0.013l6.725,7.041c0.642,0.642,0.643,1.551-0.01,2.203
	l-1.048,1.05c-0.119,0.119-0.263,0.181-0.452,0.176c-0.168-0.008-0.326-0.086-0.434-0.216c-0.282-0.339-0.955-0.322-1.317,0.04
	c-0.195,0.166-0.286,0.363-0.297,0.594c-0.013,0.283,0.095,0.561,0.296,0.761c0.112,0.112,0.176,0.266,0.176,0.425
	s-0.063,0.313-0.176,0.425l-1.051,1.049C11.987,17.151,11.604,17.321,11.201,17.321z M4.81,7.749L4.123,8.436
	c-0.186,0.186-0.186,0.435,0,0.621l6.825,6.929c0.119,0.121,0.384,0.124,0.511-0.003l0.686-0.684c-0.2-0.357-0.3-0.767-0.281-1.182
	c0.026-0.563,0.276-1.083,0.688-1.425c0.603-0.61,1.769-0.791,2.543-0.345l0.667-0.667c0.187-0.186,0.187-0.331,0.001-0.517
	L9.036,4.124c-0.162-0.162-0.422-0.09-0.45-0.055c-0.023,0.03-0.048,0.059-0.076,0.084L7.753,4.84
	C7.945,5.191,8.04,5.592,8.021,5.998C7.996,6.57,7.752,7.076,7.335,7.423C6.609,8.027,5.579,8.163,4.81,7.749z"/>
</svg>
