<svg width="30" height="30" viewBox="0 0 30 30" fill="none" xmlns="http://www.w3.org/2000/svg">
<path d="M24.79 15.57C24.7136 15.4272 24.5996 15.3079 24.4604 15.2251C24.3212 15.1423 24.162 15.099 24 15.1H20C20.14 5.52 19.89 5.21 19.69 4.95C19.49 4.69 19.1 4.39 16.89 4.29C15.53 4.23 11.06 4.1 10.32 4.88C10.07 5.16 9.76001 5.49 9.93001 15.1H6.00001C5.83287 15.1 5.66903 15.1465 5.52685 15.2344C5.38467 15.3223 5.26977 15.448 5.19502 15.5975C5.12027 15.747 5.08863 15.9144 5.10364 16.0808C5.11865 16.2473 5.17972 16.4063 5.28001 16.54C6.80001 18.54 13.28 25.9 15 25.9C16.72 25.9 22.94 19.23 24.75 16.5C24.8398 16.3629 24.8909 16.2042 24.8979 16.0405C24.905 15.8768 24.8677 15.7143 24.79 15.57Z" fill="#637887"/>
</svg>
