<svg width="16" height="16" viewBox="0 0 16 16" fill="none" xmlns="http://www.w3.org/2000/svg">
<path d="M8.00001 10.6C7.92146 10.6 7.84373 10.584 7.77153 10.5531C7.69934 10.5221 7.63418 10.4769 7.58001 10.42L3.58001 6.41998C3.46861 6.30858 3.40604 6.15751 3.40604 5.99998C3.40604 5.84245 3.46861 5.69137 3.58001 5.57998C3.6914 5.46858 3.84248 5.40601 4.00001 5.40601C4.15754 5.40601 4.30862 5.46858 4.42001 5.57998L8.00001 9.14998L11.58 5.57998C11.6352 5.52482 11.7006 5.48107 11.7727 5.45122C11.8448 5.42137 11.922 5.40601 12 5.40601C12.078 5.40601 12.1552 5.42137 12.2273 5.45122C12.2994 5.48107 12.3649 5.52482 12.42 5.57998C12.4752 5.63513 12.5189 5.70061 12.5488 5.77267C12.5786 5.84474 12.594 5.92197 12.594 5.99998C12.594 6.07798 12.5786 6.15521 12.5488 6.22728C12.5189 6.29934 12.4752 6.36482 12.42 6.41998L8.42001 10.42C8.36584 10.4769 8.30068 10.5221 8.22848 10.5531C8.15628 10.584 8.07855 10.6 8.00001 10.6Z" fill="#3D505F"/>
</svg>
