<svg width="16" height="16" viewBox="0 0 16 16" fill="none" xmlns="http://www.w3.org/2000/svg">
<path d="M8 10.9C7.7612 10.8987 7.53204 10.8056 7.36 10.64L3.36 6.64002C3.21824 6.46528 3.14626 6.24421 3.15794 6.0195C3.16961 5.79479 3.26413 5.58237 3.42324 5.42326C3.58235 5.26416 3.79477 5.16964 4.01948 5.15796C4.24419 5.14628 4.46525 5.21827 4.64 5.36002L8 8.73002L11.36 5.36002C11.4403 5.26104 11.5405 5.18002 11.6541 5.12223C11.7677 5.06444 11.8922 5.03116 12.0195 5.02454C12.1468 5.01793 12.274 5.03812 12.393 5.08383C12.512 5.12953 12.62 5.19972 12.7102 5.28985C12.8003 5.37998 12.8705 5.48803 12.9162 5.60702C12.9619 5.726 12.9821 5.85326 12.9755 5.98055C12.9689 6.10784 12.9356 6.23232 12.8778 6.34592C12.82 6.45953 12.739 6.55972 12.64 6.64002L8.64 10.64C8.46796 10.8056 8.2388 10.8987 8 10.9Z" fill="#506472"/>
</svg>
